<?xml version="1.0" encoding="UTF-8" standalone="no"?>
<!-- Created with Inkscape (http://www.inkscape.org/) -->

<svg
   width="76.124802mm"
   height="13.307064mm"
   viewBox="0 0 76.124802 13.307064"
   version="1.1"
   id="svg1"
   inkscape:version="1.3 (0e150ed6c4, 2023-07-21)"
   sodipodi:docname="banka-yapikredi.svg"
   xmlns:inkscape="http://www.inkscape.org/namespaces/inkscape"
   xmlns:sodipodi="http://sodipodi.sourceforge.net/DTD/sodipodi-0.dtd"
   xmlns="http://www.w3.org/2000/svg"
   xmlns:svg="http://www.w3.org/2000/svg">
  <sodipodi:namedview
     id="namedview1"
     pagecolor="#505050"
     bordercolor="#eeeeee"
     borderopacity="1"
     inkscape:showpageshadow="0"
     inkscape:pageopacity="0"
     inkscape:pagecheckerboard="0"
     inkscape:deskcolor="#d1d1d1"
     inkscape:document-units="mm"
     inkscape:zoom="0.74564394"
     inkscape:cx="144.17069"
     inkscape:cy="24.81077"
     inkscape:window-width="1920"
     inkscape:window-height="1051"
     inkscape:window-x="-9"
     inkscape:window-y="-9"
     inkscape:window-maximized="1"
     inkscape:current-layer="layer1" />
  <defs
     id="defs1" />
  <g
     inkscape:label="Layer 1"
     inkscape:groupmode="layer"
     id="layer1"
     transform="translate(-66.674995,-141.81666)">
    <g
       id="g10"
       transform="matrix(0.26458333,0,0,0.26458333,-58.7831,-137.90882)">
      <path
         id="path78"
         d="m 565.2604,539.1992 h 6.1557 v 4.9808 h -6.1557 z"
         style="fill:#1f4778 icc-color(ISO-Coated-v2-ECI, 1, 0.74508667, 0.29798889, 0.13729858);fill-opacity:1;fill-rule:nonzero;stroke:none"
         transform="matrix(1.3333333,0,0,-1.3333333,0,1783.9371)" />
      <path
         id="path79"
         d="m 457.3417,512.9858 -0.2684,1.1824 c -1.0735,-1.1824 -2.247,-1.7669 -4.6604,-1.7669 -2.5688,-0.0521 -4.3878,2.3003 -4.3379,5.1338 l 0.0558,4.0275 c 0.1083,6.5288 8.9981,4.5502 8.9981,9.4224 0,1.017 -0.0556,1.8734 -1.2379,1.8734 -1.1214,0 -1.4429,-0.8564 -1.4429,-1.8734 v -1.9817 h -6.3173 v 1.9817 c 0,4.229 3.6389,6.2113 7.7602,6.2113 5.254,0 7.6629,-2.9427 7.6629,-6.1558 v -18.0547 z m -0.3217,11.8885 v 0 c -1.5018,-0.9572 -2.5719,-1.4465 -2.5719,-3.4183 v -2.8992 c 0,-1.3953 0.3782,-1.9265 1.2878,-1.9265 0.9116,0 1.2841,0.5312 1.2841,1.9265 z"
         style="fill:#1f4778 icc-color(ISO-Coated-v2-ECI, 1, 0.74508667, 0.29798889, 0.13729858);fill-opacity:1;fill-rule:nonzero;stroke:none"
         transform="matrix(1.3333333,0,0,-1.3333333,0,1783.9371)" />
      <path
         id="path80"
         d="m 482.0598,519.3476 c 0,-3.7499 -0.6386,-6.8941 -4.8135,-6.8941 -2.3547,0 -3.5866,0.7463 -4.5527,2.1416 v -7.2857 h -6.1554 v 29.3497 h 6.1554 l -0.0499,-2.4055 c 1.2311,2.1937 2.5132,2.8905 4.9221,2.8905 3.3738,0 4.4986,-3.2119 4.4986,-6.2666 v -11.4582 l -0.005,-0.0717 z m -6.5812,11.0506 v 0 c 0,1.0718 -0.587,1.6569 -1.3929,1.6569 -0.8563,0 -1.442,-0.6418 -1.442,-1.7643 v -11.1994 c 0,-1.0681 0.5857,-1.6538 1.3884,-1.6538 0.8595,0 1.4465,0.5857 1.4465,1.7147 z"
         style="fill:#1f4778 icc-color(ISO-Coated-v2-ECI, 1, 0.74508667, 0.29798889, 0.13729858);fill-opacity:1;fill-rule:nonzero;stroke:none"
         transform="matrix(1.3333333,0,0,-1.3333333,0,1783.9371)" />
      <path
         id="path81"
         d="m 485.0155,512.9858 h 6.1555 v 23.6203 h -6.1555 z"
         style="fill:#1f4778 icc-color(ISO-Coated-v2-ECI, 1, 0.74508667, 0.29798889, 0.13729858);fill-opacity:1;fill-rule:nonzero;stroke:none"
         transform="matrix(1.3333333,0,0,-1.3333333,0,1783.9371)" />
      <path
         id="path82"
         d="m 506.2697,513.0235 -4.0241,10.9256 -0.9538,-1.7124 v -9.2132 h -6.9605 v 31.1732 h 6.9605 v -9.688 l 4.4396,9.688 h 6.9086 l -6.3703,-13.1173 6.9083,-18.0559 z"
         style="fill:#1f4778 icc-color(ISO-Coated-v2-ECI, 1, 0.74508667, 0.29798889, 0.13729858);fill-opacity:1;fill-rule:nonzero;stroke:none"
         transform="matrix(1.3333333,0,0,-1.3333333,0,1783.9371)" />
      <path
         id="path83"
         d="m 526.7047,530.1845 c -1.5429,0.5873 -5.6699,0.6395 -5.6699,-3.1612 v -14.0375 h -6.1588 v 23.6203 h 5.733 l -0.0575,-2.5144 c 2.1427,3.0524 4.443,3.1077 6.1044,3.1077 v -7.0149 z"
         style="fill:#1f4778 icc-color(ISO-Coated-v2-ECI, 1, 0.74508667, 0.29798889, 0.13729858);fill-opacity:1;fill-rule:nonzero;stroke:none"
         transform="matrix(1.3333333,0,0,-1.3333333,0,1783.9371)" />
      <path
         id="path84"
         d="m 544.0289,518.9394 c 0,-4.7083 -3.2596,-6.5372 -7.704,-6.5372 -4.0683,0 -7.7125,1.9822 -7.7125,6.6359 v 11.0375 c 0,4.4983 2.7348,7.0141 7.7125,7.0141 4.0683,0 7.7097,-1.6594 7.7097,-7.073 v -6.2181 h -9.0474 v -5.6656 c 0,-0.9681 0.4252,-1.5049 1.3377,-1.5049 0.9108,0 1.3377,0.5368 1.3377,1.5049 v 3.4738 h 6.372 v -2.7207 l -0.006,0.0533 z m -6.4738,12.424 v 0 c 0,0.9626 -0.426,1.4973 -1.2824,1.4973 -0.9102,0 -1.343,-0.5347 -1.343,-1.4973 V 528.15 h 2.6773 z"
         style="fill:#1f4778 icc-color(ISO-Coated-v2-ECI, 1, 0.74508667, 0.29798889, 0.13729858);fill-opacity:1;fill-rule:nonzero;stroke:none"
         transform="matrix(1.3333333,0,0,-1.3333333,0,1783.9371)" />
      <path
         id="path85"
         d="m 556.1614,512.9858 v 2.418 c -0.5825,-2.0877 -2.5112,-2.8959 -4.8149,-2.8959 -3.8041,0 -4.5527,3.2162 -4.5527,6.2084 v 11.4682 c 0,3.7477 0.9108,7.0118 4.7106,7.0118 2.198,0 3.9118,-0.9641 4.657,-2.1388 v 9.0992 h 6.162 v -31.1709 z m 0,17.5711 v 0 c 0,1.0713 -0.5825,1.6648 -1.4408,1.6062 -0.8552,0 -1.4462,-0.588 -1.4462,-1.6583 l 0.051,-11.2558 c 0,-1.0624 0.5936,-1.6495 1.3952,-1.6495 0.8583,0 1.4408,0.6367 1.4408,1.7138 z"
         style="fill:#1f4778 icc-color(ISO-Coated-v2-ECI, 1, 0.74508667, 0.29798889, 0.13729858);fill-opacity:1;fill-rule:nonzero;stroke:none"
         transform="matrix(1.3333333,0,0,-1.3333333,0,1783.9371)" />
      <path
         id="path86"
         d="m 565.2604,512.9524 h 6.1557 v 23.6236 h -6.1557 z"
         style="fill:#1f4778 icc-color(ISO-Coated-v2-ECI, 1, 0.74508667, 0.29798889, 0.13729858);fill-opacity:1;fill-rule:nonzero;stroke:none"
         transform="matrix(1.3333333,0,0,-1.3333333,0,1783.9371)" />
      <path
         id="path87"
         d="m 443.6609,526.4898 v -13.504 h -6.9628 v 13.504 l -6.1069,17.6669 h 7.3922 l 2.1948,-8.6731 2.2482,8.6731 h 7.3899 z"
         style="fill:#1f4778 icc-color(ISO-Coated-v2-ECI, 1, 0.74508667, 0.29798889, 0.13729858);fill-opacity:1;fill-rule:nonzero;stroke:none"
         transform="matrix(1.3333333,0,0,-1.3333333,0,1783.9371)" />
      <path
         id="path88"
         d="m 420.1733,519.2422 c -2.4194,-2.1339 -5.648,-2.755 -8.2704,-1.5826 -1.5726,0.7551 -2.7207,2.135 -3.0702,3.5558 2.2006,-2.1952 6.1756,-3.3041 9.8156,0.5323 0,0 3.414,3.1609 1.4791,9.114 -0.9621,2.9437 -4.5743,5.3937 -7.5731,5.6976 -4.4722,0.72 -8.6992,-0.8042 -11.6183,-4.8988 -3.4458,-5.3226 -3.8818,-11.255 -6.3794,-17.174 -0.4221,-0.9763 -1.3028,-1.3998 -2.1971,-1.3564 h -0.005 -0.002 c -0.8898,-0.0434 -1.7731,0.3801 -2.1952,1.3564 -2.4982,5.919 -2.9282,11.8514 -6.3765,17.174 -2.922,4.0946 -7.1467,5.6188 -11.6229,4.8988 -2.994,-0.3039 -6.607,-2.7539 -7.568,-5.6976 -1.938,-5.9531 1.4786,-9.114 1.4786,-9.114 3.6405,-3.8364 7.6139,-2.7275 9.8178,-0.5323 -0.3501,-1.4208 -1.5018,-2.8007 -3.075,-3.5558 -2.6252,-1.1724 -5.849,-0.5513 -8.2729,1.5826 -3.5728,3.5447 -4.108,8.0994 -2.6941,12.2907 1.7141,5.0953 6.8692,7.6496 10.967,7.9713 4.8498,0.4269 11.546,-2.5489 14.218,-7.6218 0.6216,-1.1727 1.929,-4.2004 1.929,-4.2004 l 3.3964,0.002 3.4016,-0.002 c 0,0 1.3051,3.0277 1.9321,4.2004 2.6719,5.0729 9.3643,8.0487 14.2143,7.6218 4.0986,-0.3217 9.252,-2.876 10.9698,-7.9713 1.4154,-4.1913 0.8754,-8.746 -2.6994,-12.2907 z m 8.0478,13.6649 v 0 c -3.9807,11.4571 -15.3941,12.0938 -16.5685,12.1193 -5.1001,0.0975 -10.7441,-1.6702 -15.0389,-5.8728 -1.7209,-1.546 -2.9574,-3.3426 -4.2542,-5.2895 l -0.005,-0.004 -0.002,0.004 c -1.2932,1.9469 -2.5288,3.7435 -4.2523,5.2895 -4.2939,4.2026 -9.9411,5.9703 -15.0367,5.8728 -1.1749,-0.0255 -12.5844,-0.6622 -16.5679,-12.1193 -1.423,-4.0949 -1.1007,-9.4192 1.0239,-13.3165 2.0993,-4.5077 7.1209,-8.1755 12.4186,-7.7928 3.8463,0.0978 8.045,2.5512 9.5924,6.4673 1.3008,3.5257 0.8989,7.2946 -2.0968,10.322 0.0768,-0.7749 0.1111,-1.8365 -0.6508,-2.8326 -1.2096,-1.671 -3.119,-2.0792 -5.0956,-1.3694 -1.7453,0.792 -2.4006,2.0548 -2.2243,3.7264 0.1247,1.4238 1.2631,2.5132 2.4463,3.0487 2.3199,1.0029 4.4586,0.4957 6.5466,-1.5004 3.4245,-3.8242 3.8259,-9.6268 5.4476,-14.0222 1.1514,-3.6178 2.9733,-6.7646 6.9698,-7.6705 0.4851,-0.1055 0.9811,-0.1599 1.4792,-0.1599 h 0.002 0.005 c 0.5023,0 0.9966,0.0544 1.4811,0.1599 3.9965,0.9059 5.8206,4.0527 6.9698,7.6705 1.624,4.3954 2.0253,10.198 5.4476,14.0222 2.09,1.9961 4.2268,2.5033 6.5427,1.5004 1.1868,-0.5355 2.3272,-1.6249 2.4505,-3.0487 0.1746,-1.6716 -0.4796,-2.9344 -2.2238,-3.7264 -1.9749,-0.7098 -3.8863,-0.3016 -5.0933,1.3694 -0.7611,0.9961 -0.7253,2.0577 -0.6539,2.8326 -2.9985,-3.0274 -3.3973,-6.7963 -2.0968,-10.322 1.5497,-3.9161 5.7461,-6.3695 9.5936,-6.4673 5.2965,-0.3827 10.3229,3.2851 12.4183,7.7928 2.126,3.8973 2.4477,9.2216 1.0258,13.3165 z m -35.8503,12.1193 v 0 -0.009 l 0.005,-0.003 c 0,0 -0.002,0.003 -0.005,0.0122"
         style="fill:#bab8b9 icc-color(ISO-Coated-v2-ECI, 0.27059937, 0.21958923, 0.20779419, 0);fill-opacity:1;fill-rule:nonzero;stroke:none"
         transform="matrix(1.3333333,0,0,-1.3333333,0,1783.9371)" />
    </g>
  </g>
</svg>
