<?xml version="1.0" encoding="UTF-8" standalone="no"?>
<!-- Created with Inkscape (http://www.inkscape.org/) -->

<svg
   width="75.882706mm"
   height="20.048008mm"
   viewBox="0 0 75.882706 20.048008"
   version="1.1"
   id="svg1"
   inkscape:version="1.3 (0e150ed6c4, 2023-07-21)"
   sodipodi:docname="banka-is.svg"
   xmlns:inkscape="http://www.inkscape.org/namespaces/inkscape"
   xmlns:sodipodi="http://sodipodi.sourceforge.net/DTD/sodipodi-0.dtd"
   xmlns="http://www.w3.org/2000/svg"
   xmlns:svg="http://www.w3.org/2000/svg">
  <sodipodi:namedview
     id="namedview1"
     pagecolor="#505050"
     bordercolor="#eeeeee"
     borderopacity="1"
     inkscape:showpageshadow="0"
     inkscape:pageopacity="0"
     inkscape:pagecheckerboard="0"
     inkscape:deskcolor="#d1d1d1"
     inkscape:document-units="mm"
     inkscape:zoom="0.74564394"
     inkscape:cx="142.82957"
     inkscape:cy="38.221996"
     inkscape:window-width="1920"
     inkscape:window-height="1051"
     inkscape:window-x="-9"
     inkscape:window-y="-9"
     inkscape:window-maximized="1"
     inkscape:current-layer="layer1" />
  <defs
     id="defs1" />
  <g
     inkscape:label="Layer 1"
     inkscape:groupmode="layer"
     id="layer1"
     transform="translate(-66.939577,-138.37708)">
    <g
       id="g7"
       transform="matrix(0.26458333,0,0,0.26458333,-58.653717,-32.506057)">
      <path
         id="path40"
         d="m 356.0125,831.3134 v -2.8723 h 4.4722 v -10.8888 h 3.3219 v 10.8998 h 4.5891 v 2.8613 z"
         style="fill:#1e448f icc-color(ISO-Coated-v2-ECI, 1, 0.76469421, 0.02749634, 0.14118958);fill-opacity:1;fill-rule:nonzero;stroke:none"
         transform="matrix(1.3333333,0,0,-1.3333333,0,1783.9371)" />
      <path
         id="path41"
         d="m 376.0245,833.9009 c 0,-0.974 -0.79,-1.764 -1.7645,-1.764 -0.974,0 -1.764,0.79 -1.764,1.764 0,0.9745 0.79,1.7645 1.764,1.7645 0.9745,0 1.7645,-0.79 1.7645,-1.7645"
         style="fill:#1e448f icc-color(ISO-Coated-v2-ECI, 1, 0.76469421, 0.02749634, 0.14118958);fill-opacity:1;fill-rule:nonzero;stroke:none"
         transform="matrix(1.3333333,0,0,-1.3333333,0,1783.9371)" />
      <path
         id="path42"
         d="m 380.9035,833.9009 c 0,-0.974 -0.79,-1.764 -1.7643,-1.764 -0.9742,0 -1.7642,0.79 -1.7642,1.764 0,0.9745 0.79,1.7645 1.7642,1.7645 0.9743,0 1.7643,-0.79 1.7643,-1.7645"
         style="fill:#1e448f icc-color(ISO-Coated-v2-ECI, 1, 0.76469421, 0.02749634, 0.14118958);fill-opacity:1;fill-rule:nonzero;stroke:none"
         transform="matrix(1.3333333,0,0,-1.3333333,0,1783.9371)" />
      <path
         id="path43"
         style="fill:#1e448f icc-color(ISO-Coated-v2-ECI, 1, 0.76469421, 0.02749634, 0.14118958);fill-opacity:1;fill-rule:nonzero;stroke:none"
         d="m 385.83253,831.3103 v -10e-4 -13.74755 h 3.10107 v 4.92041 h 3.2168 l 2.85498,-4.92334 h 3.6167 l -3.0498,5.2998 c 0,0 2.98974,0.72846 2.98974,3.97266 0,3.24429 -2.70039,4.47656 -4.80029,4.47656 -2.0999,0 -7.9292,0.003 -7.9292,0.003 z m 3.10693,-2.69092 h 4.5 c 0,0 1.88819,-0.0119 1.88819,-1.80029 0,-1.789 -1.81055,-1.85596 -1.81055,-1.85596 h -4.57764 z"
         transform="matrix(1.3333333,0,0,-1.3333333,0,1783.9371)" />
      <path
         id="path44"
         d="m 401.0031,831.3126 v -13.7659 h 3.155 v 4.1133 l 2.5047,2.505 4.2968,-6.6183 h 3.7675 l -5.7631,9.021 4.5819,4.7452 h -3.8285 l -5.5593,-5.9055 v 5.9055 z"
         style="fill:#1e448f icc-color(ISO-Coated-v2-ECI, 1, 0.76469421, 0.02749634, 0.14118958);fill-opacity:1;fill-rule:nonzero;stroke:none"
         transform="matrix(1.3333333,0,0,-1.3333333,0,1783.9371)" />
      <path
         id="path45"
         d="m 416.4395,831.2726 h 3.2366 v -13.7194 h -3.2366 z"
         style="fill:#1e448f icc-color(ISO-Coated-v2-ECI, 1, 0.76469421, 0.02749634, 0.14118958);fill-opacity:1;fill-rule:nonzero;stroke:none"
         transform="matrix(1.3333333,0,0,-1.3333333,0,1783.9371)" />
      <path
         id="path46"
         d="m 419.8343,833.8697 c 0,-0.9743 -0.79,-1.764 -1.7646,-1.764 -0.974,0 -1.764,0.7897 -1.764,1.764 0,0.9746 0.79,1.7646 1.764,1.7646 0.9746,0 1.7646,-0.79 1.7646,-1.7646"
         style="fill:#1e448f icc-color(ISO-Coated-v2-ECI, 1, 0.76469421, 0.02749634, 0.14118958);fill-opacity:1;fill-rule:nonzero;stroke:none"
         transform="matrix(1.3333333,0,0,-1.3333333,0,1783.9371)" />
      <path
         id="path47"
         d="m 459.5695,845.7194 v -0.7739 c 0,0 2.0636,-0.0938 2.0636,-1.9465 0,-1.8528 0,-12.8518 0,-12.8518 l 5.2767,-2.9783 v 15.9009 c 0,0 -0.0941,1.876 2.0168,1.876 v 0.7739 z"
         style="fill:#1e448f icc-color(ISO-Coated-v2-ECI, 1, 0.76469421, 0.02749634, 0.14118958);fill-opacity:1;fill-rule:nonzero;stroke:none"
         transform="matrix(1.3333333,0,0,-1.3333333,0,1783.9371)" />
      <path
         id="path48"
         d="m 467.5226,841.1343 v -1.243 c 0,0 4.7875,-1.9794 5.0945,-7.6572 h 0.8132 v 8.8849 h -0.7211 c 0,0 -0.4757,-1.2124 -1.7493,-1.2124 -1.2736,0 -3.4373,1.2277 -3.4373,1.2277"
         style="fill:#1e448f icc-color(ISO-Coated-v2-ECI, 1, 0.76469421, 0.02749634, 0.14118958);fill-opacity:1;fill-rule:nonzero;stroke:none"
         transform="matrix(1.3333333,0,0,-1.3333333,0,1783.9371)" />
      <path
         id="path49"
         d="m 461.0154,841.6185 v -1.0888 c 0,0 -4.7775,-0.7333 -4.7775,-5.0221 0,0 -0.3778,-3.3999 5.3997,-6.3332 l 7.1558,-3.9331 c 0,0 5.1551,-2.3335 6.7329,-6.489 1.5777,-4.1554 0.5556,-9.7107 -4.6888,-12.3551 -2.1334,-1.0888 -4.0445,-1.1997 -4.7333,-1.2887 0,0 1.7334,-0.8671 1.7334,-2.978 0,-2.1107 -2.3553,-5.3776 -3.3775,-5.3998 H 463.86 c 0,0 -0.089,0.1109 0.222,0.4666 0.3115,0.3558 1.7557,2.0892 1.4003,3.0889 0,0 -0.8422,-0.3739 -1.6759,-0.3739 -0.8342,0 -2.4446,0.7192 -2.4446,2.6173 0,1.8981 1.438,2.6747 1.9556,2.6747 0,0 -0.8053,0.0862 -3.365,1.0063 -2.5596,0.9205 -4.5442,1.812 -5.8385,-0.4025 h -0.6902 v 9.4334 h 0.8342 c 0,0 1.8978,-8.9733 11.1872,-8.9733 6.4423,0.0283 7.219,5.349 7.219,6.3269 0,0.9783 6e-4,3.9688 -4.8027,6.7011 -4.803,2.7321 -9.4045,5.2342 -9.4045,5.2342 0,0 -5.3782,2.5019 -5.3782,8.4263 0,5.9247 5.4337,8.6618 7.9367,8.6618"
         style="fill:#1e448f icc-color(ISO-Coated-v2-ECI, 1, 0.76469421, 0.02749634, 0.14118958);fill-opacity:1;fill-rule:nonzero;stroke:none"
         transform="matrix(1.3333333,0,0,-1.3333333,0,1783.9371)" />
      <path
         id="path50"
         d="m 461.6155,821.9523 5.2665,-2.9775 v -6.0891 c 0,0 -0.0669,-1.844 2.0444,-1.844 v -0.8226 h -9.3773 v 0.8892 c 0,0 2.0664,-0.0445 2.0664,1.8888 0,1.9332 0,8.9552 0,8.9552"
         style="fill:#1e448f icc-color(ISO-Coated-v2-ECI, 1, 0.76469421, 0.02749634, 0.14118958);fill-opacity:1;fill-rule:nonzero;stroke:none"
         transform="matrix(1.3333333,0,0,-1.3333333,0,1783.9371)" />
      <path
         id="path51"
         d="m 420.9398,831.3063 h 3.7726 l 3.841,-5.7843 3.9551,5.7614 h 3.6579 l -6.0815,-8.2537 v -5.4867 h -3.1323 v 5.4873 z"
         style="fill:#1e448f icc-color(ISO-Coated-v2-ECI, 1, 0.76469421, 0.02749634, 0.14118958);fill-opacity:1;fill-rule:nonzero;stroke:none"
         transform="matrix(1.3333333,0,0,-1.3333333,0,1783.9371)" />
      <path
         id="path52"
         d="m 437.218,831.3293 h 11.0197 V 828.54 h -7.842 v -2.3774 h 4.4812 v -2.6294 h -4.4812 v -3.2692 h 8.162 v -2.7204 h -11.3626 z"
         style="fill:#1e448f icc-color(ISO-Coated-v2-ECI, 1, 0.76469421, 0.02749634, 0.14118958);fill-opacity:1;fill-rule:nonzero;stroke:none"
         transform="matrix(1.3333333,0,0,-1.3333333,0,1783.9371)" />
      <path
         id="path53"
         d="m 467.1601,850.6412 c 0,1.6117 -1.3065,2.9185 -2.9186,2.9185 -1.6117,0 -2.9185,-1.3068 -2.9185,-2.9185 0,-1.6118 1.3068,-2.9186 2.9185,-2.9186 1.6121,0 2.9186,1.3068 2.9186,2.9186"
         style="fill:#1e448f icc-color(ISO-Coated-v2-ECI, 1, 0.76469421, 0.02749634, 0.14118958);fill-opacity:1;fill-rule:nonzero;stroke:none"
         transform="matrix(1.3333333,0,0,-1.3333333,0,1783.9371)" />
      <path
         id="path54"
         style="fill:#1e448f icc-color(ISO-Coated-v2-ECI, 1, 0.76469421, 0.02749634, 0.14118958);fill-opacity:1;fill-rule:nonzero;stroke:none"
         d="m 480.44533,831.29419 v -13.74024 h 7.68017 c 0,0 5.1416,0.0159 5.1416,4.42383 0,2.5047 -2.3038,2.98828 -2.354,2.98828 -0.0499,0 1.76953,0.58418 1.76953,2.85498 0,2.2706 -2.15262,3.45703 -4.85742,3.45703 -2.7049,0 -7.37988,0.0161 -7.37988,0.0161 z m 3.08789,-2.58692 h 4.604 c 1.5001,0 1.37402,-1.2539 1.37402,-1.2539 0,-1.3022 -1.28613,-1.30225 -1.28613,-1.30225 h -4.69189 z m 0.0176,-4.97607 h 4.59082 c 0,0 1.81202,-0.13393 1.81202,-1.81201 0,-1.6781 -1.74463,-1.74463 -1.74463,-1.74463 h -4.65821 z"
         transform="matrix(1.3333333,0,0,-1.3333333,0,1783.9371)" />
      <path
         id="path57"
         style="fill:#1e448f icc-color(ISO-Coated-v2-ECI, 1, 0.76469421, 0.02749634, 0.14118958);fill-opacity:1;fill-rule:nonzero;stroke:none"
         d="m 499.73585,831.28979 -6.03662,-13.70801 h 3.37647 l 1.26855,3.00733 h 5.7085 l 1.28906,-3.04834 h 3.53906 l -5.99414,13.74902 z m 1.49268,-3.35596 1.86182,-4.68457 h -3.72364 z"
         transform="matrix(1.3333333,0,0,-1.3333333,0,1783.9371)" />
      <path
         id="path59"
         d="m 510.1699,831.3245 v -13.8164 h 3.1167 v 8.8665 l 6.8165,-8.8497 h 2.8666 v 13.7661 h -3.2167 v -8.7497 l -6.6413,8.7789 -2.9418,0.004 z"
         style="fill:#1e448f icc-color(ISO-Coated-v2-ECI, 1, 0.76469421, 0.02749634, 0.14118958);fill-opacity:1;fill-rule:nonzero;stroke:none"
         transform="matrix(1.3333333,0,0,-1.3333333,0,1783.9371)" />
      <path
         id="path60"
         style="fill:#1e448f icc-color(ISO-Coated-v2-ECI, 1, 0.76469421, 0.02749634, 0.14118958);fill-opacity:1;fill-rule:nonzero;stroke:none"
         d="m 525.85841,831.31469 v -13.76074 h 3.19922 v 4.01074 l 2.50488,2.55616 4.28174,-6.5669 h 5.77295 l 1.25244,3.0293 h 5.77149 l 1.21875,-3.0293 h 3.52002 l -5.99121,13.76074 h -3.06446 l -5.50048,-12.45703 -4.99366,7.64942 4.75635,4.79004 h -3.89209 l -5.63672,-6.00879 v 6.02636 z m 19.93653,-3.48925 1.86181,-4.68604 h -3.72363 z"
         transform="matrix(1.3333333,0,0,-1.3333333,0,1783.9371)" />
      <path
         id="path62"
         d="m 562.8665,827.3455 2.325,1.9933 c 0,0 -2.2419,2.1869 -5.6472,2.1869 -3.405,0 -5.7583,-1.7163 -5.7583,-4.1247 0,-2.4086 1.8828,-3.4049 5.0111,-4.0138 3.128,-0.6095 3.7534,-1.2169 3.4878,-2.2703 -0.2657,-1.0533 -2.4469,-1.1611 -3.1003,-1.1072 -0.6534,0.0539 -2.1317,0.0828 -3.6266,1.6055 l -2.3256,-1.8824 c 0,0 2.2037,-2.4361 6.0627,-2.4361 3.8591,0 6.2008,1.4947 6.2564,4.3463 0.0556,2.8514 -2.2422,3.5989 -4.7339,4.2075 l -2.5466,0.5261 c 0,0 -1.1353,0.2769 -1.1353,1.1905 0,0.9137 0.9139,1.2456 2.4086,1.2456 1.4947,0 3.2944,-1.1072 3.3222,-1.4672"
         style="fill:#1e448f icc-color(ISO-Coated-v2-ECI, 1, 0.76469421, 0.02749634, 0.14118958);fill-opacity:1;fill-rule:nonzero;stroke:none"
         transform="matrix(1.3333333,0,0,-1.3333333,0,1783.9371)" />
      <path
         id="path63"
         d="m 567.9564,831.2882 v -13.7359 h 3.1567 v 13.7387 l -3.1567,-0.003 z"
         style="fill:#1e448f icc-color(ISO-Coated-v2-ECI, 1, 0.76469421, 0.02749634, 0.14118958);fill-opacity:1;fill-rule:nonzero;stroke:none"
         transform="matrix(1.3333333,0,0,-1.3333333,0,1783.9371)" />
      <path
         id="path64"
         d="m 370.2399,831.3077 h 3.2111 v -8.1442 c 0,0 0.089,-3.1666 3.1665,-3.1666 3.0776,0 3.2777,3.1777 3.2777,3.1777 v 8.1221 h 3.1777 v -7.7777 c 0,0 0.2443,-6.1608 -6.2997,-6.1608 -6.5444,0 -6.5333,5.4499 -6.5333,6.1497 0,0.7002 0,7.7998 0,7.7998"
         style="fill:#1e448f icc-color(ISO-Coated-v2-ECI, 1, 0.76469421, 0.02749634, 0.14118958);fill-opacity:1;fill-rule:nonzero;stroke:none"
         transform="matrix(1.3333333,0,0,-1.3333333,0,1783.9371)" />
    </g>
  </g>
</svg>
