<?xml version="1.0" encoding="UTF-8" standalone="no"?>
<!-- Created with Inkscape (http://www.inkscape.org/) -->

<svg
   width="286.1312"
   height="95.112411"
   viewBox="0 0 75.705546 25.165159"
   version="1.1"
   id="svg1"
   inkscape:version="1.3 (0e150ed6c4, 2023-07-21)"
   sodipodi:docname="banka-enpara.svg"
   xmlns:inkscape="http://www.inkscape.org/namespaces/inkscape"
   xmlns:sodipodi="http://sodipodi.sourceforge.net/DTD/sodipodi-0.dtd"
   xmlns="http://www.w3.org/2000/svg"
   xmlns:svg="http://www.w3.org/2000/svg">
  <sodipodi:namedview
     id="namedview1"
     pagecolor="#505050"
     bordercolor="#eeeeee"
     borderopacity="1"
     inkscape:showpageshadow="0"
     inkscape:pageopacity="0"
     inkscape:pagecheckerboard="0"
     inkscape:deskcolor="#d1d1d1"
     inkscape:document-units="mm"
     inkscape:zoom="1.4912879"
     inkscape:cx="101.59004"
     inkscape:cy="117.01295"
     inkscape:window-width="1920"
     inkscape:window-height="1051"
     inkscape:window-x="-9"
     inkscape:window-y="-9"
     inkscape:window-maximized="1"
     inkscape:current-layer="layer1" />
  <defs
     id="defs1" />
  <g
     inkscape:label="Layer 1"
     inkscape:groupmode="layer"
     id="layer1"
     transform="translate(-67.054503,-103.76982)">
    <g
       id="g3"
       transform="matrix(0.26458333,0,0,0.26458333,-58.504898,68.439346)">
      <path
         id="path127"
         d="m 363.6746,1230.5426 c 7.5016,5.7433 17.3809,8.3104 26.7182,6.8403 0.2075,-0.086 0.4175,-0.1712 0.625,-0.2619 -7.3851,-1.3173 -14.1811,-5.2846 -19.292,-10.7297 -0.5029,-0.5318 -0.8997,-1.1514 -1.2937,-1.7634 -0.4252,-0.3915 -0.8558,-0.7779 -1.3017,-1.1461 -6.5682,-5.2197 -11.1266,-12.8897 -12.6434,-21.1354 -1.6517,8.8889 0.3527,18.3819 5.3961,25.8832 0.5598,0.7959 1.0448,1.6724 1.7915,2.313"
         style="fill:#f78f14 icc-color(ISO-Coated-v2-ECI, 0, 0.46269226, 0.98039246, 0);fill-opacity:1;fill-rule:nonzero;stroke:none"
         transform="matrix(1.3333333,0,0,-1.3333333,0,1783.9371)" />
      <path
         id="path128"
         d="m 391.2744,1237.2922 c 1.0476,0.013 2.0744,0.2282 3.1167,0.3215 8.0356,0.8478 16.3332,-1.1668 23.0853,-5.6087 0.9646,-0.6715 2.0381,-1.2498 2.759,-2.2039 3.9569,-5.2872 6.389,-11.6972 6.9389,-18.2781 0.1607,-3.0648 0.1684,-6.1684 -0.4306,-9.1919 -1.5868,8.2327 -6.065,15.9985 -12.7366,21.1351 -0.3008,0.2957 -0.5964,0.5913 -0.8946,0.8895 -5.3105,6.8378 -13.2968,11.5362 -21.8381,12.9365"
         style="fill:#9b3da4 icc-color(ISO-Coated-v2-ECI, 0.41958618, 0.7960968, 0, 0);fill-opacity:1;fill-rule:nonzero;stroke:none"
         transform="matrix(1.3333333,0,0,-1.3333333,0,1783.9371)" />
      <path
         id="path129"
         d="m 436.5581,1213.2629 c 1.6078,1.0372 3.3321,1.9939 5.2639,2.2351 1.8409,0.1817 3.8713,0.2387 5.4737,-0.8427 1.5687,-0.9904 2.16,-2.9455 2.1419,-4.714 0.005,-3.3605 0.005,-6.721 0.003,-10.0814 0.0155,-1.7686 -0.5653,-3.7287 -2.1289,-4.7296 -1.4417,-0.9828 -3.2592,-1.0216 -4.9396,-0.9051 -2.0951,0.1428 -4.0606,1.0502 -5.7592,2.2507 -0.0283,-3.2049 0.005,-6.4123 -0.0127,-9.6171 -0.0312,-0.3087 0.0439,-0.8533 -0.4252,-0.8584 -1.1515,-0.127 -2.3182,-0.047 -3.4696,0.034 -0.0958,9.2673 -0.003,18.5371 -0.0493,27.8019 0.0518,0.4666 -0.1426,1.076 0.3242,1.3819 1.0554,0.1247 2.147,0.1375 3.1998,-0.023 0.4172,-0.5445 0.2775,-1.2914 0.3784,-1.9318 z m 4.8127,-1.3042 v 0 c -1.5818,-0.197 -3.0753,-0.8867 -4.3458,-1.8306 -0.6276,-0.3552 -0.3813,-1.1358 -0.4332,-1.7269 0.0882,-2.8289 -0.1244,-5.684 0.1012,-8.4971 1.8956,-1.5664 4.4782,-2.4973 6.9415,-1.9916 1.0942,0.2386 1.859,1.3172 1.7995,2.4244 0.0155,2.9509 -0.003,5.9018 0.008,8.8524 0.0334,0.8118 -0.1894,1.6908 -0.8583,2.2067 -0.8998,0.7158 -2.1342,0.6483 -3.2128,0.5627"
         style="fill:#9b3da4 icc-color(ISO-Coated-v2-ECI, 0.41958618, 0.7960968, 0, 0);fill-opacity:1;fill-rule:nonzero;stroke:none"
         transform="matrix(1.3333333,0,0,-1.3333333,0,1783.9371)" />
      <path
         id="path130"
         d="m 452.6138,1212.0625 c 0.7909,2.2818 3.3296,3.2178 5.5335,3.4511 2.6241,0.1506 5.4737,0.2594 7.8075,-1.1511 1.5143,-0.8921 2.2402,-2.6994 2.1912,-4.4031 -0.0389,-5.0198 0.0621,-10.0425 -0.0493,-15.0573 -0.065,-0.083 -0.1919,-0.2515 -0.2569,-0.3345 -1.0085,-0.1296 -2.0457,-0.1321 -3.0492,-0.01 -0.5808,0.407 -0.3526,1.3042 -0.5187,1.9239 -1.8953,-1.4261 -4.2134,-2.3933 -6.6172,-2.3001 -1.942,-0.083 -4.0425,0.6588 -5.129,2.3468 -0.9879,1.4185 -0.739,3.2281 -0.7441,4.8566 -0.0312,1.5169 0.7339,3.0028 1.9811,3.8608 1.2705,0.9128 2.8885,1.0633 4.4053,1.1047 2.0251,0.01 4.0505,0 6.073,-0.01 -0.0207,1.2861 0.0881,2.5801 -0.0544,3.8636 -0.1636,1.2886 -1.4755,1.9862 -2.6527,2.1081 -1.5378,0.1865 -3.236,0.1996 -4.6077,-0.6094 -1.0503,-0.6509 -0.8946,-2.0018 -1.0554,-3.0546 -1.0839,-0.241 -2.3312,-0.2929 -3.384,0 -0.4665,1.0216 -0.1919,2.3363 0.127,3.4047 z m 3.4022,-9.8173 v 0 c -0.4927,-0.8866 -0.3657,-1.9601 -0.3113,-2.935 0.0417,-0.892 0.8116,-1.5766 1.6623,-1.7141 2.4553,-0.5496 4.9317,0.5315 6.874,1.9812 0.0127,1.2186 0.0127,2.4375 0,3.6586 -1.9344,-0.036 -3.8662,0.029 -5.798,-0.013 -0.8739,-0.031 -1.9318,-0.1528 -2.427,-0.9777"
         style="fill:#9b3da4 icc-color(ISO-Coated-v2-ECI, 0.41958618, 0.7960968, 0, 0);fill-opacity:1;fill-rule:nonzero;stroke:none"
         transform="matrix(1.3333333,0,0,-1.3333333,0,1783.9371)" />
      <path
         id="path131"
         d="m 475.2428,1212.7884 c 1.9579,1.5897 4.3356,3.0804 6.9701,2.7641 0.4589,-0.028 0.4303,-0.5911 0.464,-0.923 -0.005,-0.7651 0.1143,-1.5792 -0.1556,-2.3102 -0.3603,-0.2673 -0.8427,-0.2362 -1.26,-0.3269 -2.1781,-0.2361 -4.2213,-1.2135 -5.9147,-2.5775 0.002,-3.7987 0,-7.5974 0,-11.3961 -0.0131,-1.1617 0.1088,-2.344 -0.1971,-3.4798 -1.1797,-0.023 -2.3777,-0.1477 -3.5472,0.042 -0.3033,0.2903 -0.2722,0.7234 -0.2877,1.1019 0.005,6.1429 0.005,12.283 -0.003,18.4232 0.0207,0.3787 -0.0286,0.8195 0.2982,1.0916 1.0553,0.1556 2.147,0.1505 3.2049,0.016 0.6171,-0.6171 0.2514,-1.6438 0.4277,-2.4245"
         style="fill:#9b3da4 icc-color(ISO-Coated-v2-ECI, 0.41958618, 0.7960968, 0, 0);fill-opacity:1;fill-rule:nonzero;stroke:none"
         transform="matrix(1.3333333,0,0,-1.3333333,0,1783.9371)" />
      <path
         id="path132"
         d="m 484.23,1212.6716 c 1.0321,1.8984 3.2959,2.6294 5.3159,2.8446 2.5591,0.1454 5.3129,0.2438 7.6155,-1.0709 1.4987,-0.8348 2.3,-2.5541 2.3233,-4.229 0.0283,-4.7557 -0.008,-9.5137 0.0181,-14.2694 -0.0388,-0.464 0.0805,-1.0241 -0.3087,-1.3717 -1.0604,-0.1425 -2.1546,-0.1476 -3.2099,0.016 -0.3345,0.5681 -0.2801,1.2552 -0.3526,1.8879 -2.1056,-1.5687 -4.7141,-2.5361 -7.3667,-2.2717 -2.505,0.024 -5.0797,1.9528 -5.1265,4.5896 -0.0153,1.7918 -0.3058,3.8066 0.8402,5.3416 1.0086,1.4598 2.816,2.0874 4.5301,2.1679 2.357,0.1165 4.7216,0.018 7.0837,0.049 -0.0697,1.4987 0.2285,3.0597 -0.2616,4.5068 -0.7469,1.4054 -2.5413,1.5505 -3.9518,1.5661 -1.3093,-0.054 -2.9353,-0.1479 -3.7287,-1.3561 -0.5524,-0.739 -0.0207,-1.828 -0.6378,-2.497 -1.0528,-0.1219 -2.1472,-0.161 -3.1921,0.036 -0.4458,1.2937 -0.2049,2.8392 0.4096,4.0603 z m 3.1533,-10.3847 v 0 c -0.5264,-0.8972 -0.3943,-2.0095 -0.3345,-3.0053 0.044,-0.8997 0.8555,-1.561 1.7008,-1.6985 2.4452,-0.5159 4.8903,0.5576 6.8275,1.9837 0.0284,1.2109 0.0233,2.4244 0.0182,3.6354 -1.8462,0.057 -3.6924,0.013 -5.5361,0.026 -0.9385,-0.029 -2.1056,-0.065 -2.6759,-0.9414"
         style="fill:#9b3da4 icc-color(ISO-Coated-v2-ECI, 0.41958618, 0.7960968, 0, 0);fill-opacity:1;fill-rule:nonzero;stroke:none"
         transform="matrix(1.3333333,0,0,-1.3333333,0,1783.9371)" />
      <path
         id="path133"
         d="m 371.5756,1212.5265 c 2.1988,1.4703 4.9498,1.7062 7.5248,1.696 2.4398,-0.031 5.059,-0.3374 7.0659,-1.8542 1.5324,-1.1642 2.2065,-3.1399 2.1753,-5.0148 -0.0156,-1.9783 0.0494,-3.9594 -0.0309,-5.9377 0.0465,-0.6562 -0.6689,-0.8013 -1.18,-0.7625 -4.0085,-0.01 -8.0175,0.01 -12.026,-0.01 0.0258,-1.3924 -0.1038,-2.7953 0.0646,-4.18 0.1661,-1.2447 1.478,-1.8487 2.6008,-1.9213 1.3666,-0.068 2.9404,-0.1894 4.0711,0.7311 0.7985,0.6301 0.6327,1.7243 0.796,2.6138 0.0468,0.4019 0.4669,0.604 0.8322,0.625 1.1333,0.106 2.2768,0.062 3.4124,0.044 0.5238,0 1.2189,-0.1245 1.3277,-0.7467 0.2489,-2.2275 -0.2749,-4.7869 -2.1651,-6.1974 -2.2844,-1.6724 -5.2585,-1.8618 -7.9917,-1.7969 -2.2456,0.041 -4.5998,0.415 -6.5007,1.6855 -1.6282,1.0761 -2.5098,3.0416 -2.4942,4.9655 -0.0156,3.7131 -0.0156,7.429 0,11.1421 -0.0207,1.9188 0.8997,3.848 2.5178,4.9136 z m 4.1538,-3.8713 v 0 c -0.9439,-1.019 -0.5496,-2.5308 -0.6533,-3.7831 2.497,-0.06 4.9991,-0.062 7.4962,0 -0.0595,1.0579 0.1298,2.1651 -0.241,3.1816 -0.4901,1.1356 -1.8722,1.4054 -2.9769,1.4805 -1.2368,0.034 -2.6578,0 -3.625,-0.879"
         style="fill:#9b3da4 icc-color(ISO-Coated-v2-ECI, 0.41958618, 0.7960968, 0, 0);fill-opacity:1;fill-rule:nonzero;stroke:none"
         transform="matrix(1.3333333,0,0,-1.3333333,0,1783.9371)" />
      <path
         id="path134"
         d="m 393.52,1213.8491 c 1.146,0.1165 2.3051,0.031 3.4563,0.057 0.5031,-0.026 1.1434,0.049 1.4935,-0.3994 0.2699,-0.5652 0.1973,-1.2291 0.2957,-1.8357 1.9993,1.4207 4.3251,2.4554 6.8091,2.5279 2.1237,0.1608 4.4444,-0.2772 6.0004,-1.8331 1.0992,-1.1019 1.7033,-2.6578 1.688,-4.2084 0.0153,-5.5411 0.005,-11.0823 0.008,-16.6237 0.0258,-0.5236 -0.0649,-1.2317 -0.7183,-1.2989 -1.47,-0.088 -2.948,-0.036 -4.4183,-0.031 -0.6222,-0.073 -1.1696,0.4614 -1.1021,1.0839 -0.0465,5.0148 -0.003,10.0347 -0.0182,15.0494 -0.0156,0.6744 -0.0649,1.4417 -0.5833,1.9398 -0.5885,0.5264 -1.4392,0.5754 -2.1887,0.5573 -1.9576,-0.083 -3.7545,-1.0191 -5.3206,-2.1314 -0.005,-4.9705 -0.005,-9.9414 0.003,-14.9148 -0.0233,-0.547 0.0467,-1.3768 -0.6404,-1.5454 -1.2915,-0.1168 -2.5906,-0.016 -3.8843,-0.057 -0.5601,0.026 -1.3433,-0.088 -1.626,0.5366 -0.119,0.6069 -0.0674,1.2317 -0.0751,1.8462 0.0182,6.747 -0.0105,13.4992 0.0131,20.2462 -0.0961,0.5289 0.2902,0.9774 0.809,1.0346"
         style="fill:#9b3da4 icc-color(ISO-Coated-v2-ECI, 0.41958618, 0.7960968, 0, 0);fill-opacity:1;fill-rule:nonzero;stroke:none"
         transform="matrix(1.3333333,0,0,-1.3333333,0,1783.9371)" />
      <path
         id="path135"
         d="m 390.3928,1237.3829 c 0.2202,-0.024 0.661,-0.067 0.8816,-0.091 8.5413,-1.4003 16.5276,-6.0987 21.8381,-12.9365 -2.0512,1.3173 -4.0762,2.6992 -6.3063,3.708 -9.6043,4.5817 -21.2805,4.5145 -30.8225,-0.2023 -1.9474,-0.9049 -3.7134,-2.1365 -5.5516,-3.2335 0.394,0.612 0.7908,1.2316 1.2937,1.7634 5.1109,5.4451 11.9069,9.4124 19.292,10.7297 -0.2075,0.091 -0.4175,0.1763 -0.625,0.2619"
         style="fill:#fbc060 icc-color(ISO-Coated-v2-ECI, 0, 0.23919678, 0.59999084, 0);fill-opacity:1;fill-rule:nonzero;stroke:none"
         transform="matrix(1.3333333,0,0,-1.3333333,0,1783.9371)" />
      <path
         id="path136"
         d="m 436.6879,1232.1763 c 0.6353,0 1.2705,-0.01 1.9083,-0.01 -0.013,-0.9306 -0.013,-1.8615 0.0131,-2.7924 0.9929,0.9127 1.8876,1.9238 2.899,2.8159 0.4226,-0.4487 0.8529,-0.887 1.2886,-1.3224 -0.8946,-0.9983 -1.8955,-1.8904 -2.7953,-2.8808 0.9335,-0.021 1.8669,-0.021 2.8004,-0.01 0,-0.6327 0,-1.2654 0.005,-1.8981 -0.9309,0 -1.8618,0 -2.7902,-0.018 0.8921,-1.0035 1.8876,-1.9058 2.816,-2.878 -0.472,-0.4281 -0.8584,-0.9959 -1.4494,-1.2708 -0.9879,0.8195 -1.7529,1.8748 -2.7876,2.6424 -0.0156,-0.9102 -0.0102,-1.8204 -0.0102,-2.7331 -0.6301,0 -1.2552,0 -1.8825,0 -0.0156,0.9516 -0.0156,1.9057 -0.008,2.8576 -1.0111,-0.879 -1.8539,-1.9318 -2.8911,-2.78 -0.4926,0.3813 -0.9076,0.8482 -1.3405,1.2941 0.9179,0.9541 1.9316,1.8204 2.7536,2.8678 -0.9258,0.018 -1.8487,0.018 -2.7745,0.024 0.003,0.6273 0.003,1.2574 0,1.8876 0.9439,-0.01 1.8878,-0.01 2.8289,0.021 -0.9153,0.9828 -1.9289,1.8669 -2.8054,2.8834 0.451,0.4408 0.8997,0.8841 1.3481,1.3274 0.957,-0.928 1.8618,-1.9108 2.8627,-2.7949 0.0131,0.9204 0.0131,1.8434 0.0105,2.7641"
         style="fill:#828588 icc-color(ISO-Coated-v2-ECI, 0.42349243, 0.32548523, 0.31369019, 0.15689087);fill-opacity:1;fill-rule:nonzero;stroke:none"
         transform="matrix(1.3333333,0,0,-1.3333333,0,1783.9371)" />
      <path
         id="path137"
         d="m 444.8636,1230.8253 c 2.3258,0.01 4.6491,-0.01 6.9724,0.01 -0.008,-0.4717 -0.013,-0.9462 -0.0181,-1.4182 -1.6464,0.01 -3.2956,0.07 -4.9397,-0.034 0.0156,-0.5576 0.0235,-1.1124 0.0442,-1.6699 0.9621,0 1.9239,0.01 2.8885,0.013 0.003,-0.4876 0.008,-0.9751 0.0156,-1.4624 -0.9802,-0.031 -1.9601,-0.036 -2.9404,-0.044 0.0102,-1.0035 0.0182,-2.0095 0.0128,-3.0155 -0.6741,0.01 -1.3482,0.01 -2.0225,0 -0.0233,2.5385 -0.003,5.0797 -0.0128,7.6182"
         style="fill:#828588 icc-color(ISO-Coated-v2-ECI, 0.42349243, 0.32548523, 0.31369019, 0.15689087);fill-opacity:1;fill-rule:nonzero;stroke:none"
         transform="matrix(1.3333333,0,0,-1.3333333,0,1783.9371)" />
      <path
         id="path138"
         d="m 470.8814,1228.6471 c 0.9853,0.6353 2.2249,0.402 3.3242,0.2826 -0.0258,-0.4045 -0.0465,-0.809 -0.0675,-1.2135 -0.7698,0.1296 -1.7061,0.5057 -2.3595,-0.1219 -0.07,-0.8192 1.1123,-0.7546 1.6571,-1.0786 1.3093,-0.2982 1.4726,-2.2223 0.4536,-2.9457 -1.0735,-0.7365 -2.4684,-0.529 -3.6613,-0.267 0.0338,0.415 0.07,0.8297 0.1089,1.2447 0.7339,-0.1868 1.5091,-0.4201 2.2688,-0.2206 0.3892,0.036 0.2982,0.5601 0.2311,0.8221 -0.5758,0.3294 -1.2291,0.4694 -1.8256,0.752 -1.0658,0.4357 -1.089,2.1781 -0.1298,2.7459"
         style="fill:#828588 icc-color(ISO-Coated-v2-ECI, 0.42349243, 0.32548523, 0.31369019, 0.15689087);fill-opacity:1;fill-rule:nonzero;stroke:none"
         transform="matrix(1.3333333,0,0,-1.3333333,0,1783.9371)" />
      <path
         id="path139"
         d="m 450.301,1228.9558 c 0.5108,0.013 1.0191,0.023 1.5299,0.036 0.0595,-1.9372 0.002,-3.8716 0.0363,-5.8085 -0.5185,-0.021 -1.0347,-0.039 -1.5506,-0.057 -0.026,1.9449 -0.002,3.8869 -0.0156,5.8292"
         style="fill:#828588 icc-color(ISO-Coated-v2-ECI, 0.42349243, 0.32548523, 0.31369019, 0.15689087);fill-opacity:1;fill-rule:nonzero;stroke:none"
         transform="matrix(1.3333333,0,0,-1.3333333,0,1783.9371)" />
      <path
         id="path140"
         d="m 452.3287,1223.189 c 0.026,1.9315 -0.0182,3.8659 0.0286,5.7977 0.6559,-0.01 1.3147,-0.013 1.9757,-0.015 0.6563,-1.2472 1.224,-2.5387 1.9163,-3.7653 0.0442,1.2552 0.026,2.5101 0.008,3.7653 0.4901,0 0.9777,0 1.4703,-0.01 -0.0102,-1.9264 0.008,-3.8531 -0.0155,-5.7824 -0.6534,0.01 -1.3663,-0.1814 -1.9809,0.099 -0.7313,1.1667 -1.1852,2.4894 -1.976,3.6224 -0.0621,-1.2498 -0.0182,-2.5047 -0.0128,-3.7574 -0.472,0.013 -0.9439,0.026 -1.4133,0.042"
         style="fill:#828588 icc-color(ISO-Coated-v2-ECI, 0.42349243, 0.32548523, 0.31369019, 0.15689087);fill-opacity:1;fill-rule:nonzero;stroke:none"
         transform="matrix(1.3333333,0,0,-1.3333333,0,1783.9371)" />
      <path
         id="path141"
         d="m 457.971,1223.1292 c 0.6407,1.9913 1.4366,3.9285 2.2014,5.8757 0.6353,-0.023 1.2708,-0.039 1.9086,-0.06 0.5884,-1.5894 1.2084,-3.1685 1.8176,-4.7528 0.1607,-0.2724 0.2074,-0.6795 0.5159,-0.8326 0.231,1.8593 0.0235,3.7523 0.1167,5.6268 0.6614,-0.01 1.3199,-0.013 1.9837,-0.015 0.6585,-1.2526 1.2212,-2.5568 1.9369,-3.7806 0.0312,1.26 0.003,2.5229 0.005,3.7857 0.4825,-0.01 0.9672,-0.01 1.4548,-0.011 -0.0258,-1.9264 0.008,-3.8506 -0.0207,-5.7744 -0.625,-0.036 -1.2549,-0.099 -1.8774,-0.013 -0.8011,1.1798 -1.2472,2.5645 -2.0639,3.7338 -0.0856,-1.2523 -0.0337,-2.5072 -0.0235,-3.7596 -0.9462,0.088 -1.8953,0.041 -2.8418,0.01 -0.7259,-0.1168 -0.6922,0.809 -0.9413,1.2549 -0.7234,0.01 -1.4443,0.01 -2.1651,0.013 -0.1659,-0.4176 -0.3138,-0.8428 -0.4746,-1.2603 -0.5108,-0.016 -1.0241,-0.026 -1.5324,-0.036 z m 2.3414,2.4582 v 0 c 0.4876,0.029 0.9752,-0.039 1.4627,-0.01 -0.218,0.7056 -0.4331,1.4134 -0.6692,2.1135 -0.2903,-0.6925 -0.5497,-1.3952 -0.7935,-2.103"
         style="fill:#828588 icc-color(ISO-Coated-v2-ECI, 0.42349243, 0.32548523, 0.31369019, 0.15689087);fill-opacity:1;fill-rule:nonzero;stroke:none"
         transform="matrix(1.3333333,0,0,-1.3333333,0,1783.9371)" />
      <path
         id="path142"
         d="m 474.8746,1223.1916 c 0.0493,1.9318 -0.0207,3.8607 0.0286,5.7926 1.281,-0.1168 2.6603,0.2437 3.8738,-0.262 1.0452,-0.5471 0.7963,-1.9576 -0.049,-2.5747 1.1849,-0.4796 1.1718,-2.3414 -0.0547,-2.7564 -1.2317,-0.3319 -2.5359,-0.2568 -3.7987,-0.1995 z m 1.5324,4.6907 v 0 c 0.013,-0.415 0.0312,-0.83 0.0493,-1.2447 0.4383,0.062 0.9051,0.057 1.3096,0.2722 0.0468,0.2905 0.0802,0.5833 0.1009,0.879 -0.4872,0.034 -0.9748,0.065 -1.4598,0.093 z m 0.0286,-2.1963 v 0 c -0.002,-0.4719 -0.002,-0.9439 -0.002,-1.4159 0.5547,0.075 1.6387,-0.1218 1.6231,0.7234 -0.07,0.7651 -1.0735,0.6146 -1.6206,0.6925"
         style="fill:#828588 icc-color(ISO-Coated-v2-ECI, 0.42349243, 0.32548523, 0.31369019, 0.15689087);fill-opacity:1;fill-rule:nonzero;stroke:none"
         transform="matrix(1.3333333,0,0,-1.3333333,0,1783.9371)" />
      <path
         id="path143"
         d="m 481.8056,1228.9504 c 0.6301,0.018 1.2603,0.034 1.893,0.057 0.8169,-1.9315 1.5766,-3.8894 2.256,-5.8731 -0.568,0.016 -1.1358,0.039 -1.701,0.068 -0.135,0.4071 -0.2645,0.8113 -0.3969,1.2187 -0.7259,0 -1.4519,0 -2.1781,-0.01 -0.1582,-0.3889 -0.2826,-0.7934 -0.4927,-1.1565 -0.4719,-0.2228 -1.0267,-0.073 -1.5298,-0.1089 0.6406,1.963 1.4677,3.856 2.1495,5.8031 z m 0.9621,-1.2912 v 0 c -0.262,-0.6766 -0.5004,-1.3614 -0.7311,-2.0457 0.4691,-0.031 0.9411,-0.057 1.4131,-0.086 -0.1659,0.731 -0.402,1.4391 -0.682,2.1313"
         style="fill:#828588 icc-color(ISO-Coated-v2-ECI, 0.42349243, 0.32548523, 0.31369019, 0.15689087);fill-opacity:1;fill-rule:nonzero;stroke:none"
         transform="matrix(1.3333333,0,0,-1.3333333,0,1783.9371)" />
      <path
         id="path144"
         d="m 486.2086,1228.9714 c 0.6716,0 1.3456,0 2.0225,-0.016 0.6223,-1.2654 1.1929,-2.5645 1.9319,-3.7704 0.0337,1.2578 0.0102,2.5206 0.013,3.7806 0.4459,0.011 0.8918,0.023 1.3405,0.039 0.0675,-1.9421 0.0102,-3.8844 0.0363,-5.8264 -0.6251,0.039 -1.3822,-0.2307 -1.9162,0.1219 -0.796,1.2005 -1.2915,2.5747 -2.0432,3.8038 -0.0417,-1.3274 0.0181,-2.6552 0.0102,-3.9827 -0.459,0.018 -0.9153,0.036 -1.3717,0.057 -0.0284,1.9318 0.008,3.8636 -0.0233,5.7929"
         style="fill:#828588 icc-color(ISO-Coated-v2-ECI, 0.42349243, 0.32548523, 0.31369019, 0.15689087);fill-opacity:1;fill-rule:nonzero;stroke:none"
         transform="matrix(1.3333333,0,0,-1.3333333,0,1783.9371)" />
      <path
         id="path145"
         d="m 492.0299,1228.9714 c 0.5159,0 1.0321,0.01 1.5505,0.01 -0.008,-0.7546 -0.0102,-1.5092 0.0105,-2.2637 0.6327,0.695 1.1823,1.4598 1.7036,2.2405 0.6353,0.013 1.2731,0.018 1.9109,0.021 -0.6923,-0.9103 -1.4055,-1.8074 -2.1314,-2.6915 0.7727,-1.0375 1.5843,-2.0486 2.3026,-3.1247 -0.6585,0.031 -1.4029,-0.1686 -2.0019,0.1426 -0.661,0.7702 -1.1355,1.6855 -1.7943,2.4608 -0.008,-0.8765 -0.005,-1.7504 -0.0156,-2.6269 -0.5108,0.01 -1.0165,0.01 -1.5219,0.011 -0.0207,1.942 -0.005,3.8843 -0.013,5.8266"
         style="fill:#828588 icc-color(ISO-Coated-v2-ECI, 0.42349243, 0.32548523, 0.31369019, 0.15689087);fill-opacity:1;fill-rule:nonzero;stroke:none"
         transform="matrix(1.3333333,0,0,-1.3333333,0,1783.9371)" />
      <path
         id="path146"
         d="m 356.487,1202.3464 c 1.5168,8.2457 6.0752,15.9157 12.6434,21.1354 -0.7364,-1.5973 -1.8876,-2.9534 -2.6552,-4.5351 -3.6148,-6.6847 -4.9553,-14.5361 -3.8325,-22.0453 0.7467,-5.1472 2.6708,-10.1101 5.5517,-14.4377 0.3526,-0.5395 0.6534,-1.1126 0.9723,-1.6728 -6.34,4.9658 -10.7714,12.2599 -12.475,20.1138 -0.0777,0.3269 -0.1607,0.6483 -0.2514,0.97 l -0.0258,0.1035 c 0.0181,0.091 0.0544,0.2775 0.0725,0.3682"
         style="fill:#c0ebf9 icc-color(ISO-Coated-v2-ECI, 0.24708557, 0, 0.00779724, 0);fill-opacity:1;fill-rule:nonzero;stroke:none"
         transform="matrix(1.3333333,0,0,-1.3333333,0,1783.9371)" />
      <path
         id="path147"
         d="m 414.0071,1223.4662 c 6.6716,-5.1366 11.1498,-12.9024 12.7366,-21.1351 0,-0.1168 0,-0.3501 0,-0.4668 -1.6206,-8.3234 -6.2127,-16.1 -12.9492,-21.2885 1.2835,1.9913 2.6291,3.9518 3.6249,6.1092 4.8073,9.7832 4.6778,21.7913 -0.2851,31.4864 -0.8946,1.8516 -2.0977,3.524 -3.1272,5.2948"
         style="fill:#cd9cd3 icc-color(ISO-Coated-v2-ECI, 0.18429565, 0.36468506, 0.00389099, 0);fill-opacity:1;fill-rule:nonzero;stroke:none"
         transform="matrix(1.3333333,0,0,-1.3333333,0,1783.9371)" />
      <path
         id="path148"
         d="m 510.0795,1214.3234 c 1.7555,1.0735 3.9024,1.1982 5.9094,1.1851 1.906,-0.086 4.0036,-0.3087 5.5023,-1.6129 1.3717,-1.2058 1.5559,-3.2099 1.294,-4.911 -0.6585,0.016 -1.3147,0.034 -1.9681,0.057 -0.0312,1.307 0.0207,2.9197 -1.2212,3.7236 -1.7634,1.089 -3.988,0.9671 -5.9717,0.7597 -1.5066,-0.1321 -3.2128,-1.0968 -3.2567,-2.7797 -0.0675,-3.7987 -0.008,-7.6025 -0.0261,-11.4041 -0.0595,-1.0162 0.4045,-2.0664 1.3121,-2.5798 1.3899,-0.7832 3.0521,-0.7727 4.6027,-0.7415 1.3405,0.067 2.8598,0.2438 3.8194,1.2937 0.8764,0.9646 0.6794,2.3701 0.695,3.5705 0.6843,0.073 1.3768,0.1038 2.069,0.088 0.0751,-1.5506 0.1868,-3.28 -0.7934,-4.5998 -1.0735,-1.4754 -2.9871,-1.9499 -4.7089,-2.1316 -2.357,-0.1296 -4.8799,-0.2098 -7.0268,0.9334 -1.4134,0.7444 -2.2068,2.3392 -2.1731,3.9078 -0.0104,3.7962 -0.005,7.5921 -0.002,11.3882 -0.0261,1.5015 0.6248,3.0572 1.9446,3.8532"
         style="fill:#cd9cd3 icc-color(ISO-Coated-v2-ECI, 0.18429565, 0.36468506, 0.00389099, 0);fill-opacity:1;fill-rule:nonzero;stroke:none"
         transform="matrix(1.3333333,0,0,-1.3333333,0,1783.9371)" />
      <path
         id="path149"
         d="m 529.3222,1215.2803 c 2.554,0.3941 5.2818,0.3785 7.7011,-0.6326 1.6518,-0.669 2.7406,-2.3908 2.6915,-4.167 0.005,-3.8066 0.0102,-7.6155 -0.002,-11.4196 0.0153,-1.5013 -0.7753,-2.9843 -2.0849,-3.7364 -2.1368,-1.2679 -4.7245,-1.2109 -7.1229,-1.1046 -1.7192,0.153 -3.5705,0.5575 -4.8178,1.836 -0.9127,0.9204 -1.2109,2.2583 -1.1953,3.5161 0.003,3.4588 0.008,6.9179 -0.003,10.3796 -0.002,1.2135 0.205,2.5101 1.0242,3.4563 0.9439,1.1253 2.4063,1.6234 3.8092,1.8722 z m 0.5159,-1.8178 v 0 c -1.0684,-0.1865 -2.1833,-0.6585 -2.7539,-1.6333 -0.4535,-0.7132 -0.3577,-1.5923 -0.381,-2.3987 0.0363,-3.4588 -0.0232,-6.918 0.0258,-10.3745 0.0207,-1.7218 1.7399,-2.7329 3.2803,-2.9016 2.0327,-0.2307 4.2627,-0.3421 6.1271,0.6509 1.1072,0.5706 1.434,1.8748 1.4028,3.0285 0.008,3.4642 0.0389,6.9284 -0.0155,10.3901 0.0362,1.2164 -0.6792,2.3987 -1.8256,2.8446 -1.8513,0.7234 -3.9206,0.7027 -5.86,0.394"
         style="fill:#cd9cd3 icc-color(ISO-Coated-v2-ECI, 0.18429565, 0.36468506, 0.00389099, 0);fill-opacity:1;fill-rule:nonzero;stroke:none"
         transform="matrix(1.3333333,0,0,-1.3333333,0,1783.9371)" />
      <path
         id="path150"
         d="m 544.9008,1213.0478 c 2.7224,2.0537 6.4046,3.1272 9.7288,2.0302 1.2266,-0.3629 2.0665,-1.3743 2.7848,-2.3698 2.37,2.1702 5.7435,3.2074 8.9172,2.6603 1.3717,-0.2387 2.7513,-0.9232 3.4824,-2.1546 0.6043,-0.9649 0.7055,-2.1342 0.7001,-3.2465 -0.0207,-3.7236 0,-7.4472 -0.008,-11.168 -0.0182,-1.4366 0.0751,-2.8757 -0.1012,-4.3069 -0.669,0 -1.3354,0 -1.9993,-0.01 -0.2101,1.3434 -0.1035,2.7046 -0.1191,4.0556 -0.005,3.8038 0,7.6079 0,11.4117 0.0284,1.0604 -0.3398,2.1988 -1.237,2.8264 -1.0372,0.7571 -2.3854,0.7699 -3.6119,0.7129 -2.1495,-0.093 -4.1539,-1.1148 -5.7799,-2.4763 0.0389,-5.4995 0.0908,-11.0019 -0.0258,-16.4991 -0.6536,-0.016 -1.307,-0.029 -1.9578,-0.041 -0.2126,1.3536 -0.101,2.7227 -0.1191,4.0839 -0.0105,3.8869 0.0102,7.7763 -0.008,11.6632 0.0569,1.4623 -1.0242,2.8187 -2.4529,3.1141 -2.8887,0.6327 -5.964,-0.3657 -8.1368,-2.3207 -0.0156,-4.504 -0.003,-9.008 -0.005,-13.5094 -0.0156,-0.9777 0.0802,-1.9655 -0.0856,-2.9327 -0.6432,-0.1219 -1.3198,-0.1684 -1.9525,0 -0.1843,0.3399 -0.1168,0.7495 -0.1426,1.1177 0.0258,5.4454 0.003,10.8905 0.0102,16.3358 0.0105,0.9984 -0.07,2.0044 0.0624,2.9977 0.5859,0.2616 1.2705,0.2253 1.8745,0.036 0.2492,-0.6355 0.1375,-1.3458 0.1817,-2.0148"
         style="fill:#cd9cd3 icc-color(ISO-Coated-v2-ECI, 0.18429565, 0.36468506, 0.00389099, 0);fill-opacity:1;fill-rule:nonzero;stroke:none"
         transform="matrix(1.3333333,0,0,-1.3333333,0,1783.9371)" />
      <path
         id="path151"
         d="m 503.3767,1198.6877 c 0.5782,-0.01 1.4417,0.2855 1.8436,-0.2332 0.1012,-1.2861 0.1089,-2.5929 -0.0258,-3.8793 -0.6483,-0.1295 -1.3252,-0.1476 -1.976,-0.028 -0.402,1.0111 -0.0958,2.1702 -0.1477,3.2411 0.0856,0.2671 -0.1063,0.8921 0.3059,0.8997"
         style="fill:#cd9cd3 icc-color(ISO-Coated-v2-ECI, 0.18429565, 0.36468506, 0.00389099, 0);fill-opacity:1;fill-rule:nonzero;stroke:none"
         transform="matrix(1.3333333,0,0,-1.3333333,0,1783.9371)" />
      <path
         id="path152"
         d="m 356.4403,1201.8747 c 0.0907,-0.3217 0.1737,-0.6431 0.2514,-0.97 1.7036,-7.8539 6.135,-15.148 12.475,-20.1138 0.2775,-0.267 0.5547,-0.5366 0.8297,-0.8061 4.7919,-6.1405 11.6994,-10.5744 19.2478,-12.4697 0.5885,-0.1556 1.1798,-0.3035 1.7708,-0.4538 -4.0632,-0.9127 -8.3208,-0.6639 -12.3996,0.028 -5.1755,0.9751 -10.1228,3.1195 -14.3833,6.2129 -0.4019,0.2929 -0.7855,0.6171 -1.1072,0.9981 -5.9482,7.7298 -8.3701,17.985 -6.6846,27.574"
         style="fill:#4aace5 icc-color(ISO-Coated-v2-ECI, 0.72549438, 0.14509583, 0, 0);fill-opacity:1;fill-rule:nonzero;stroke:none"
         transform="matrix(1.3333333,0,0,-1.3333333,0,1783.9371)" />
      <path
         id="path153"
         d="m 413.7945,1180.5758 c 6.7365,5.1885 11.3286,12.9651 12.9492,21.2885 1.7374,-9.677 -0.7648,-20.0515 -6.8377,-27.7969 -0.7002,-0.7052 -1.5738,-1.203 -2.3854,-1.7685 -7.4004,-4.8929 -16.6728,-6.8323 -25.414,-5.3232 1.8386,0.5446 3.7108,0.9774 5.5052,1.6594 4.2758,1.5741 8.2326,3.9881 11.6059,7.0452 1.3303,1.2291 2.658,2.492 3.6535,4.019 0.3062,0.2931 0.6146,0.5862 0.9233,0.8765"
         style="fill:#78ca36 icc-color(ISO-Coated-v2-ECI, 0.52938843, 0, 0.94509888, 0);fill-opacity:1;fill-rule:nonzero;stroke:none"
         transform="matrix(1.3333333,0,0,-1.3333333,0,1783.9371)" />
      <path
         id="path154"
         d="m 369.9964,1179.9848 c 1.8774,-1.2085 3.7156,-2.4894 5.7356,-3.4566 9.6148,-4.8385 21.4387,-4.9499 31.1391,-0.2906 2.1133,0.9494 4.0193,2.2743 6.0001,3.4617 -0.9955,-1.527 -2.3232,-2.7899 -3.6535,-4.019 -3.3733,-3.0571 -7.3301,-5.4711 -11.6059,-7.0452 -1.7944,-0.682 -3.6666,-1.1148 -5.5052,-1.6594 -0.3654,-0.039 -0.7364,-0.01 -1.0916,0.086 -0.591,0.1503 -1.1823,0.2982 -1.7708,0.4538 -7.5484,1.8953 -14.4559,6.3292 -19.2478,12.4697"
         style="fill:#b5e177 icc-color(ISO-Coated-v2-ECI, 0.29019165, 0, 0.58039856, 0);fill-opacity:1;fill-rule:nonzero;stroke:none"
         transform="matrix(1.3333333,0,0,-1.3333333,0,1783.9371)" />
    </g>
  </g>
</svg>
