<?xml version="1.0" encoding="UTF-8" standalone="no"?>
<!-- Created with Inkscape (http://www.inkscape.org/) -->

<svg
   width="75.326309mm"
   height="24.296419mm"
   viewBox="0 0 75.326309 24.296419"
   version="1.1"
   id="svg1"
   inkscape:version="1.3 (0e150ed6c4, 2023-07-21)"
   sodipodi:docname="banka-garanti.svg"
   xmlns:inkscape="http://www.inkscape.org/namespaces/inkscape"
   xmlns:sodipodi="http://sodipodi.sourceforge.net/DTD/sodipodi-0.dtd"
   xmlns="http://www.w3.org/2000/svg"
   xmlns:svg="http://www.w3.org/2000/svg">
  <sodipodi:namedview
     id="namedview1"
     pagecolor="#505050"
     bordercolor="#eeeeee"
     borderopacity="1"
     inkscape:showpageshadow="0"
     inkscape:pageopacity="0"
     inkscape:pagecheckerboard="0"
     inkscape:deskcolor="#d1d1d1"
     inkscape:document-units="mm"
     inkscape:zoom="0.74564394"
     inkscape:cx="142.82957"
     inkscape:cy="46.268733"
     inkscape:window-width="1920"
     inkscape:window-height="1051"
     inkscape:window-x="-9"
     inkscape:window-y="-9"
     inkscape:window-maximized="1"
     inkscape:current-layer="layer1" />
  <defs
     id="defs1">
    <radialGradient
       fx="0"
       fy="0"
       cx="0"
       cy="0"
       r="0.5"
       gradientUnits="userSpaceOnUse"
       gradientTransform="matrix(34.28228,0,0,122.9652,384.5027,912.8065)"
       spreadMethod="pad"
       id="radialGradient38">
      <stop
         style="stop-opacity:1;stop-color:#76c92b"
         offset="0"
         id="stop35" />
      <stop
         style="stop-opacity:1;stop-color:#76c92b"
         offset="0.12"
         id="stop36" />
      <stop
         style="stop-opacity:1;stop-color:#176536"
         offset="0.72"
         id="stop37" />
      <stop
         style="stop-opacity:1;stop-color:#001300"
         offset="1"
         id="stop38" />
    </radialGradient>
  </defs>
  <g
     inkscape:label="Layer 1"
     inkscape:groupmode="layer"
     id="layer1"
     transform="translate(-67.204166,-136.26041)">
    <g
       id="g6"
       transform="matrix(0.26458333,0,0,0.26458333,-58.496513,-2.0592033)">
      <path
         id="path38"
         d="m 398.6708,906.7878 c 2.1438,-2.1639 3.2233,-4.5073 3.2233,-6.995 0,-0.8269 -0.1196,-1.6693 -0.3569,-2.5237 -0.625,-2.2555 -1.9281,-4.0008 -2.6195,-4.8112 -3.0056,11.7626 -8.7715,17.2508 -10.7566,18.8478 1.6265,0.2134 5.8504,0.1828 10.5097,-4.5179 z m -8.4132,-18.7432 v 0 c -3.1811,3.1711 -3.3897,11.3494 -3.3897,15.3655 0,0.3416 10e-4,0.6525 10e-4,0.9317 l 0.002,0.9145 c -0.001,0.0879 -0.001,0.1754 -0.001,0.2506 0,2.4556 0.2883,4.3288 0.4331,5.0998 6.9741,-5.1605 10.429,-18.1959 10.6736,-19.1441 -0.8535,-5.2225 -4.3379,-4.7636 -4.485,-4.7398 l -0.0238,0.005 h -0.019 c -1.2314,-0.0107 -2.304,0.4332 -3.1915,1.3173 z m -33.4265,6.8491 v 0 c -0.0107,0.1661 -0.0153,0.3325 -0.0153,0.4983 0,3.6782 2.558,7.285 7.4325,10.4624 6.192,4.0357 11.0398,5.0219 14.0227,5.1381 2.609,0.1034 4.2724,-0.4275 4.8192,-0.637 -3.837,-9.2055 -8.8084,-15.3774 -12.3214,-18.9391 -3.4404,-3.4965 -6.1767,-5.224 -6.7175,-5.5499 -4.3016,2.1234 -6.9988,5.4952 -7.2202,9.0272 z m 15.5418,-4.3008 v 0 c 3.4611,3.792 8.22,10.1013 11.4778,18.7716 0.7285,-2.4485 1.0145,-4.9921 1.0145,-7.442 0,-3.3968 -0.534,-6.6181 -1.1352,-9.169 -1.1608,-4.9439 -2.8217,-8.5093 -2.8392,-8.5462 -0.036,-0.0771 -3.1527,-7.2133 -8.3753,-7.2133 -4.7863,0 -6.713,6.3071 -6.9976,7.3463 0.6276,0.4484 3.456,2.5282 6.855,6.2526 z m 24.5005,35.6026 v 0 c 1.4295,2.952 2.0953,5.275 2.3229,6.1872 0.6206,-0.4992 1.9659,-1.802 2.4359,-3.9436 0.115,-0.5195 0.1709,-1.0581 0.1709,-1.6063 0,-2.0552 -0.794,-4.3175 -2.372,-6.7439 -2.3134,-3.5618 -5.2166,-5.6997 -8.3931,-6.1861 -1.6677,-0.254 -3.0167,0.009 -3.693,0.1911 4.9272,3.9614 7.8981,8.7451 9.5284,12.1016 z m -10.4848,-6.0806 v 0 c 0,0.5412 0.0119,1.0763 0.0402,1.5903 l 0.0383,0.638 c 0.1777,3.551 0.6593,12.9796 4.4025,16.2899 0.9399,0.8354 2.0421,1.2112 3.2774,1.1222 0.1434,-0.0153 3.795,-0.5065 4.2639,-6.4184 -0.0902,-0.3703 -0.815,-3.1397 -2.5365,-6.6323 -1.6543,-3.3531 -4.581,-8.0583 -9.2095,-11.7068 -0.0901,0.9349 -0.2763,3.0459 -0.2763,5.1171 z m -17.506,24.982 v 0 c 1.215,0.7569 2.602,0.9565 4.1228,0.5919 3.1688,-0.7568 5.8969,-3.2675 7.8862,-7.2572 2.1133,-4.2381 3.2925,-9.9973 3.4138,-16.6556 0,-0.003 8e-4,-0.0878 8e-4,-0.235 0,-0.7151 -0.064,-2.9375 -0.7557,-5.1525 -0.4462,1.2634 -1.6038,4.2131 -3.7621,7.7496 -2.6314,4.2996 -7.3253,10.3627 -14.7654,14.9114 0.1996,0.7773 1.279,4.4408 3.8596,6.0474 z m -2.5985,-29.1427 v 0 c -5.9771,2.5458 -9.9672,7.5515 -9.9672,12.4779 0,0.0425 0,0.0876 0,0.1304 0.0582,4.0212 2.6808,7.2635 7.384,9.1403 0.5522,-0.2809 3.8041,-2.0277 7.8083,-5.7912 4.976,-4.6766 8.7693,-10.2399 11.2774,-16.5379 -0.4023,-0.2775 -1.7158,-1.0746 -3.9524,-1.4638 -2.5089,-0.4425 -6.7257,-0.4473 -12.5501,2.0443"
         transform="matrix(1.3333333,0,0,-1.3333333,0,1783.9371)"
         style="fill:url(#radialGradient38);stroke:none" />
      <path
         id="path39"
         d="m 569.552,926.9277 c 0,1.0607 -0.3512,1.9219 -1.0641,2.5838 -0.707,0.7571 -1.5732,1.0573 -2.5829,1.0573 -1.0619,0 -1.9245,-0.3546 -2.5804,-1.0573 -0.4711,-0.4425 -0.7869,-0.9692 -0.9456,-1.5871 -0.0783,-0.3101 -0.1211,-0.6435 -0.1211,-0.9967 0,-1.0148 0.3583,-1.8748 1.0667,-2.5821 0.6559,-0.7092 1.5185,-1.063 2.5804,-1.063 1.0097,0 1.8759,0.3028 2.5829,1.063 0.7129,0.7073 1.0641,1.5673 1.0641,2.5821 z m 0.2883,-34.3477 v 0 c -0.4532,0.8629 -0.5173,3.6117 -0.5173,7.0753 v 15.0792 c 0,3.1535 0.3027,5.9927 -2.6907,5.9927 -0.9669,0 -2.844,-0.6905 -5.0578,-1.8604 1.1557,-0.7699 1.5967,-2.3028 1.5967,-5.6262 v -13.6392 c 0,-3.9305 -0.0153,-6.1027 -0.5147,-7.0214 z m -16.9033,-0.5706 v 0 c -2.8389,0 -4.8546,0.8782 -6.1469,2.5829 -0.8779,1.1855 -1.3442,3.3554 -1.3442,6.4565 v 15.3394 h -4.2843 v 3.3579 l 4.2843,0.5174 0.4663,6.6642 5.6829,0.4127 v -7.128 h 7.0263 v -3.8242 h -7.0263 v -6.7294 -1.9514 -0.8459 -6.0202 c 0,-2.9435 1.241,-4.39 3.6179,-4.39 1.4958,0 2.9919,0.3634 4.5961,1.1891 l 0.5147,-3.6175 c -2.5781,-1.3454 -5.0638,-2.0135 -7.3868,-2.0135 z m -89.5691,6.3522 v 0 c -1.5494,-1.2382 -3.405,-2.0631 -5.4187,-2.0631 -2.7941,0 -4.5465,1.1863 -4.5465,4.129 0,4.3364 4.0802,7.2314 9.9652,5.682 z m 6.7161,-5.7816 v 0 c -0.413,1.5449 -0.515,4.1814 -0.515,6.3488 v 11.8284 c 0,7.6966 -3.4634,10.1786 -10.9007,10.1786 -2.9426,0 -5.3177,-0.6216 -8.0039,-1.8102 l -0.7225,-3.8738 c 2.5308,1.3428 5.5264,1.9148 8.4203,1.9148 5.2676,0 5.0057,-4.1337 5.0057,-8.1108 -7.2306,2.219 -16.4265,-0.5714 -16.2167,-9.4005 0.1057,-5.0119 3.7695,-7.6459 8.3681,-7.7502 3.149,-0.0476 5.7841,1.1911 7.9529,3.4098 l 0.4683,-2.7349 z m 61.7687,0 v 0 c 0.223,0.5542 0.2304,1.8604 0.2514,3.3483 0.0145,1.1475 0.0145,2.5226 0.0145,4.1375 v 10.8496 c 0,3.7168 -1.1353,5.4207 -3.8702,5.4207 -2.1166,0 -4.5975,-1.4962 -6.5585,-3.2519 v -13.6347 c 0,-1.5633 0.0247,-3.0064 0.0839,-4.1998 0.057,-1.1747 0.1471,-2.1081 0.2767,-2.6697 h -6.7678 c 0.2577,1.1345 0.311,3.4042 0.311,6.6597 v 14.1018 c 0,3.4609 -0.5579,4.8549 -1.6016,5.5253 2.4083,1.2093 3.8809,1.8094 4.983,1.8094 1.999,0 2.4549,-1.7609 2.5033,-3.9782 2.38,2.4276 5.7354,4.2889 8.8881,4.2889 3.0962,0 5.3696,-1.0868 6.7646,-3.3055 0.3098,-0.5171 0.5575,-1.1815 0.7355,-1.9885 0.2733,-1.2042 0.4037,-2.7391 0.4037,-4.6247 v -11.5186 c 0,-4.5573 0.1947,-6.4639 0.4093,-6.9696 z m -43.3684,23.4987 v 0 c -0.4601,0.0521 -0.9275,0.0521 -1.5446,0.0521 -1.9647,0 -3.926,-1.0332 -5.8397,-3.2023 v -13.8951 c 0,-4.0805 0.1625,-5.9879 0.362,-6.4534 h -6.7651 c 0.096,0.4227 0.1638,0.9482 0.2108,1.5591 0.0961,1.317 0.0961,3.0075 0.0961,4.8433 v 14.3591 c 0,3.151 -0.5147,4.8892 -1.6061,5.5253 1.9386,1.0168 3.7826,1.8094 4.9737,1.8094 2.0642,0 2.4698,-1.9111 2.4698,-4.0303 1.9106,2.8936 4.2905,4.341 7.0263,4.341 0.5173,0 1.0335,-0.0511 1.5009,-0.1562 z m 22.278,-23.4987 v 0 c -0.4589,1.0049 -0.5181,4.1814 -0.5181,6.3488 v 11.8284 c 0,7.6966 -3.4311,10.1786 -10.8703,10.1786 -2.9435,0 -5.3476,-0.5896 -8.0348,-1.7795 l -0.7249,-3.9045 c 0.9576,0.5063 1.9766,0.9017 3.03,1.2005 1.7464,0.4912 3.5869,0.7143 5.3915,0.7143 5.2687,0 5.0091,-4.1337 5.0091,-8.1108 -7.2337,2.219 -16.4228,-0.5714 -16.2176,-9.4005 0.1035,-5.0119 3.7704,-7.6459 8.3645,-7.7502 3.1535,-0.0476 5.8161,1.1911 7.9894,3.4098 0,0 0.1341,-1.7535 0.4335,-2.7349 1.377,0 6.1477,0 6.1477,0 z m -6.7175,5.7816 v 0 c -1.5494,-1.2382 -3.4073,-2.0631 -5.423,-2.0631 -2.7907,0 -4.5456,1.1863 -4.5456,4.129 0,4.3364 4.0813,7.2314 9.9686,5.682 z m -62.4059,27.9431 v 0 c -3.0988,1.2398 -6.3521,1.8626 -9.661,1.8626 -4.2333,0 -7.5518,-1.5007 -10.3422,-4.3923 -2.7873,-2.9443 -4.1808,-6.7127 -4.1808,-11.2617 0,-4.9564 1.2396,-8.9323 3.7715,-11.825 2.4763,-2.8939 5.7424,-4.3898 10.1843,-4.3898 2.3218,0 4.2355,0.3073 5.8374,0.9278 v 9.7634 c 0,0.6667 -0.0117,1.2858 -0.0321,1.8575 h -3.2374 -1.9795 c -0.0697,1.73 -0.2965,3.5416 -0.5657,4.6001 l 12.6856,-0.4357 c -0.4641,-1.501 -0.5174,-3.3375 -0.5174,-6.4894 v -5.0091 c 0,-3.511 0.2064,-5.8895 0.5174,-7.0769 -4.3923,-1.8071 -8.7823,-2.7363 -13.2242,-2.7363 -6.5588,0 -11.6238,1.8079 -15.2887,5.4235 -3.615,3.615 -5.7186,8.4592 -5.7186,14.6557 0,6.2538 2.2578,11.3768 6.2881,15.3538 3.9736,3.9235 9.2449,5.8882 15.8023,5.8882 5.6248,0 7.6501,-0.7152 10.6472,-1.751 z"
         style="fill:#231f20 icc-color(ISO-Coated-v2-ECI, 0, 0, 0, 1);fill-opacity:1;fill-rule:nonzero;stroke:none"
         transform="matrix(1.3333333,0,0,-1.3333333,0,1783.9371)" />
    </g>
  </g>
</svg>
