<?xml version="1.0" encoding="UTF-8" standalone="no"?>
<!-- Created with Inkscape (http://www.inkscape.org/) -->

<svg
   width="76.146484mm"
   height="11.57478mm"
   viewBox="0 0 76.146484 11.57478"
   version="1.1"
   id="svg1"
   inkscape:version="1.3 (0e150ed6c4, 2023-07-21)"
   sodipodi:docname="banka-ing.svg"
   xmlns:inkscape="http://www.inkscape.org/namespaces/inkscape"
   xmlns:sodipodi="http://sodipodi.sourceforge.net/DTD/sodipodi-0.dtd"
   xmlns="http://www.w3.org/2000/svg"
   xmlns:svg="http://www.w3.org/2000/svg">
  <sodipodi:namedview
     id="namedview1"
     pagecolor="#505050"
     bordercolor="#eeeeee"
     borderopacity="1"
     inkscape:showpageshadow="0"
     inkscape:pageopacity="0"
     inkscape:pagecheckerboard="0"
     inkscape:deskcolor="#d1d1d1"
     inkscape:document-units="mm"
     inkscape:zoom="0.74564394"
     inkscape:cx="144.17069"
     inkscape:cy="22.128524"
     inkscape:window-width="1920"
     inkscape:window-height="1051"
     inkscape:window-x="-9"
     inkscape:window-y="-9"
     inkscape:window-maximized="1"
     inkscape:current-layer="layer1" />
  <defs
     id="defs1" />
  <g
     inkscape:label="Layer 1"
     inkscape:groupmode="layer"
     id="layer1"
     transform="translate(-66.675001,-142.61041)">
    <g
       id="g13"
       transform="matrix(0.26458333,0,0,0.26458333,-58.8144,-251.38882)">
      <path
         id="path101"
         d="m 356.3844,209.3695 c 0.8079,0 1.3697,-0.1843 1.7192,-0.561 0.3915,-0.4218 0.5658,-1.1191 0.5658,-2.2581 v -14.2407 c 0,-1.9703 -0.3824,-2.8496 -2.6416,-2.8496 h -0.3098 v -0.8742 h 10.1531 v 0.8699 l -0.3064,0.004 c -2.238,0.0286 -2.615,0.9025 -2.615,2.8496 v 14.2407 c 0,1.1364 0.1744,1.8298 0.565,2.251 0.3529,0.3827 0.9252,0.5681 1.7495,0.5681 h 0.6069 v 0.8864 H 355.718 v -0.8864 h 0.6664 z"
         style="fill:#00296a;fill-opacity:1;fill-rule:evenodd;stroke:none"
         transform="matrix(1.3333333,0,0,-1.3333333,0,1783.9371)" />
      <path
         id="path102"
         d="m 387.3212,195.8037 c 0,0 -0.1681,0.887 -0.1931,1.3839 v 6.4913 c -0.0377,3.7854 0.4201,5.6699 -2.5129,5.656 v 0.8501 h 6.7473 v -0.8501 c -3.0211,0.0139 -2.6413,-1.8706 -2.6575,-5.656 v -15.1571 l -0.9609,0.0111 -14.5695,17.2054 c 0,0 0.1635,-0.8858 0.1888,-1.383 v -10.6302 c -0.0825,-3.8778 0.3424,-4.3458 2.5565,-4.3008 v -0.8855 h -7.0341 v 0.8855 c 2.2169,-0.003 2.6529,0.3297 2.6506,4.6168 v -0.2565 10.4763 l -0.019,1.6628 c 0.0831,2.1523 -0.6207,3.4004 -2.7714,3.3794 v 0.8516 h 6.4755 z"
         style="fill:#00296a;fill-opacity:1;fill-rule:evenodd;stroke:none"
         transform="matrix(1.3333333,0,0,-1.3333333,0,1783.9371)" />
      <path
         id="path103"
         d="m 413.5836,210.4495 h -0.779 l -0.036,-0.2826 c -0.053,-0.421 -0.2103,-1.1265 -0.6638,-1.1265 -0.1296,0 -0.4519,0.0646 -0.815,0.2401 -1.5781,0.7228 -3.6232,1.169 -5.3444,1.169 -3.35,0 -6.3893,-1.2691 -8.5595,-3.5751 -1.9942,-2.1189 -3.085,-5.0014 -3.0691,-8.1178 0.0144,-2.9849 1.1234,-5.4403 3.3945,-7.5096 2.2881,-2.0704 4.8518,-2.9528 8.577,-2.9528 3.1034,0 4.8802,0.4717 7.6065,2.0188 l 0.4771,0.2736 v 5.5692 c 0,2.3734 0.275,2.7433 2.1008,2.8213 l 0.2973,0.0119 v 0.8277 h -8.922 v -0.8277 l 0.297,-0.0119 c 2.0336,-0.0836 2.418,-0.4691 2.418,-2.4316 v -5.1607 c -1.5092,-1.0531 -2.6059,-1.4528 -3.9892,-1.4528 -2.0466,0 -3.8676,0.8363 -5.2662,2.314 -1.6379,1.7339 -2.437,4.2582 -2.437,7.1112 0,3.0736 0.7742,5.6957 2.3675,7.3797 1.2688,1.342 2.9546,2.0872 4.8773,2.0872 1.7181,0 3.7131,-0.779 5.0811,-1.927 1.1129,-0.9635 1.6906,-1.8958 2.126,-3.4362 l 0.0658,-0.233 h 0.7617 z"
         style="fill:#00296a;fill-opacity:1;fill-rule:evenodd;stroke:none"
         transform="matrix(1.3333333,0,0,-1.3333333,0,1783.9371)" />
      <path
         id="path104"
         d="m 542.7575,195.8862 c 0,0 -0.1678,0.887 -0.1927,1.3839 v 6.4913 c -0.0374,3.7854 0.4201,5.6696 -2.5129,5.656 v 0.8501 h 6.7473 v -0.8501 c -3.0212,0.0136 -2.6413,-1.8706 -2.6575,-5.656 v -15.1571 l -0.9609,0.0108 -14.5696,17.2057 c 0,0 0.1636,-0.8861 0.1888,-1.3833 v -10.6299 c -0.0825,-3.8781 0.3425,-4.3458 2.5569,-4.301 v -0.8853 h -7.0345 v 0.8853 c 2.217,-0.003 2.653,0.3299 2.6507,4.6167 v -0.2562 10.476 l -0.019,1.6628 c 0.0833,2.1523 -0.6208,3.4004 -2.7714,3.3795 v 0.8515 h 6.4754 z"
         style="fill:#00296a;fill-opacity:1;fill-rule:evenodd;stroke:none"
         transform="matrix(1.3333333,0,0,-1.3333333,0,1783.9371)" />
      <path
         id="path105"
         style="fill:#00296a;fill-opacity:1;fill-rule:evenodd;stroke:none"
         d="m 509.3921,209.7698 -6.59765,-17.21924 c -1.2098,-3.1935 -2.53043,-3.53467 -3.29883,-3.53467 v -0.45557 h 6.04834 v 0.45557 c -1.1018,0 -1.65088,0.45655 -1.65088,1.13965 0,0.6849 0.44177,1.59652 0.77197,2.39502 l 0.98877,2.85205 h 7.14844 l 0.9873,-2.625 c 0.5522,-1.2546 0.87891,-2.05055 0.87891,-2.50635 0,-0.7985 -0.76847,-1.25537 -2.08887,-1.25537 v -0.45557 h 8.46827 v 0.45557 c -1.5398,0 -2.527,2.50684 -3.1875,3.99023 l -6.92872,16.76368 z m -0.21972,-4.56153 3.07763,-8.21045 h -6.04541 z"
         transform="matrix(1.3333333,0,0,-1.3333333,0,1783.9371)" />
      <path
         id="path107"
         style="fill:#00296a;fill-opacity:1;fill-rule:evenodd;stroke:none"
         d="m 484.3799,210.29421 c -2.99205,-0.0106 -5.5459,-0.0454 -5.5459,-0.0454 v -0.86572 c 0,0 2.4873,0.18544 2.4873,-0.86426 V 190.1365 c 0,0 -0.9733,-0.64893 -2.4873,-0.64893 v -0.86426 h 12.32519 c 5.5862,0.2523 8.61493,9.04649 0.79395,11.20899 5.83878,2.66678 4.50405,8.9748 -0.79395,10.4165 -1.06327,0.027 -2.36426,0.0404 -3.71924,0.0454 -1.01622,0.004 -2.0627,0.004 -3.06005,0 z m 0.72509,-1.77539 h 3.45996 c 5.3339,-1.2614 3.6762,-7.82108 0,-8.10938 h -3.45996 z m 0,-9.29883 h 3.45996 c 4.1088,-1.2255 5.9108,-7.89411 0,-9.08349 h -3.45996 z"
         transform="matrix(1.3333333,0,0,-1.3333333,0,1783.9371)" />
      <path
         id="path110"
         d="m 550.2679,210.2482 v -0.8651 c 0,0 2.9917,0.212 2.9917,-0.8649 0,-1.0771 0,-18.3812 0,-18.3812 0,0 -0.3566,-0.6489 -2.9917,-0.6489 v -0.8648 h 8.5757 v 0.8648 c 0,0 -1.98,-0.1803 -2.5566,0.6489 v 8.5439 l 7.8942,-7.8939 c 0,0 1.2926,-1.2989 -1.9834,-1.2989 v -0.8648 h 9.3685 v 0.8648 c 0,0 -1.3717,-0.3243 -2.3785,0.6489 -1.0072,0.9731 -9.7662,9.7662 -9.7662,9.7662 l 8.2363,8.2366 c 0,0 1.0675,1.2433 3.0456,1.2433 v 0.8651 h -8.0734 v -0.8651 c 0,0 2.5591,-0.036 1.6583,-2.1263 -0.9014,-2.0905 -8.0014,-7.8891 -8.0014,-7.8891 0,0 0,8.822 0,9.1505 0,0.3283 0.7248,0.8649 2.9551,0.8649 v 0.8651 z"
         style="fill:#00296a;fill-opacity:1;fill-rule:evenodd;stroke:none"
         transform="matrix(1.3333333,0,0,-1.3333333,0,1783.9371)" />
      <path
         id="path111"
         d="m 468.449,191.6861 c -1.9154,-1.9171 -3.8321,-2.1418 -5.4088,-2.1418 -0.4527,0 -0.7908,0 -1.0153,0 -0.6772,-0.3385 -1.128,-0.563 -1.6926,-0.563 h -5.5228 c 0,0.563 0.2262,0.6755 0.2262,1.0139 0,0.3382 0.4508,0.9015 0.6753,0.9015 l 0.4524,-1.014 c 0.3384,0.1125 0.4507,0.3385 0.4507,0.6752 0,0.451 -0.5647,1.0154 -0.5647,1.0154 l 0.4524,0.4513 c 0.2245,-0.1143 0.3385,-0.4513 0.4493,-0.4513 0.4521,0 0.6766,0.2248 0.6766,0.337 0,0.1143 -0.3384,0.3385 -0.5629,0.565 -0.3385,0.3381 -0.563,0.4504 -0.9014,0.4504 -0.6769,0 -1.5786,-1.5783 -1.6906,-2.3678 l -0.2265,-1.5766 c -0.2245,0 -0.5627,0 -0.9014,0 0.1139,0.7877 -0.112,1.3521 0.1139,2.0276 0.1106,0.114 0.3368,-0.1122 0.563,-0.2245 0,0.2245 0.3387,0.4507 0.2245,0.7889 -0.1123,0.2248 -0.5627,0.4513 -0.5627,0.4513 0.112,0.2242 0.3382,0.7888 0.3382,0.7888 0,0 0.9014,-0.3381 0.7877,-0.2262 0,0.2262 -0.2247,0.2262 -0.1122,0.451 0.2259,0.1123 0.5644,-0.2248 0.7892,-0.1125 0,0.2248 0,0.2248 0,0.3387 -0.2248,0.1123 -0.677,0.3382 -1.2402,0.3382 -0.7875,-0.1139 -0.6769,-0.2259 -0.7875,-0.4521 -0.9028,-0.1123 -1.4675,-0.3371 -1.9168,-0.3371 l -1.0153,-1.2401 c 0.1136,-0.5644 0,-1.2399 0.2245,-1.6906 0.1139,-0.3384 0.2276,-0.5647 0.4524,-0.9014 h -10.258 c 0.2262,0.3367 0.3384,0.7877 0.6766,1.0139 0,-0.1125 0.1125,-0.1125 0.2248,-0.2262 h 0.6769 c 0.3385,0 0.563,0 0.6769,0.2262 -0.3384,0.226 -0.9014,0.3382 -1.2399,0.5627 0,0.3388 0.1123,0.6772 0.1123,1.0154 0,0.7894 -0.6755,1.0139 -1.1276,1.0139 -0.3388,0 -0.9017,-0.2245 -1.0157,-0.5626 -0.3367,0.2242 -0.5629,0.4507 -0.9014,0.5626 0,0.2262 0,0.2262 0,0.451 0,0.2262 0,0.2262 0,0.4505 0.6769,0.3387 1.2402,0 1.8048,-0.2243 0.1123,0 0.2259,0 0.4507,0 0,0.1123 -0.2248,0.1123 -0.2248,0.2243 -0.4524,0.7894 -1.3538,0.9019 -2.3692,0.7894 -0.3367,-0.1122 -0.3367,-0.9014 -0.6752,-0.4507 -0.4507,0 -0.6755,-0.2248 -1.0139,-0.2248 l -0.5644,-0.2259 c -0.2262,-0.1123 -0.1125,-0.1123 -0.2262,-0.3385 -0.2245,-0.5629 -0.5632,-1.0136 -0.7877,-1.4649 0,-0.5644 -0.2263,-1.2399 0,-1.6906 0.2245,-0.3384 0.3384,-0.5647 0.5632,-0.9014 h -13.301 c -0.451,0.6755 -0.5633,1.2399 -0.5633,2.0276 0,0.5644 0.3385,1.0157 0.5633,1.2399 0,0.5646 0,0.9017 0.7892,1.5786 0.3381,0.3385 1.0136,0.4507 1.466,0.2262 0.449,0.4504 0.9014,0.6752 1.4644,0.6752 0.563,0 1.1279,0 1.5786,-0.4507 0,0 0.3385,1.3538 0.563,2.029 0.2262,0.9015 0.7909,2.1416 1.3538,3.2692 -0.5629,1.8032 -1.2401,3.4937 -1.4661,5.1843 0,0.1123 0.1123,0.3385 0.1123,0.3385 0,0 0,0 0.2262,0.2265 0.2262,0.3367 0.2262,0.7872 0.4507,1.0136 -0.2245,0 -0.4507,-0.2264 -0.5632,-0.2264 -0.1137,0 -0.3382,-0.3385 -0.3382,-0.4505 -0.114,0.112 -0.114,0.226 -0.114,0.4505 0,0.3384 -0.1108,0.6772 -0.1108,0.9034 0,0.3367 0.337,0.6752 0.563,0.6752 0,0.3384 0.1125,0.9014 0.1125,1.2401 -0.2262,-0.2248 -0.7892,-0.7894 -0.7892,-0.7894 v 1.4661 c 0.1137,0.1122 0.3385,0.2245 0.4507,0.4507 0,1.8031 0.1123,3.3814 0.5647,4.8475 0.1122,0.4507 0.449,0.6755 0.6752,1.0137 0,0.451 0,0.9017 0,1.2401 0.3385,0.2262 0.5647,0.563 0.9031,0.6752 -0.1139,0.114 -0.3384,0.114 -0.5646,0.114 0.3384,0.7892 0.7891,1.2399 1.3521,1.6906 0.2265,0.2248 0.451,0.4507 0.6769,0.5629 0.2248,0 0.2248,-0.1122 0.2248,-0.1122 0.563,0 0.9014,-0.2259 1.5783,-0.2259 -0.2245,0.2259 -0.5629,0.4504 -0.9017,0.4504 l 0.1126,0.1139 c 0.4507,0.2248 0.7891,0.4507 1.2398,0.4507 0.2262,-0.4507 0.5647,-0.6769 0.6769,-1.015 l 0.3368,-0.2248 c -0.1123,0.4507 0.114,1.0139 -0.3368,1.4646 0.3368,0 1.1277,-0.4507 1.8032,-0.7894 0.3384,0 0.6752,0.3387 1.0136,0.3387 -0.1105,-0.451 -0.3384,-1.0139 -0.3384,-1.5786 0.2279,0.2262 0.3384,0.5647 0.5646,0.7895 0,0.3381 0.3385,0.5643 0.4507,1.015 0.563,0.1126 1.0154,0.1126 1.4644,0 -0.449,-0.2259 -0.3367,-0.5646 -0.3367,-0.7891 h 0.1122 c 0.2245,0 0.6769,0.2245 0.9014,0.3384 0.4524,0 0.6772,-0.1139 1.0154,-0.3384 -0.3382,-0.112 -0.6766,-0.2259 -0.7889,-0.4507 0.4507,0 0.9014,0 1.4661,0 l 0.1123,0.2248 c 1.1276,-0.7895 1.5766,-2.0294 2.029,-3.2692 -0.2262,0.1136 -0.3385,0.2262 -0.5647,0.2262 0.1123,-0.2262 0.1123,-0.6755 0.3385,-0.6755 0.451,0 0.5646,-0.3382 0.7894,-0.5644 0.4507,-0.4507 1.2399,-0.9017 1.4644,-1.6909 0.7892,-1.5783 0.6769,-2.029 1.0154,-3.043 -0.2262,0.2248 -0.6769,0.1126 -0.9014,0.451 0,-0.3384 0.2245,-0.6769 0.5629,-1.0153 0.2245,-0.1123 0.451,-0.2248 0.6769,-0.2248 0.3385,-0.4507 0.449,-1.1274 0.563,-1.6906 -0.2245,0 -0.3385,0.2245 -0.6766,0.3384 v -0.1139 c 0,-0.563 0.2262,-0.7892 0.7889,-1.0137 0,-0.5629 0,-0.9014 0,-1.2399 1.0139,-0.6769 2.1429,-1.2401 3.2692,-1.2401 0.9017,0 2.029,0.3384 2.8182,0.6752 -0.112,0.5649 0.1125,1.2419 0.5632,1.5786 0.3385,0.3385 0.9014,0.4507 1.3538,0.4507 1.1259,0 2.2539,-0.7874 3.1553,-1.6908 1.1276,-1.3522 2.0293,-3.155 2.3678,-3.718 1.1259,-2.8185 1.1259,-5.2985 1.1259,-6.1999 0,-1.5783 -0.2245,-2.7062 -0.449,-3.7196 0.449,-0.3388 1.1259,-0.3388 1.4643,-0.3388 1.3522,0 2.5923,0.7892 3.4954,1.6909 1.4644,1.5786 2.4781,3.9458 2.4781,7.4395 0,2.7046 -1.0137,5.7493 -3.7182,8.68 -0.9031,0.9011 -1.8045,1.6906 -3.1567,2.2535 -1.0153,0.2245 -2.0293,-0.3384 -3.2692,-0.1122 -0.6769,0.2245 -1.4663,0.7892 -2.0293,1.3521 l 0.1123,0.1123 c 0.2262,-0.3385 0.6772,-0.2245 1.1279,-0.3385 0.1122,0.114 -0.1123,0.3385 -0.1123,0.4524 0.3368,0.2245 0.9014,0.2245 1.3521,0.2245 -0.3384,0.6769 -1.0153,0.3385 -1.3521,0.563 -0.2262,0.1139 -0.3384,0.1139 -0.5649,0 0,-0.1123 0.2265,-0.3368 0.2265,-0.563 -0.2265,0 -0.451,0.2262 -0.6772,0.2262 -0.3368,0 -0.4508,0 -0.5627,0 -0.451,0.4507 -0.6755,1.4647 -1.4664,1.8029 v 0.2262 c 1.3538,0.2248 2.594,0.9017 4.0584,0.6755 0.2245,0 0.4507,0 0.5632,-0.1126 l -0.3387,-0.3381 c 0.3387,-0.2248 0.6772,-0.563 1.2399,-0.563 h 0.1142 c -0.1142,0.3382 -0.3387,0.563 -0.3387,0.7875 0.4524,-0.2245 0.7894,-0.4493 1.2398,-1.0137 0.6772,-1.2402 1.8031,-2.3678 3.0433,-3.2692 0.6769,-0.4507 1.3538,-1.0137 1.8045,-1.4647 3.269,-3.1566 4.3952,-6.9891 4.3952,-10.4822 0,-1.5786 -0.1126,-5.637 -3.3815,-8.6797 z m -31.4481,-2.7048 v 0 c -0.2259,0.7877 -0.9014,1.2399 -0.6769,2.1416 0.2248,0.1122 0.7894,0.1122 0.7894,0.6752 0,0.1122 -0.1125,0.2265 -0.3384,0.2265 l -0.3385,-0.1143 c 0,0.1143 0.1123,0.3385 0.3385,0.565 l 0.9031,0.3381 c -0.2279,-0.4507 -0.2279,-1.0153 -0.2279,-1.5783 0,-0.2262 0.1139,-1.3524 0.5646,-2.2538 z m 15.5551,2.1416 v 0 c 0,-0.7895 0.2259,-1.3539 0.3385,-2.1416 h -0.9032 c -0.2247,0.563 -0.5632,1.1262 -0.5632,1.9154 0,0.2262 0.1139,0.6766 0.2262,0.6766 0.2262,-0.3382 0.2262,-0.5644 0.4507,-0.6766 0.2245,0.1122 0.2245,0.3384 0.2245,0.6766 0,0.1128 0,0.4513 -0.2245,0.6755 l 0.7895,0.1139 c 0,-0.3381 -0.3385,-0.7894 -0.3385,-1.2398 z m -13.189,-2.1416 v 0 h -0.677 c -0.2245,0.7877 -0.449,1.5766 -0.449,2.3661 0.1123,0.2259 0.2245,0.5629 0.449,0.6772 l 0.677,-0.6772 h 0.1139 c 0,-0.7895 -0.1139,-1.4647 -0.1139,-2.3661 z m 1.2398,0 v 0 h -0.6769 c 0,0 0.3388,1.9154 0.3388,2.2538 0,0.2262 0.3381,0.563 0.5646,0.563 0.3385,0 0.5644,-0.2248 0.5644,-0.563 0,-0.3384 -0.4521,-1.3524 -0.7909,-2.2538 z m 18.3748,27.165 v 0 c -0.4524,-0.2262 -0.6769,-0.5644 -1.2399,-0.5644 0.3368,-0.1125 0.4493,-0.2248 0.6752,-0.2248 0.1123,0.1123 0.3388,0.2248 0.5647,0.1123 0.337,-0.1123 0.5629,0 0.9017,0 -0.2262,0.2247 -0.5647,0.3387 -0.9017,0.6769 z m -28.5188,-0.5644 v 0 c -0.2245,-0.2248 -0.3385,-0.4507 -0.563,-0.7895 v -0.4507 l 0.563,0.2262 z m 31.9005,-1.4647 v 0 c -0.1139,0.2245 -0.3384,0.563 -0.5632,1.014 -0.4524,0 -0.7906,-0.2248 -1.0154,-0.3388 0.3384,0 0.6769,-0.3384 0.9017,-0.6752 0.3385,0 0.563,-0.2262 0.9011,-0.5646 z m -18.5995,-5.4105 v 0 c -1.2399,0.6753 -2.2553,0.9015 -3.4951,0.9015 v 0.2245 c 0.5646,0.1142 1.0153,0.7894 1.129,1.2401 0.337,0.3382 0.6755,0.7892 0.5632,1.2399 0,0 0,0.1122 0.1123,0.2262 0,0.1122 0.1122,0.3385 0,0.3385 -0.1123,-0.2263 -0.3385,-0.2263 -0.451,-0.3385 0.2248,0.6752 0.3387,1.5783 0.1125,2.1413 0.2262,0 0.3385,0.1122 0.5647,0.1122 l 0.449,0.5647 c 0.4524,0.2248 0.2262,1.014 0.4524,1.4647 -0.2262,0.5646 -0.3384,1.0136 -0.6769,1.2398 -0.2245,0.563 -0.9017,0.3385 -1.2399,0.677 -0.6772,0.1122 -1.0153,-0.3385 -1.4646,-0.5647 -0.114,0 -0.114,-0.2245 -0.2262,-0.1123 -0.1123,-0.3384 -0.2262,-0.6752 -0.3385,-1.0136 -0.7892,0.1122 -1.5766,0 -2.1413,-0.3388 -0.3384,0.2248 -0.6769,0.2248 -1.1276,0.3388 -0.2248,0 -0.5632,0 -0.7895,0.1122 -0.2245,0.4507 -0.2245,0.9014 -0.6752,1.0137 -0.3384,0.2262 -0.3384,0.2262 -0.3384,0.4507 -0.2245,0.114 -0.563,0.2262 -0.9014,0.2262 -0.4524,0.2245 -0.7892,-0.1122 -1.2402,-0.2262 -0.114,-0.2245 -0.3382,-0.2245 -0.4504,-0.2245 -0.3388,-0.5647 -0.5647,-0.7892 -0.6769,-1.3521 0,-0.4524 0.2259,-0.6769 0.3381,-1.1279 0.2262,-0.3382 0.6752,-0.7889 1.2402,-1.0137 -0.2262,-0.5647 -0.2262,-1.8045 0,-2.3675 l -0.2262,-0.114 c 0,-0.5629 0.4524,-1.2398 0.9014,-1.8028 0.2262,0 0.2262,-0.3384 0.3385,-0.4507 0,-0.1125 0,-0.2245 0,-0.3387 -1.2399,0.1142 -2.2539,-0.2245 -3.2675,-0.7892 -0.2262,-0.112 0,-0.3368 0,-0.6752 0.5629,0.4507 1.3524,0.7891 2.0276,1.0137 0.4524,0 0.7892,0 1.1276,0 v -0.6753 c -0.9014,-0.5646 -1.8028,-0.7891 -2.5923,-1.5786 0,-0.2259 -0.1139,-0.4504 0,-0.5627 0,0 0.4507,0.3368 0.6769,0.4508 0.7878,0.5629 1.3508,1.0136 2.1416,1.3521 0.2245,-0.3385 0.3385,-0.5647 0.563,-0.7892 0.5629,0.2245 1.0136,0.4507 1.5783,0.7892 0.3385,0.1122 0.6755,0 1.014,0.2245 v 0.7892 c -0.3385,0.1139 -0.6755,0.4507 -0.5647,0.9017 -0.1108,0 -0.2245,-0.1123 -0.4493,-0.1123 0,0 -0.3384,0.1123 -0.3384,0.2259 0,0.2248 0,0.4507 0.1122,0.4507 0.451,0.3371 0.9017,0.2248 1.4661,0.2248 0.4493,0 1.5786,0 1.5786,-0.4507 0,-0.3384 0,-0.4507 -0.2262,-0.5632 -0.1123,0 -0.3385,0 -0.3385,0.1125 -0.1122,-0.451 -0.4507,-0.7894 -0.9014,-0.7894 l 0.1123,-0.4505 c 0,-0.2248 0.1136,-0.5632 0.3384,-0.5632 0.7892,-0.2262 1.4644,-0.5647 2.0291,-1.0154 0.1122,0.3385 0.3367,0.5647 0.4507,0.6769 1.2401,-0.2262 2.2555,-1.1276 3.043,-1.917 v 0.6772 c -0.7875,0.7891 -1.8029,1.2398 -2.8182,1.8028 0,0.1139 0,0.3387 0,0.5646 1.3535,-0.1139 2.4797,-0.4507 3.4951,-1.1276 z m -13.864,4.3952 v 0 c -0.2262,-0.4508 -0.2262,-0.7892 -0.3384,-1.2399 l 0.3384,-1.2399 c 0,0.6769 0.4507,1.2399 0.3385,2.2553 l 0.3384,0.4507 z m 13.6395,-0.2245 v 0 l -0.4524,-1.9168 0.6769,0.2245 0.1122,0.6769 c 0,0.3384 -0.2245,0.6769 -0.3367,1.0154 z m 1.9153,-4.2846 v 0 c 0,0.1139 0,0.4507 -0.3384,0.3387 -0.2262,0.112 -0.2262,0.4505 -0.3371,0.6767 -0.1136,-0.4508 0,-0.7892 0,-1.0154 0.2248,-0.563 0.4493,-0.7892 1.014,-0.7892 0,0.2262 -0.2262,0.5647 -0.3385,0.7892 z m -6.7646,-1.2399 v 0 c -1.0119,0.4507 -2.7042,0.6769 -4.1689,0 0,-0.5629 0.1123,-1.2401 0.4507,-1.5786 l 0.4508,0.5649 c 0,0 0,0 0,-0.2264 v -0.7872 c 0.3384,-0.2265 0.5632,-0.2265 0.7877,-0.2265 0,0.2265 0.2262,0.451 0.3385,0.5632 0,0.112 0,0.4505 0.2262,0.4505 0,-0.3385 0,-0.5627 0.2259,-0.7872 v -0.2265 c 0.3384,-0.2262 0.6772,0 0.9017,0 0,0.451 0.1122,0.6752 0.1122,1.0137 v 0.2264 c 0.2262,-0.2264 0.4507,-0.5649 0.4507,-0.7891 0.563,0.2242 0.677,1.1276 0.7892,1.578 -0.2262,0.2248 -0.3367,0.2248 -0.5647,0.2248 z m 7.1031,-0.9017 v 0 c -0.3385,0.1142 -0.5647,0 -0.9031,-0.112 0,-0.2264 0.1139,-0.2264 0.2262,-0.5649 0.1122,0 0.4507,0 0.6769,0 0.2259,0 0.4507,-0.2242 0.6752,0 -0.3384,0 -0.4493,0.3385 -0.6752,0.6769 z m 11.6101,-0.3384 v 0 c -0.2262,0.2264 -0.9014,0 -0.9014,0.4526 -0.1139,0.1123 -0.3384,0.2246 -0.6769,0 -0.3384,-0.1142 -0.7892,-0.9031 -0.5632,-1.1279 0.1125,0.1126 0.9017,0.3368 1.1262,0.3368 0.4524,0 0.9014,-0.2242 1.4663,-0.3368 -0.1125,0.2248 -0.2265,0.4508 -0.451,0.6753 z m -13.301,-0.7872 v 0 c -0.2262,-0.2265 -0.4507,-0.4527 -0.5629,-0.565 0.2245,-0.4504 0.7877,-0.2262 1.3507,-0.2262 z m -1.8028,-1.0154 v 0 c 0,0.7889 -0.6772,0.7889 -1.0154,1.1273 0.1137,-0.3384 0.1137,-0.9031 0.3382,-1.3521 0.3387,-0.2265 0.6772,-0.6769 1.2402,-0.5646 -0.3385,0.3381 -0.563,0.5646 -0.563,0.7894 z m -8.9059,0.7889 v 0 c 0.1123,-0.6769 0.3385,-1.2402 0.6752,-1.6906 l 0.114,1.1259 z m -1.1276,-0.3385 v 0 0.1123 c -0.2248,0.2262 -0.4507,0.4527 -0.7878,0.5646 0,-0.3384 0.1126,-0.7891 0.2248,-1.1273 0.2242,-0.4513 0.7892,-1.0139 1.4644,-1.1265 -0.1122,0.6752 -0.6752,1.1265 -0.9014,1.5769 z m 24.3482,0.1123 v 0 c -0.4507,0 -0.7892,-0.3385 -1.1276,-0.5627 0,-0.2248 -0.1123,-0.4513 0,-0.7894 0.3384,0.3381 0.9014,0.6769 1.2398,0.6769 0.4507,0 0.563,-0.1123 1.0154,-0.1123 0,0.3368 -0.5647,0.7875 -1.1276,0.7875 z m -9.1304,-0.5627 v 0 l -0.6769,-0.4513 c 0.5629,-0.3381 1.2398,-0.2259 1.5783,0 -0.3385,0 -0.6766,0.2265 -0.9014,0.4513 z m -6.5381,-1.1265 v 0 c 0,0.4493 -0.1123,1.014 -0.3388,1.4647 -0.2245,-0.563 -0.5629,-1.3521 0,-2.1416 0.2265,-0.3385 0.7909,-0.2245 1.1279,-0.112 -0.1125,0.2245 -0.6755,0.4507 -0.7891,0.7889 z m -10.5951,0.4493 v 0 c -0.1122,-0.1122 -0.4507,-0.3367 -0.4507,-0.563 0,-0.2245 0.1123,-0.5632 0.1123,-0.7877 0.2262,0.5632 0.6752,0.7877 1.0139,1.1262 -0.2248,0.1123 -0.4493,0.1123 -0.6755,0.2245 z m 15.5549,-0.2245 v 0 c 0,0 -0.4508,-0.3385 -0.7892,-0.3385 0.3384,-0.4507 0.9028,-0.6752 1.8045,-0.6752 l 0.449,0.112 c -0.449,0.1125 -1.0136,0.5632 -1.4643,0.9017 z m -6.6507,0.2245 v 0 c -0.2262,-0.2245 -0.4507,-0.3367 -0.6752,-0.7875 -0.114,-0.4507 0.6752,-0.5632 1.1259,-0.7894 -0.3384,0.4507 -0.3384,1.0139 -0.4507,1.5769 z m 19.6132,-0.3367 v 0 c -0.2245,0 -0.3387,-0.1126 -0.5632,-0.1126 -0.3385,0 -0.2262,0.4493 -0.563,0.4493 -0.114,0 -0.3385,-0.2245 -0.5647,-0.2245 -0.2259,0 -0.5629,-0.1122 -0.7891,-0.1122 -0.3385,0 -0.3385,-0.4508 -0.9014,-0.4508 l 0.1139,-0.9014 c 0.449,0.4507 1.4644,0.9014 1.8028,0.9014 0.563,0 1.6909,-0.3387 2.3661,-0.6772 -0.1122,0.451 -0.4507,1.128 -0.9014,1.128 z m -23.1069,0 v 0 c -0.3384,0.2245 -0.5647,0.2245 -0.7892,0.2245 0,-0.4508 0.4508,-1.014 0.9017,-1.4647 0.1123,0.4507 -0.1125,0.7894 -0.1125,1.2402 z m 1.014,-0.677 v 0 l 0.3384,-0.7891 c 0.5647,0.2259 0.5647,1.0153 0.5647,1.5783 -0.2279,-0.3385 -0.5647,-0.563 -0.9031,-0.7892 z m 16.4579,-0.5632 v 0 c -0.1125,0.2262 -0.3384,0.3387 -0.451,0.4507 -0.4524,0.1125 -0.7906,0.7895 -1.4661,0.7895 0.6755,-0.7895 1.2402,-1.4661 1.9171,-2.0294 0,0.3388 0,0.5633 0,0.7892 z m -4.3968,0.3387 v 0 c -0.1123,-0.2265 -0.1123,-0.4507 -0.1123,-0.7891 0,-0.2262 0.3382,-0.6772 0.3382,-0.6772 0.2245,0.2262 0.3388,0.3384 0.3388,0.5644 0,0.3373 -0.3388,0.6754 -0.5647,0.9019 z m -4.8478,0 v 0 c -0.2245,-0.1125 -0.6752,-0.1125 -1.0137,-0.3387 0.2262,-0.2259 0.4507,-0.4504 0.9014,-0.7892 0.3385,-0.2259 1.014,-0.2259 1.3524,-0.2259 -0.5629,0.3385 -1.0139,1.0151 -1.2401,1.3538 z m -12.5102,-0.3387 v 0 c 0,-0.4504 -0.2262,-0.9014 -0.2262,-1.4658 0,0 0.2262,0.2259 0.3388,0.3382 0.3364,0.3384 0.6752,0.9017 0.6752,1.2398 -0.3388,0.114 -0.563,0 -0.7878,-0.1122 z m 28.2912,-0.9014 v 0 c -0.3384,0.1122 -0.4507,0.451 -0.9014,0.451 -0.451,0 -0.1122,-0.2262 -0.5632,-0.2262 -0.3385,0 -0.563,0.2262 -0.9015,0.2262 -0.5629,0 -0.4521,-0.3388 -1.5783,-0.3388 0,-0.3384 0,-0.6766 0,-0.9011 0.2245,-0.1125 0.3385,-0.1125 0.563,-0.1125 0.3384,0 0.7891,0.2242 0.7891,0.6752 0,0.2262 0.4507,-0.1123 0.6772,0 0,0 0.2243,0.2262 0.4505,0.2262 0.3387,0 0.2245,-0.3385 0.451,-0.5644 0,-0.2245 0.6752,-0.451 1.2398,-0.451 0,0.451 -0.2262,0.7892 -0.2262,1.0154 z m -16.9069,-0.5644 v 0 l -0.3385,0.5644 h -0.2245 c -0.3385,-0.1137 -0.7909,-0.1137 -1.3538,-0.2262 0.7891,-0.5627 1.5783,-1.1276 2.5937,-0.9014 h 0.2245 c -0.2245,0.2262 -0.6769,0.5632 -0.9014,0.5632 z m -9.9199,0.4507 v 0 c -0.2242,-0.4507 -0.6766,-1.2401 -1.4644,-1.4647 0.449,0 1.014,-0.2259 1.4644,0.2246 l 0.451,1.2401 c -0.2262,0 -0.2262,0.1137 -0.451,0 z m 17.3594,-0.7877 v 0 c 0,0.337 0,0.5629 0,0.6752 -0.2259,0 -0.3385,0.1125 -0.3385,0.1125 0,0 -0.2242,-0.5635 -0.2242,-1.0139 0.1106,-0.3385 0.5627,-0.6767 0.5627,-0.6767 0,0 0.2248,0 0.3384,0.2259 0.1109,0.2246 -0.1136,0.4508 -0.3384,0.677 z m -10.372,0 v 0 c -0.1105,0 -0.2245,0.1125 -0.2245,0.337 l -1.3521,0.3382 c 0,-0.1123 0,-0.3382 0.1122,-0.3382 0.563,-0.337 0.563,-1.014 1.2399,-1.2399 0.2245,0 0.7895,0 1.0154,0.2259 -0.2259,0.2246 -0.4521,0.4508 -0.7909,0.677 z m -4.8458,0.5629 v 0 l -0.7892,-0.7891 c -0.3367,-0.1123 -0.5629,-0.2262 -0.7891,-0.4508 0.4524,-0.2259 0.9014,0 1.2398,0 0.4507,0.2246 0.677,0.677 1.0154,1.2399 z m 17.2454,-1.4658 v 0 c 0,0 0,0.3382 0.2265,0.3382 0,0.2262 0.2259,0.2262 0.2259,0.2262 -0.4524,0.451 -0.4524,1.2399 -1.0153,1.2399 -0.2246,0.2248 -0.3385,0.3382 -0.3385,0.5629 -0.3385,0.2265 -0.7878,0.3385 -1.1262,0.3385 0.3384,-0.2259 0.6769,-0.4504 0.7877,-0.7892 0.3385,-0.7894 0.7909,-1.3521 1.0154,-2.1413 0.2245,-0.4507 0.2245,-1.0139 0.451,-1.4663 0,-0.3382 0,-0.563 0.2259,-0.563 0,0.563 0.1126,1.2402 0.1126,1.8028 -0.1126,0.2265 -0.3385,0.3388 -0.565,0.4513 z m -16.0055,0.5644 v 0 c -0.1137,-0.3385 -0.3382,-0.7892 -0.563,-1.0157 -0.2262,-0.2242 -0.4524,-0.3381 -0.5647,-0.5626 0.5647,0.2245 1.014,0.3384 1.3525,0.4507 0.4521,0.5632 0.6769,0.7891 0.7905,1.2399 -0.3384,0 -0.5643,0 -1.0153,-0.1123 z m 22.4317,-0.3385 v 0 c 0,0.3385 -0.6772,0.3385 -1.3525,0.3385 -0.2262,0 -0.9014,-0.3385 -1.1276,-0.3385 0.1123,-0.3384 0.3385,-0.6772 0.3385,-0.6772 0.5629,0.1143 0.7891,0.2265 1.1276,0.2265 0.4493,0 0.6752,-0.1122 0.6752,-0.4507 0,-0.2262 0.5647,-0.3384 0.7895,-0.3384 0,0.7891 -0.4507,1.0139 -0.4507,1.2398 z m -4.9601,0 v 0 c 0,0.2246 -0.2262,0.2246 -0.4507,0.2246 l -0.2245,-0.2246 h 0.1125 c 0.3365,-0.5629 0.5627,-1.0153 0.7889,-1.5783 -0.114,0.3385 0.1122,0.6769 0.1122,1.0154 0,0.2245 -0.2262,0.4507 -0.3384,0.5629 z m -4.2843,-1.8031 v 0 c 0.114,0.2248 0.114,0.451 0.114,0.5633 0,0.5626 -0.3388,0.7891 -0.3388,0.6769 -0.2245,-0.2262 -0.5627,-0.4524 -0.5627,-0.9017 0,-0.3385 0.5627,-0.5647 0.5627,-0.5647 0.1143,-0.2259 -0.1122,-0.2259 -0.1122,-0.4507 0.337,-0.3384 0.5649,-0.6766 0.5649,-1.3521 0,0.5629 0.2242,1.0137 0.2242,1.5769 0,0.2259 -0.5626,0.2259 -0.4521,0.4521 z m 9.2444,-0.1139 v 0 c -0.3388,0 -0.451,0.2262 -0.7895,0.3387 -0.563,0.1137 -0.3385,0.3385 -1.0151,0.3385 -0.337,-0.2248 -0.4493,-0.451 -0.4493,-0.6772 0,0 0,-0.563 0,-0.675 0.3385,0.112 0.4493,0.5627 0.7875,0.5627 1.2399,0 0.9017,-1.1273 1.4664,-1.1273 z m -19.3887,0.2262 v 0 c -0.2245,0 -0.3385,-0.1123 -0.677,-0.1123 0,0 0,-0.2262 0.114,-0.4521 0.2245,-0.2248 0.7892,-0.4493 0.9014,-0.4493 h 0.114 z m 5.4121,-0.3385 v 0 c -0.2259,0 -0.5646,0 -0.6769,0.1123 -0.5629,0.6772 -1.0153,-0.563 -1.5783,-0.3382 -0.2245,-0.2248 -0.563,-0.4493 -0.563,-0.6752 l 0.1123,-0.1128 c 0.3385,0.1128 0.6752,0.2248 0.9014,0.4512 0.5647,0.112 1.0137,-0.4512 1.3524,-0.1125 0.2262,0.1125 0.3385,-0.1139 0.4521,-0.1139 0.2248,-0.3382 0.5633,-0.3382 1.014,-0.3382 -0.3385,0.3382 -0.4507,0.9014 -1.014,1.1273 z m 6.8752,-0.7891 v 0 c 0.1123,0.3384 0,0.9014 -0.1123,1.1276 0,0.3387 0.1123,0.7894 -0.1139,1.1279 -0.1123,-0.3385 -0.7878,-0.4524 -0.7878,-1.0154 0,-0.2248 0.3385,-0.3387 0.3385,-0.6769 0,-0.2248 -0.1137,-0.5632 -0.1137,-0.788 0,-0.226 0.3385,-0.1134 0.4507,-0.1134 0.3385,0 0.2262,-0.9017 0,-1.3524 0.2262,0.3387 0.7892,0.9014 0.7892,1.3524 0,0.2262 -0.4507,0 -0.4507,0.3382 z m -14.4286,0.5632 v 0 c -0.4507,0 -0.9017,0 -1.2399,0 l 0.4507,-0.6752 c 0.3385,-0.1128 0.6769,-0.1128 1.0137,0.112 z m -4.0584,-0.4493 v 0 c 0,0.1125 0,0.1125 0,0.2245 -0.2248,0.2248 -0.6752,0.4507 -0.9014,0.6769 -0.3388,0.5633 -1.014,0.3385 -1.6892,0.5633 l -0.6769,-0.7895 v -0.2259 c 0.4507,0.2259 0.9014,0.2259 1.2399,0.2259 0.3384,-0.2259 0.5632,0 0.7874,-0.2259 0.114,-0.3368 0.3388,-0.5632 0.6772,-0.788 0.563,0 0.9015,-0.5644 1.1277,-1.2396 0,0 0.1122,1.1262 0.1122,1.3524 -0.2245,0.112 -0.5629,0.112 -0.6769,0.2259 z m 24.9112,-0.7892 v 0 c -0.3368,0 -0.6753,0.4505 -1.0137,0.3371 -0.2245,0.1134 -0.563,-0.1126 -0.7892,-0.1126 0,-0.2245 -0.2262,-0.2245 -0.1122,-0.7891 0.4507,0 1.1259,0.3384 1.4643,-0.112 0.114,-0.1125 0.114,-0.7894 0.7892,-0.902 0,0.451 0.1123,0.5633 0.1123,0.902 -0.1123,0.112 -0.2245,0.4504 -0.4507,0.6766 z m -12.1731,-0.7891 v 0 c -0.7892,0.7891 -1.8032,0.7891 -2.8185,0.7891 -0.2245,0 -0.563,0 -0.7875,0 -0.3385,0 -0.5647,-0.3384 -0.9017,-0.3384 l -0.4521,-1.0154 c 0.5629,0.5647 1.1276,0.5647 1.5783,0.7892 0.2245,-0.112 0.1123,-0.2245 0.2245,-0.2245 0.3385,0 0.7909,0 1.1276,0.1125 0.3385,0 0.6772,0 1.014,-0.1125 0.2262,-0.4507 0.6769,-0.4507 1.129,-0.6769 z m 14.6531,0.5629 v 0 c -0.2262,-0.3384 -0.2262,-0.7891 -0.563,-1.0136 l 0.6755,-0.6769 c 0.2259,0.3381 0.2259,0.5629 0.2259,1.0136 0,0.114 -0.2259,0.6769 -0.3384,0.6769 z m -27.7296,-1.1276 v 0 c -0.1106,0.114 -0.3368,0.3385 -0.2246,0.5647 -0.3384,0.2245 -0.6772,0.3384 -1.0136,0.7891 -0.3388,0.1123 -0.451,0.4505 -0.7895,0.4505 -0.2245,0.2248 -0.5629,0.2248 -0.9014,0.2248 -0.4524,0 -0.4524,-0.4508 -0.6769,-0.6753 0,0 0,-0.2262 0.114,-0.3384 0.3367,0.1122 0.5629,0.3384 1.0136,0.3384 0.3368,-0.4507 0.6755,-0.6766 1.1276,-1.0153 0,0 1.014,-0.3385 1.1262,-0.4507 0.114,-0.1126 -0.1122,-0.226 -0.1122,-0.3385 0.3368,-0.2245 0.1122,-0.7894 0.3368,-1.0137 l 0.5646,0.563 c -0.2262,0.4507 0,0.9014 -0.5646,0.9014 z m 14.8796,0.3385 v 0 c 0,0.4507 -0.5633,0.9014 -0.9017,1.3524 v -0.3371 c 0.2262,-0.7891 0.6769,-1.5786 0.4507,-2.5939 0.1122,0 0.2262,-0.2243 0.451,-0.4505 0.1136,0.5644 0,1.2399 0,2.0291 z m 9.4685,-0.9014 v 0 c -0.2259,0.1122 -0.4507,0 -0.6752,0.1122 0.1123,0.2259 0.1123,0.3385 0.1123,0.4507 -0.2262,0 -0.3385,0.114 -0.5647,0.3385 -0.2245,0 -0.2245,0 -0.3384,-0.2245 l -0.7878,-0.6769 c 0.451,0 0.3385,0.2247 0.9017,0.2247 0.2245,0 0.3385,-0.4512 0.3385,-0.6755 0.5629,0 0.9014,-0.2264 1.2398,-0.4507 l 0.2245,0.2243 c 0,0.3387 -0.2245,0.5649 -0.4507,0.6772 z m -25.2499,-0.9015 v 0 l -0.9011,0.3382 c -0.1122,0.2248 -0.1122,0.3368 -0.1122,0.5633 0,0.4507 -0.5633,0.4507 -0.9017,0.6769 l -0.4507,0.2245 h -0.563 c -0.2262,-0.2245 -0.3387,-0.4507 -0.3387,-0.6767 0.3387,-0.1125 0.3387,0.1134 0.5632,0 0.4507,-0.2247 1.2399,-0.337 2.029,-1.1262 l 0.5633,-1.4663 0.2259,0.7891 z m 28.0684,-0.1139 v 0 c 0,0.1139 0,0.3382 0,0.4521 0,0.451 -0.2262,0.6755 -0.5646,0.788 l -0.3368,-0.5632 c 0.3368,-0.7892 0.9014,-1.014 0.9014,-1.4647 0,0.1126 0.1123,0.2245 0.3368,0.4507 0,0.2248 -0.3368,0.2248 -0.3368,0.3371 z m -13.7517,0 v 0 c 0,0.3382 -0.1139,0.6769 -0.4507,0.9031 -0.6769,0.2245 -1.2399,0.563 -2.0293,0.563 l -0.6769,-0.1126 c -0.3385,-0.1134 -0.7875,0 -1.126,-0.2259 l -0.3387,-0.7894 c 0.3387,0.3387 0.9017,0 1.3524,0.3387 0.2262,0.2262 0.2262,-0.2248 0.4507,-0.3387 0.3385,-0.2243 0.4507,-0.9015 0.9017,-0.6753 0.6769,-0.3381 0.563,-1.0153 0.563,-1.5783 l 0.5646,0.3382 c -0.1122,0.2248 0,0.5632 -0.1122,0.7894 -0.2262,0.4507 -0.4524,0.4507 -0.7892,0.6755 0.3368,0.4505 -0.2262,0.5644 -0.3387,0.7892 h 0.7894 c 0.3385,-0.2248 0.4507,-0.4507 0.4507,-0.7892 0.6753,0 0.7892,-0.7894 1.0137,-1.2401 0.114,0.3384 0.2262,0.6772 0.3385,1.0153 0,0.2248 -0.3385,0.2248 -0.563,0.3371 z m -2.5923,-0.7878 v 0 c -0.1122,0.1126 -0.4507,0 -0.5646,0.1126 0,0.3381 -0.2245,0.3381 -0.3385,0.5629 -0.2245,0.1123 -0.449,0 -0.449,0 l -0.2262,-0.2248 c 0.2262,0 0.4507,-0.4507 0.9014,-0.4507 0.4507,-0.1139 0.2262,-0.7894 0.5647,-1.1276 l 0.2245,0.3382 c 0.1122,0.2248 0,0.5632 -0.1123,0.7894 z m -14.8793,0.4507 v 0 l 0.3384,0.451 -0.4509,0.1123 c -0.563,-0.1123 -0.7906,-0.1123 -1.2399,-0.5633 -0.6767,-0.6769 -0.6767,-2.2555 -0.6767,-2.9307 v -0.1137 c 0.2243,0.4522 0.6767,1.0154 0.9015,1.4661 0.1139,0.3382 0.1139,0.563 0.3384,0.6752 0.4507,0 0.7892,-0.337 0.7892,-0.337 -0.1125,-0.5644 -0.2262,-1.0154 -0.2262,-1.5781 0,0 1.1276,1.0137 1.1276,1.8029 0,0.4507 -0.563,0.7891 -0.9014,1.0153 z m -2.7062,0 v 0 c 0,0.3371 0,0.6753 0.3384,0.7892 l -1.0154,-0.1139 c -0.2245,-0.2243 -0.449,-0.6753 -0.5629,-1.0134 -0.2245,-0.4507 -0.3385,-1.014 -0.3385,-1.5786 0,-0.3388 0,-1.014 0.2262,-1.3524 0.2262,0.2247 0.4507,0.3384 0.6752,0.4509 -0.3367,1.1277 -0.2245,1.3522 0.114,2.0294 0.451,0 0.6769,-0.4513 0.7892,-0.7895 0.2262,0.3382 0.337,0.6752 0.337,1.0137 0,0.4507 -0.4493,0.5646 -0.5632,0.5646 z m -2.2539,-0.2262 v 0 l -0.9014,-1.0139 v -1.3521 c 0.2262,-0.3385 0.5633,-0.6769 0.6755,-0.6769 0,0 0.114,0.3384 0.114,0.4509 0,0.5627 -0.2262,1.0137 0,1.5781 0.2245,0 0.4507,-0.3382 0.5629,-0.3382 0.2245,0.563 0,1.0137 -0.451,1.3521 z m 9.0168,23.2209 v 0 c -0.3368,0.563 -0.9018,0 -1.126,0.7875 0.1123,0.5646 0.2242,1.3538 1.0154,1.466 h 0.2242 c 0.5633,-0.2262 1.5786,-0.3384 1.5786,-1.2398 -0.3384,-0.1126 -1.3538,-0.6755 -1.6922,-1.0137 z m 8.9058,-0.451 v 0 h -0.2262 c -0.2245,0.563 -0.9017,1.2385 -1.5786,1.4647 0,0.5646 0.2279,0.7891 0.565,1.0136 l 0.6769,0.2262 c 0.4504,-0.2262 0.7891,-0.4507 1.1276,-0.6752 0.2245,-0.5646 0.2245,-1.2401 0,-1.8045 0,-0.2248 -0.3385,0 -0.5647,-0.2248 z m -3.1552,-0.2259 v 0 c -0.3385,0 -0.114,0.6769 -0.5647,0.6769 -0.1122,0 -0.2262,0 -0.1122,0.112 0.1122,0.2262 0.3384,0 0.5629,0 0.3385,0.2262 0.3385,-0.4507 0.7892,-0.4507 0.1123,-0.1123 0.1123,-0.1123 0.1123,-0.3382 -0.2245,0 -0.563,0 -0.7875,0 z m -2.8185,0 v 0 h -0.9014 c 0,0.2259 0.2245,0.4507 0.563,0.5629 0.3384,0.114 0.7877,0.4522 1.0139,0.226 -0.2262,-0.226 -0.4507,-0.563 -0.6755,-0.7889 z m -0.3384,-3.4937 v 0 c -0.3385,-0.3385 -0.563,-0.5647 -0.563,-0.7895 -0.3385,-0.2259 -0.6769,-0.2259 -0.9014,-0.4507 -0.2262,0.2248 0,0.7878 0.1105,0.9017 0.3385,0.3385 0.9031,0.3385 1.0154,0.9014 0,0.3385 0,0.677 0,1.1277 0,0.2245 -0.1123,-0.114 -0.3385,0 -0.2245,-0.114 -0.4507,-0.114 -0.5629,0 -0.2245,0.1122 -0.4507,0.2245 -0.4507,0.5629 -0.2262,0 -0.5647,0.2262 -0.5647,0.4507 h 0.2262 c 0.6752,0 1.2399,0 1.9151,0 0.2262,-0.1122 0.4524,-0.2245 0.4524,-0.4507 0,-0.7891 -0.3384,-1.5783 -0.3384,-2.2535 z m 4.9597,2.2535 v 0 c -0.2245,0 -0.2245,-0.4507 -0.4524,-0.5629 -0.2245,-0.2262 -0.5629,-0.114 -0.9014,-0.114 -0.2245,0.114 -0.3385,0.2262 -0.3385,0.3385 l -0.1105,-0.1123 c 0.1105,-0.3384 0.1105,-0.9014 0.1105,-1.3521 l 0.5647,-0.2262 c 0,-0.7892 0.6752,-0.563 1.1276,-0.9014 -0.1136,-0.3385 -0.2245,-0.5633 -0.4524,-0.6769 -0.2245,0.3384 -0.5629,0.3384 -0.9014,0.5643 0,0.451 -0.449,0.7895 -0.7875,0.7895 0,0.7874 0,1.5766 -0.2262,2.2535 h 0.2262 c 0.1123,0.3385 0.449,0.3385 0.677,0.4507 l 1.9153,-0.1122 c 0.1123,-0.1123 0,-0.1123 0,-0.1123 -0.1125,-0.2262 -0.3384,-0.2262 -0.451,-0.2262 z m -6.1996,-4.9595 v 0 c -0.2245,0.112 -0.114,0.4505 -0.114,0.4505 0.4524,0 0.7909,0.2262 1.0154,0 -0.1123,0 -0.563,-0.2246 -0.9014,-0.4505 z m 4.5073,0.2259 v 0 l 0.114,0.2246 h 0.9014 v -0.563 z"
         style="fill:#f47216 icc-color(ISO-Coated-v2-ECI, 0, 0.59999084, 1, 0);fill-opacity:1;fill-rule:evenodd;stroke:none"
         transform="matrix(1.3333333,0,0,-1.3333333,0,1783.9371)" />
    </g>
  </g>
</svg>
