<?xml version="1.0" encoding="UTF-8" standalone="no"?>
<!-- Created with Inkscape (http://www.inkscape.org/) -->

<svg
   width="75.907013mm"
   height="16.152599mm"
   viewBox="0 0 75.907013 16.152599"
   version="1.1"
   id="svg1"
   inkscape:version="1.3 (0e150ed6c4, 2023-07-21)"
   sodipodi:docname="banka-ziraat.svg"
   xmlns:inkscape="http://www.inkscape.org/namespaces/inkscape"
   xmlns:sodipodi="http://sodipodi.sourceforge.net/DTD/sodipodi-0.dtd"
   xmlns="http://www.w3.org/2000/svg"
   xmlns:svg="http://www.w3.org/2000/svg">
  <sodipodi:namedview
     id="namedview1"
     pagecolor="#505050"
     bordercolor="#eeeeee"
     borderopacity="1"
     inkscape:showpageshadow="0"
     inkscape:pageopacity="0"
     inkscape:pagecheckerboard="0"
     inkscape:deskcolor="#d1d1d1"
     inkscape:document-units="mm"
     inkscape:zoom="0.74564394"
     inkscape:cx="-256.82499"
     inkscape:cy="236.70815"
     inkscape:window-width="1920"
     inkscape:window-height="1051"
     inkscape:window-x="-9"
     inkscape:window-y="-9"
     inkscape:window-maximized="1"
     inkscape:current-layer="layer1" />
  <defs
     id="defs1" />
  <g
     inkscape:label="Layer 1"
     inkscape:groupmode="layer"
     id="layer1"
     transform="translate(-172.77292,-85.725)">
    <g
       id="g4"
       transform="matrix(0.26458333,0,0,0.26458333,47.232327,14.20278)">
      <path
         id="path1"
         d="m 373.0476,1125.0692 -3.3262,-2.6241 -2.2178,-1.7365 v -7.9636 l 1.146,0.8855 v -3.6949 l -1.146,-0.8867 v -7.964 l 1.146,0.9043 v -3.6941 l -1.146,-0.9054 v -7.9639 l 2.2178,1.7365 3.3262,2.624 4.4161,3.4549 v 13.3594 c 0,0.5536 -0.4255,1.1466 -0.8507,1.4238 0.703,0.572 0.8507,1.1815 0.8507,1.8473 v 6.6895 7.964 z m 2.8457,-20.2879 v 0 c 0,-0.7033 -0.277,-1.0176 -0.8873,-1.4981 l -1.9584,-1.5332 -2.8276,-2.2363 v 3.6952 l 2.8276,2.2354 1.6996,1.3125 c 0.5724,0.462 1.1461,0.3515 1.1461,-0.2764 z m 0,11.6578 v 0 c 0,-0.7022 -0.277,-1.0154 -0.8873,-1.4961 l -1.9584,-1.5341 -2.8276,-2.234 v 3.6929 l 2.8276,2.2374 1.6996,1.3116 c 0.5724,0.4629 1.1461,0.3504 1.1461,-0.2775 z"
         style="fill:#ed1c24 icc-color(ISO-Coated-v2-ECI, 0, 1, 1, 0);fill-opacity:1;fill-rule:evenodd;stroke:none"
         transform="matrix(1.3333333,0,0,-1.3333333,0,1783.9371)" />
      <path
         id="path2"
         d="m 371.92,1126.531 v 2.8437 l -2.1986,-1.7569 -0.6466,-0.5165 v 2.9756 l 0.6466,0.5176 2.1986,1.7733 v 2.8449 l -2.1986,-1.7725 -2.2178,-1.7745 v -8.6845 l 2.2178,1.7733 z"
         style="fill:#ed1c24 icc-color(ISO-Coated-v2-ECI, 0, 1, 1, 0);fill-opacity:1;fill-rule:evenodd;stroke:none"
         transform="matrix(1.3333333,0,0,-1.3333333,0,1783.9371)" />
      <path
         id="path3"
         d="m 361.4063,1135.2127 v -2.8449 l 1.4224,-1.1463 v -3.1221 l -0.5545,0.4433 v -2.8457 l 1.3306,-1.0899 1.349,-1.0899 v 2.8457 l -0.5731,0.4612 v 3.1416 l 1.4232,-1.1466 v 2.8466 l -2.1991,1.7745 z"
         style="fill:#ed1c24 icc-color(ISO-Coated-v2-ECI, 0, 1, 1, 0);fill-opacity:1;fill-rule:evenodd;stroke:none"
         transform="matrix(1.3333333,0,0,-1.3333333,0,1783.9371)" />
      <path
         id="path4"
         d="m 355.8631,1128.5252 v -7.964 l 7.7417,-6.0976 0.9241,-0.7217 -0.9241,-0.9238 -1.1452,-1.1276 -6.5965,5.1735 v -7.9637 l 2.1059,-1.6435 -2.1059,-2.0517 v -7.9639 l 7.7417,-6.0789 2.1991,-1.7365 v 7.9639 l -2.1991,1.7362 -6.4488,5.0803 2.0889,2.0517 4.3599,-3.4356 2.1991,-1.7374 v 7.964 l -2.0693,1.6444 2.0693,2.0517 v 7.9636 l -2.1991,1.7365 z"
         style="fill:#ed1c24 icc-color(ISO-Coated-v2-ECI, 0, 1, 1, 0);fill-opacity:1;fill-rule:evenodd;stroke:none"
         transform="matrix(1.3333333,0,0,-1.3333333,0,1783.9371)" />
      <path
         id="path5"
         d="m 390.0779,1124.6383 -1.1348,-4.0918 h 10.0625 l -11.0078,-18.0182 v -3.9033 h 15.4023 l 1.5585,3.9033 h -11.0078 l 11.0549,18.0652 v 4.0448 z"
         style="fill:#231f20 icc-color(ISO-Coated-v2-ECI, 0, 0, 0, 1);fill-opacity:1;fill-rule:nonzero;stroke:none"
         transform="matrix(1.3333333,0,0,-1.3333333,0,1783.9371)" />
      <path
         id="path6"
         d="m 408.9665,1119.0467 c 1.4023,0 2.539,1.1367 2.539,2.5401 0,1.4023 -1.1367,2.539 -2.539,2.539 -1.4043,0 -2.541,-1.1367 -2.541,-2.539 0,-1.4034 1.1367,-2.5401 2.541,-2.5401"
         style="fill:#231f20 icc-color(ISO-Coated-v2-ECI, 0, 0, 0, 1);fill-opacity:1;fill-rule:nonzero;stroke:none"
         transform="matrix(1.3333333,0,0,-1.3333333,0,1783.9371)" />
      <path
         id="path7"
         d="m 406.9783,1098.6378 h 4.0742 v 18.9567 h -4.0742 z"
         style="fill:#231f20 icc-color(ISO-Coated-v2-ECI, 0, 0, 0, 1);fill-opacity:1;fill-rule:nonzero;stroke:none"
         transform="matrix(1.3333333,0,0,-1.3333333,0,1783.9371)" />
      <path
         id="path8"
         d="m 567.9856,1098.6378 h 3.047 v 18.9567 h -3.047 z"
         style="fill:#231f20 icc-color(ISO-Coated-v2-ECI, 0, 0, 0, 1);fill-opacity:1;fill-rule:nonzero;stroke:none"
         transform="matrix(1.3333333,0,0,-1.3333333,0,1783.9371)" />
      <path
         id="path9"
         d="m 414.6812,1098.6729 v 18.8504 h 3.3868 v -2.1262 c 0,0 1.1486,1.2756 2.793,1.7002 1.6446,0.426 3.0605,0.058 3.0605,0.058 v -3.628 h -2.664 c -1.0763,0 -3.0605,-1.4743 -3.0605,-2.8922 v -11.962 h -3.5158 z"
         style="fill:#231f20 icc-color(ISO-Coated-v2-ECI, 0, 0, 0, 1);fill-opacity:1;fill-rule:nonzero;stroke:none"
         transform="matrix(1.3333333,0,0,-1.3333333,0,1783.9371)" />
      <path
         id="path10"
         d="m 433.4471,1103.4913 c 0,-0.7373 -1.0392,-1.9367 -3.3069,-1.9367 -2.2674,0 -3.0427,1.6076 -3.0427,2.6465 0,1.0383 0.822,3.4248 3.2539,3.4248 2.1736,0 3.0957,0.024 3.0957,0.024 v -4.1581 z m 4.3651,-4.8614 v 0 13.0115 c 0,5.0877 -3.3027,6.4775 -5.7833,6.4775 -2.4803,0 -5.1015,-0.6659 -5.1015,-0.6659 l -0.9218,-3.8137 c 0,0 3.1192,0.9074 5.004,0.9074 1.8847,0 2.5506,-1.4746 2.5506,-2.211 v -1.8278 c 0,0 -3.3027,0.1278 -5.7266,-0.6095 -2.4236,-0.7361 -4.8183,-2.3252 -4.8183,-6.5772 0,-4.2517 3.748,-5.046 6.1016,-5.046 2.3516,0 3.9061,1.2484 3.9061,1.2484 h 0.7073 v -0.8937 z"
         style="fill:#231f20 icc-color(ISO-Coated-v2-ECI, 0, 0, 0, 1);fill-opacity:1;fill-rule:nonzero;stroke:none"
         transform="matrix(1.3333333,0,0,-1.3333333,0,1783.9371)" />
      <path
         id="path11"
         d="m 449.445,1103.4913 c 0,-0.7373 -1.0389,-1.9367 -3.3066,-1.9367 -2.2675,0 -3.043,1.6076 -3.043,2.6465 0,1.0383 0.8243,3.4248 3.2558,3.4248 2.1719,0 3.0938,0.024 3.0938,0.024 v -4.1581 z m 4.3653,-4.8614 v 0 13.0115 c 0,5.0877 -3.3009,6.4775 -5.7832,6.4775 -2.4786,0 -5.1015,-0.6659 -5.1015,-0.6659 l -0.9199,-3.8137 c 0,0 3.117,0.9074 5.0018,0.9074 1.8847,0 2.5509,-1.4746 2.5509,-2.211 v -1.8278 c 0,0 -3.301,0.1278 -5.7246,-0.6095 -2.4259,-0.7361 -4.8203,-2.3252 -4.8203,-6.5772 0,-4.2517 3.7499,-5.046 6.1013,-5.046 2.3536,0 3.9064,1.2484 3.9064,1.2484 h 0.707 v -0.8937 z"
         style="fill:#231f20 icc-color(ISO-Coated-v2-ECI, 0, 0, 0, 1);fill-opacity:1;fill-rule:nonzero;stroke:none"
         transform="matrix(1.3333333,0,0,-1.3333333,0,1783.9371)" />
      <path
         id="path12"
         d="m 457.1169,1122.5543 h 3.9394 v -5.1013 h 4.5348 l -1.0193,-2.9063 h -3.4589 v -10.8845 c 0,-1.417 0.256,-2.2255 1.6016,-2.2255 h 2.3378 v -2.7638 h -4.1797 c -1.1345,0 -3.8982,0.7804 -3.8982,3.6854 v 12.2595 h -1.9143 v 2.9055 h 2.0568 z"
         style="fill:#231f20 icc-color(ISO-Coated-v2-ECI, 0, 0, 0, 1);fill-opacity:1;fill-rule:nonzero;stroke:none"
         transform="matrix(1.3333333,0,0,-1.3333333,0,1783.9371)" />
      <path
         id="path13"
         d="m 484.7182,1117.6296 c 0,-3.1532 -2.7638,-4.0039 -4.0743,-4.0039 h -5.2089 v 7.9364 h 4.9238 c 1.3827,0 4.3594,-0.7792 4.3594,-3.9325 z m -9.3887,-6.9939 v 0 h 6.5039 c 2.3536,0 4.0821,-2.126 4.0821,-4.9042 0,-2.7782 -2.4375,-4.1173 -4.7619,-4.1173 h -5.8241 z m 12.6134,7.9509 v 0 c 0,3.6845 -3.8418,5.8819 -7.795,5.8819 h -8.1505 v -25.8659 h 11.0001 c 1.7558,0 6.0801,2.3378 6.0801,7.4413 0,5.1018 -4.6778,6.4479 -4.6778,6.4479 0,0 3.5431,2.4092 3.5431,6.0948"
         style="fill:#231f20 icc-color(ISO-Coated-v2-ECI, 0, 0, 0, 1);fill-opacity:1;fill-rule:nonzero;stroke:none"
         transform="matrix(1.3333333,0,0,-1.3333333,0,1783.9371)" />
      <path
         id="path14"
         d="m 500.9117,1105.4767 c 0,-2.297 -1.0392,-4.9405 -4.4884,-4.9405 -3.4492,0 -3.545,2.2002 -3.545,3.8534 0,1.6534 1.0899,4.1573 4.9141,4.1573 h 3.1193 z m 3.1169,-7.13 v 0 14.1451 c 0,3.4719 -2.906,5.5508 -5.7637,5.5508 -2.8573,0 -5.953,-1.417 -5.953,-1.417 l -0.3299,-2.8582 c 0,0 1.9159,1.0625 4.6777,1.5829 2.8066,0.5275 4.2987,-1.0868 4.2987,-2.3349 v -2.5084 h -4.371 c -3.8242,0 -6.59,-2.6915 -6.59,-6.59 0,-4.6258 4.248,-5.5703 6.6328,-5.5703 2.3868,0 4.5646,1.461 4.5646,1.461 v -1.461 z"
         style="fill:#231f20 icc-color(ISO-Coated-v2-ECI, 0, 0, 0, 1);fill-opacity:1;fill-rule:nonzero;stroke:none"
         transform="matrix(1.3333333,0,0,-1.3333333,0,1783.9371)" />
      <path
         id="path15"
         d="m 547.9934,1105.4767 c 0,-2.297 -1.0389,-4.9405 -4.4881,-4.9405 -3.4492,0 -3.545,2.2002 -3.545,3.8534 0,1.6534 1.088,4.1573 4.9142,4.1573 h 3.1189 z m 3.1173,-7.13 v 0 14.1451 c 0,3.4719 -2.9061,5.5508 -5.7637,5.5508 -2.8573,0 -5.953,-1.417 -5.953,-1.417 l -0.33,-2.8582 c 0,0 1.9159,1.0625 4.6777,1.5829 2.8066,0.5275 4.2988,-1.0868 4.2988,-2.3349 v -2.5084 h -4.3711 c -3.8262,0 -6.5899,-2.6915 -6.5899,-6.59 0,-4.6258 4.248,-5.5703 6.6328,-5.5703 2.3867,0 4.5643,1.461 4.5643,1.461 v -1.461 z"
         style="fill:#231f20 icc-color(ISO-Coated-v2-ECI, 0, 0, 0, 1);fill-opacity:1;fill-rule:nonzero;stroke:none"
         transform="matrix(1.3333333,0,0,-1.3333333,0,1783.9371)" />
      <path
         id="path16"
         d="m 506.0132,1098.5596 h 3.2323 v 12.9835 c 0,1.1891 2.2051,3.0603 4.7052,3.0603 2.494,0 2.5507,-1.6436 2.5507,-2.5506 v -13.4932 h 3.4024 v 14.6834 c 0,1.6387 -1.8887,4.7568 -5.3867,4.8759 -3.3497,0.1134 -5.4434,-2.4384 -5.4434,-2.4384 v 2.4951 l -3.0605,-0.6455 z"
         style="fill:#231f20 icc-color(ISO-Coated-v2-ECI, 0, 0, 0, 1);fill-opacity:1;fill-rule:nonzero;stroke:none"
         transform="matrix(1.3333333,0,0,-1.3333333,0,1783.9371)" />
      <path
         id="path17"
         d="m 522.0071,1124.5252 h 3.6232 v -13.9462 h 0.7362 l 6.2365,7.9365 h 4.5918 l -8.1076,-8.9295 8.9572,-10.8 h -4.959 l -6.7189,9.8655 h -0.7948 v -10.0352 h -3.5703 l 0.006,25.9089 z"
         style="fill:#231f20 icc-color(ISO-Coated-v2-ECI, 0, 0, 0, 1);fill-opacity:1;fill-rule:nonzero;stroke:none"
         transform="matrix(1.3333333,0,0,-1.3333333,0,1783.9371)" />
      <path
         id="path18"
         d="m 564.4077,1114.2204 0.6834,2.2774 c 0,0 -2.4783,1.3563 -5.4082,1.3563 -2.9296,0 -5.9998,-1.8425 -5.9998,-5.0555 0,-3.2126 1.9843,-5.1492 5.3867,-5.952 3.4004,-0.8036 4.0623,-1.8436 4.0623,-2.8349 0,-0.9921 -0.9941,-2.787 -3.8749,-2.787 -2.8809,0 -5.1015,1.4913 -5.1015,1.4913 l -0.9454,-2.5305 c 0,0 2.7403,-1.6543 6.4239,-1.6543 3.6876,0 6.5684,3.1184 6.5684,5.9063 0,2.7873 -3.0234,4.7236 -5.5743,5.2441 -2.5526,0.5187 -3.6853,1.6055 -3.6853,3.1649 0,1.5584 1.8416,2.3144 3.5427,2.3144 1.7014,0 3.922,-0.9405 3.922,-0.9405"
         style="fill:#231f20 icc-color(ISO-Coated-v2-ECI, 0, 0, 0, 1);fill-opacity:1;fill-rule:nonzero;stroke:none"
         transform="matrix(1.3333333,0,0,-1.3333333,0,1783.9371)" />
    </g>
  </g>
</svg>
