<?xml version="1.0" encoding="UTF-8" standalone="no"?>
<!-- Created with Inkscape (http://www.inkscape.org/) -->

<svg
   width="76.835106mm"
   height="9.2834177mm"
   viewBox="0 0 76.835106 9.2834177"
   version="1.1"
   id="svg1"
   inkscape:version="1.3 (0e150ed6c4, 2023-07-21)"
   sodipodi:docname="banka-vakifbank.svg"
   xmlns:inkscape="http://www.inkscape.org/namespaces/inkscape"
   xmlns:sodipodi="http://sodipodi.sourceforge.net/DTD/sodipodi-0.dtd"
   xmlns="http://www.w3.org/2000/svg"
   xmlns:svg="http://www.w3.org/2000/svg">
  <sodipodi:namedview
     id="namedview1"
     pagecolor="#505050"
     bordercolor="#eeeeee"
     borderopacity="1"
     inkscape:showpageshadow="0"
     inkscape:pageopacity="0"
     inkscape:pagecheckerboard="0"
     inkscape:deskcolor="#d1d1d1"
     inkscape:document-units="mm"
     inkscape:zoom="0.74564394"
     inkscape:cx="145.51181"
     inkscape:cy="16.764034"
     inkscape:window-width="1920"
     inkscape:window-height="1051"
     inkscape:window-x="-9"
     inkscape:window-y="-9"
     inkscape:window-maximized="1"
     inkscape:current-layer="layer1" />
  <defs
     id="defs1" />
  <g
     inkscape:label="Layer 1"
     inkscape:groupmode="layer"
     id="layer1"
     transform="translate(-66.410419,-143.93333)">
    <g
       id="g12"
       transform="matrix(0.26458333,0,0,0.26458333,-58.814363,-223.23899)">
      <path
         id="path98"
         d="m 393.8902,289.8218 c 0.4986,2.8389 -2.1155,6.7952 -9.2308,6.7952 h -17.6808 c -4.8458,0 -7.8843,-3.3276 -8.4243,-6.6784 l -3.5864,-18.8532 c 3.1496,0.008 23.9009,0 23.8573,0 h 1.3484 c 7.4316,0.0414 11.7099,1.7101 12.4909,7.1036 0.5181,3.6298 -2.6688,5.9726 -5.2728,6.4709 2.6334,0.4802 5.8343,1.376 6.4985,5.1619"
         style="fill:#f8bf35 icc-color(ISO-Coated-v2-ECI, 0.01179504, 0.23919678, 0.79998779, 0);fill-opacity:1;fill-rule:nonzero;stroke:none"
         transform="matrix(1.3333333,0,0,-1.3333333,0,1783.9371)" />
      <path
         id="path99"
         d="m 377.2868,288.7169 c -1.8028,-2.2839 -8.3571,-10.2098 -9.6814,-11.7142 -2.9597,-3.367 -9.063,-2.865 -9.1044,-2.7796 0,0.004 2.2003,10.4091 2.9143,13.3429 1.9551,7.9776 8.7007,6.0897 8.7007,6.0897 0,0 -1.7969,-0.2594 -3.0662,-1.8785 -1.287,-1.641 -2.7462,-9.6361 -3.5703,-13.373 3.8648,4.5175 9.1633,10.3461 10.067,11.4375 3.8511,4.6618 9.883,4.0195 9.883,4.0195 0,0 -2.3485,-0.3283 -6.1427,-5.1443"
         style="fill:#ffffff icc-color(ISO-Coated-v2-ECI, 0, 0, 0, 0);fill-opacity:1;fill-rule:nonzero;stroke:none"
         transform="matrix(1.3333333,0,0,-1.3333333,0,1783.9371)" />
      <path
         id="path100"
         d="m 558.8714,281.1229 -0.089,0.0238 2.9086,15.474 h -4.8736 l -4.8042,-25.4979 h 4.8969 l 1.7501,9.3257 h 0.0768 l 5.7733,-9.3572 h 5.7254 l -6.8252,9.9326 9.3577,8.4124 h -5.1817 z m -70.077,16.0265 h -0.3067 c -4.4022,-0.0411 -8.3393,-1.9236 -9.1038,-5.4771 l -0.4093,-2.2122 h -3.1708 l -0.4984,-2.6552 h 3.1715 l -2.9501,-15.6937 h 4.8612 l 2.9503,15.6937 h 3.681 l 0.5162,2.6552 h -3.7032 l 0.2668,1.3879 c 0.447,2.3507 1.2614,4.5569 5.8918,3.8058 0,0.002 0.1539,0.7001 0.7061,1.2197 0.5794,0.5735 1.5795,0.8643 1.5795,0.8643 -1.1563,0.2639 -2.3329,0.4 -3.4821,0.4116 z m 62.06,-13.0017 c 0.5599,2.9679 -1.1579,5.6268 -7.8962,5.6268 -3.7998,0 -6.6033,-0.6092 -8.8928,-1.4233 l -3.2621,-17.2638 h 4.9391 l 2.8842,15.4068 c 1.0004,0.368 1.965,0.6486 3.642,0.6486 3.2162,0 4.0152,-1.5182 3.74,-3.0169 l -2.4455,-13.0385 h 4.7966 z m -21.2848,-0.7038 c 0.8918,4.733 -2.768,6.5222 -7.2164,6.5222 -2.8998,0 -4.553,-0.3637 -6.2787,-1.0695 l -1.4176,-2.8349 c 2.1228,0.8776 4.3988,1.1565 6.3025,1.1565 2.6374,0 4.413,-0.7515 3.962,-3.1357 L 524.7357,283.1 c -7.1909,-0.3974 -13.0011,-2.0423 -13.7548,-6.6194 -0.5352,-3.2976 2.9341,-5.6464 8.6955,-5.6464 2.9971,0 5.5911,0.1364 7.5799,0.2886 z m -5.2191,-2.325 -1.4908,-8.0328 c -0.9039,-0.0732 -1.4434,-0.0652 -3.0628,-0.0335 -2.3746,0.0513 -4.4402,1.0299 -4.0626,3.4263 0.5063,3.3154 3.7191,4.2704 8.6162,4.64 z m -13.5961,9.0312 c 0.5179,2.9219 -2.3017,6.9967 -9.6389,6.9967 -3.6649,0 -8.6256,-0.8385 -9.1517,-3.6099 l -4.1734,-22.4101 c 2.5168,-0.2886 4.9884,-0.2886 8.8279,-0.2591 7.6612,0.0397 12.0696,1.762 12.8761,7.3074 0.536,3.7366 -2.7519,6.1467 -5.4329,6.6609 2.7068,0.496 6.0083,1.4173 6.6929,5.3141 z m -15.4551,-6.5917 1.4908,0.0496 c 6.0559,0.2058 7.8432,-2.2419 7.1549,-5.4785 -0.6605,-3.094 -3.3355,-4.3949 -6.9576,-4.3949 -1.5061,0 -2.293,0.004 -3.6,0.0652 z m 10.245,6.3425 c -0.4983,-2.6314 -2.5444,-4.1893 -7.9319,-4.0408 -1.5522,0.0374 -1.9335,0.1245 -1.9335,0.1245 l 1.5162,8.011 c 0.9964,0.3795 1.9477,0.591 3.3594,0.591 3.6572,0 5.5735,-1.5639 4.9898,-4.6857 z m -36.0003,-18.786 3.4521,18.3472 h -4.6222 l -3.4461,-18.3472 z m -13.3687,9.9365 9.3594,8.4107 h -5.1837 l -8.8175,-8.3925 2.9279,15.5494 h -4.8653 l -4.8101,-25.5336 h 4.8928 l 1.7674,9.472 5.8383,-9.4425 h 5.7274 z m -12.985,2.3925 c 0.8856,4.733 -2.7759,6.5222 -7.2204,6.5222 -2.9024,0 -4.5272,-0.3696 -6.2475,-1.0755 l -1.4451,-2.821 c 2.1194,0.8895 4.3928,1.1526 6.3005,1.1526 2.6399,0 4.4051,-0.7512 3.9623,-3.1357 l -0.1879,-0.9825 c -7.1964,-0.3974 -13.0031,-2.0424 -13.756,-6.6195 -0.5437,-3.2975 2.9296,-5.6463 8.6987,-5.6463 2.9956,0 5.5893,0.1364 7.5801,0.2886 z m -5.2313,-2.325 -1.4831,-8.0328 c -0.911,-0.0732 -1.451,-0.0652 -3.0623,-0.0335 -2.3726,0.0513 -4.4441,1.0299 -4.0708,3.4263 0.5139,3.3154 3.7171,4.2704 8.6162,4.64 z m -21.619,-10.0335 13.9774,25.5336 h -4.8793 L 415.1829,276.5934 412.53,296.619 h -5.518 l 4.733,-25.5336 z"
         style="fill:#100f0d icc-color(ISO-Coated-v2-ECI, 0.74899292, 0.6783905, 0.67059326, 0.9019928);fill-opacity:1;fill-rule:nonzero;stroke:none"
         transform="matrix(1.3333333,0,0,-1.3333333,0,1783.9371)" />
    </g>
  </g>
</svg>
