<?xml version="1.0" encoding="UTF-8" standalone="no"?>
<!-- Created with Inkscape (http://www.inkscape.org/) -->

<svg
   width="75.558891mm"
   height="22.707106mm"
   viewBox="0 0 75.558891 22.707106"
   version="1.1"
   id="svg1"
   inkscape:version="1.3 (0e150ed6c4, 2023-07-21)"
   sodipodi:docname="banka-qnb.svg"
   xmlns:inkscape="http://www.inkscape.org/namespaces/inkscape"
   xmlns:sodipodi="http://sodipodi.sourceforge.net/DTD/sodipodi-0.dtd"
   xmlns="http://www.w3.org/2000/svg"
   xmlns:svg="http://www.w3.org/2000/svg">
  <sodipodi:namedview
     id="namedview1"
     pagecolor="#505050"
     bordercolor="#eeeeee"
     borderopacity="1"
     inkscape:showpageshadow="0"
     inkscape:pageopacity="0"
     inkscape:pagecheckerboard="0"
     inkscape:deskcolor="#d1d1d1"
     inkscape:document-units="mm"
     inkscape:zoom="0.74564394"
     inkscape:cx="-272.91847"
     inkscape:cy="291.69418"
     inkscape:window-width="1920"
     inkscape:window-height="1051"
     inkscape:window-x="-9"
     inkscape:window-y="-9"
     inkscape:window-maximized="1"
     inkscape:current-layer="layer1" />
  <defs
     id="defs1">
    <linearGradient
       x1="357.72"
       y1="1011.52"
       x2="383.41"
       y2="1011.52"
       gradientUnits="userSpaceOnUse"
       spreadMethod="pad"
       id="linearGradient22">
      <stop
         style="stop-opacity:1;stop-color:#123971 icc-color(ISO-Coated-v2-ECI, 1, 0.65098572, 0, 0.3999939);"
         offset="0"
         id="stop19" />
      <stop
         style="stop-opacity:1;stop-color:#123971 icc-color(ISO-Coated-v2-ECI, 1, 0.65098572, 0, 0.3999939);"
         offset="0.35"
         id="stop20" />
      <stop
         style="stop-opacity:1;stop-color:#1969bc icc-color(ISO-Coated-v2-ECI, 1, 0.54899597, 0, 0);"
         offset="0.73"
         id="stop21" />
      <stop
         style="stop-opacity:1;stop-color:#1969bc icc-color(ISO-Coated-v2-ECI, 1, 0.54899597, 0, 0);"
         offset="1"
         id="stop22" />
    </linearGradient>
    <linearGradient
       x1="368.57999"
       y1="1029.54"
       x2="408.59"
       y2="1029.54"
       gradientUnits="userSpaceOnUse"
       spreadMethod="pad"
       id="linearGradient26">
      <stop
         style="stop-opacity:1;stop-color:#aa084c icc-color(ISO-Coated-v2-ECI, 0.05899048, 1, 0.32899475, 0.28999329);"
         offset="0"
         id="stop23" />
      <stop
         style="stop-opacity:1;stop-color:#aa084c icc-color(ISO-Coated-v2-ECI, 0.05899048, 1, 0.32899475, 0.28999329);"
         offset="0.35"
         id="stop24" />
      <stop
         style="stop-opacity:1;stop-color:#6e052b icc-color(ISO-Coated-v2-ECI, 0.05899048, 1, 0.32899475, 0.59999084);"
         offset="0.61"
         id="stop25" />
      <stop
         style="stop-opacity:1;stop-color:#231f20 icc-color(ISO-Coated-v2-ECI, 0, 0, 0, 1);"
         offset="1"
         id="stop26" />
    </linearGradient>
    <linearGradient
       x1="393.76001"
       y1="1011.52"
       x2="419.45001"
       y2="1011.52"
       gradientUnits="userSpaceOnUse"
       spreadMethod="pad"
       id="linearGradient30">
      <stop
         style="stop-opacity:1;stop-color:#1969bc icc-color(ISO-Coated-v2-ECI, 1, 0.54899597, 0, 0);"
         offset="0"
         id="stop27" />
      <stop
         style="stop-opacity:1;stop-color:#1969bc icc-color(ISO-Coated-v2-ECI, 1, 0.54899597, 0, 0);"
         offset="0.27"
         id="stop28" />
      <stop
         style="stop-opacity:1;stop-color:#123971 icc-color(ISO-Coated-v2-ECI, 1, 0.65098572, 0, 0.3999939);"
         offset="0.65"
         id="stop29" />
      <stop
         style="stop-opacity:1;stop-color:#123971 icc-color(ISO-Coated-v2-ECI, 1, 0.65098572, 0, 0.3999939);"
         offset="1"
         id="stop30" />
    </linearGradient>
    <linearGradient
       x1="388.57999"
       y1="980.65002"
       x2="388.57999"
       y2="1006.34"
       gradientUnits="userSpaceOnUse"
       spreadMethod="pad"
       id="linearGradient34">
      <stop
         style="stop-opacity:1;stop-color:#123971 icc-color(ISO-Coated-v2-ECI, 1, 0.65098572, 0, 0.3999939);"
         offset="0"
         id="stop31" />
      <stop
         style="stop-opacity:1;stop-color:#123971 icc-color(ISO-Coated-v2-ECI, 1, 0.65098572, 0, 0.3999939);"
         offset="0.35"
         id="stop32" />
      <stop
         style="stop-opacity:1;stop-color:#1969bc icc-color(ISO-Coated-v2-ECI, 1, 0.54899597, 0, 0);"
         offset="0.73"
         id="stop33" />
      <stop
         style="stop-opacity:1;stop-color:#1969bc icc-color(ISO-Coated-v2-ECI, 1, 0.54899597, 0, 0);"
         offset="1"
         id="stop34" />
    </linearGradient>
  </defs>
  <g
     inkscape:label="Layer 1"
     inkscape:groupmode="layer"
     id="layer1"
     transform="translate(-177.00625,-71.437496)">
    <g
       id="g5"
       transform="matrix(0.26458333,0,0,0.26458333,51.24334,-32.40012)">
      <path
         id="path19"
         d="m 369.68,1015.8718 -9.7883,9.7886 0.381,0.7844 c 1.021,2.1027 2.4072,4.058 3.8908,5.858 l 0.8578,1.0406 18.0595,-18.0595 c 1.0006,-1.0009 1.5548,-2.3516 1.5548,-3.7655 0,-1.414 -0.5542,-2.765 -1.5548,-3.7653 l -18.0595,-18.0598 -0.8578,1.0406 c -1.4836,1.8 -2.8698,3.755 -3.8908,5.8581 l -0.381,0.7843 9.7883,9.7886 h -12.7335 l -0.1735,1.0194 c -0.1876,1.1021 -0.2797,2.2161 -0.2797,3.3341 0,1.1179 0.0921,2.232 0.2797,3.3341 l 0.1735,1.0193 z m 23.2583,14.5514 9.7886,9.7883 0.7843,-0.381 c 2.1031,-1.021 4.0581,-2.4072 5.8581,-3.8908 l 1.0406,-0.8578 -18.0598,-18.0595 c -1.0006,-1.0006 -2.3513,-1.5548 -3.7652,-1.5548 -1.4143,0 -2.7647,0.5542 -3.7656,1.5548 l -18.0595,18.0595 1.0406,0.8578 c 1.8,1.4836 3.7553,2.8698 5.8581,3.8908 l 0.7843,0.381 9.7886,-9.7883 v 12.7335 l 1.0193,0.1735 c 1.1022,0.1876 2.2162,0.2798 3.3342,0.2798 1.1179,0 2.232,-0.092 3.3341,-0.2798 l 1.0193,-0.1735 z m 14.5514,-23.2583 9.7883,-9.7886 -0.3807,-0.7843 c -1.0213,-2.1031 -2.4075,-4.0581 -3.8911,-5.8581 l -0.8578,-1.0406 -18.0595,18.0598 c -1.0006,1.0003 -1.5548,2.3513 -1.5548,3.7653 0,1.4139 0.5542,2.7646 1.5548,3.7655 l 18.0595,18.0595 0.8578,-1.0406 c 1.4836,-1.8 2.8698,-3.7553 3.8911,-5.858 l 0.3807,-0.7844 -9.7883,-9.7886 h 12.7335 l 0.1735,-1.0193 c 0.1876,-1.1021 0.2797,-2.2162 0.2797,-3.3341 0,-1.118 -0.0921,-2.232 -0.2797,-3.3341 l -0.1735,-1.0194 z m -23.2583,-14.5514 -9.7886,-9.7883 -0.7843,0.381 c -2.1028,1.021 -4.0581,2.4072 -5.8581,3.8908 l -1.0406,0.8578 18.0595,18.0595 c 1.0009,1.0007 2.3513,1.5548 3.7656,1.5548 1.4139,0 2.7646,-0.5541 3.7652,-1.5548 l 18.0598,-18.0595 -1.0406,-0.8578 c -1.8,-1.4836 -3.755,-2.8698 -5.8581,-3.8908 l -0.7843,-0.381 -9.7886,9.7883 V 979.88 l -1.0193,-0.1734 c -1.1021,-0.1877 -2.2162,-0.2798 -3.3341,-0.2798 -1.118,0 -2.232,0.0921 -3.3342,0.2798 l -1.0193,0.1734 z"
         style="fill:#7b7979 icc-color(ISO-Coated-v2-ECI, 0, 0, 0, 0.59999084);fill-opacity:1;fill-rule:evenodd;stroke:none"
         transform="matrix(1.3333333,0,0,-1.3333333,0,1783.9371)" />
      <path
         id="path22"
         d="m 357.7181,1011.5184 c -0.002,1.017 0.0802,2.0582 0.2625,3.1286 h 14.6565 l -11.2626,11.2629 c 0.9085,1.8711 2.1918,3.7425 3.7344,5.6137 l 17.1059,-17.106 c 0.7971,-0.7973 1.196,-1.8482 1.196,-2.8992 0,-1.0511 -0.3989,-2.1019 -1.196,-2.8993 l -17.1059,-17.106 c -1.5426,1.8712 -2.8259,3.7426 -3.7344,5.6138 l 11.2626,11.2629 h -14.6565 c -0.1823,1.0703 -0.2642,2.1115 -0.2625,3.1286 z"
         transform="matrix(1.3333333,0,0,-1.3333333,0,1783.9371)"
         style="fill:url(#linearGradient22);fill-rule:evenodd;stroke:none" />
      <path
         id="path26"
         d="m 388.5849,1042.3851 c 1.017,0 2.0582,-0.08 3.1285,-0.2625 v -14.6568 l 11.2629,11.2629 c 1.8712,-0.9085 3.7426,-2.1918 5.6138,-3.7341 l -17.106,-17.1062 c -0.7974,-0.7971 -1.8484,-1.196 -2.8992,-1.196 -1.0511,0 -2.1019,0.3989 -2.8993,1.196 l -17.106,17.1062 c 1.8712,1.5423 3.7426,2.8256 5.6138,3.7341 l 11.2629,-11.2629 v 14.6568 c 1.0703,0.1823 2.1115,0.2642 3.1286,0.2625 z"
         transform="matrix(1.3333333,0,0,-1.3333333,0,1783.9371)"
         style="fill:url(#linearGradient26);fill-rule:evenodd;stroke:none" />
      <path
         id="path30"
         d="m 419.4516,1011.5184 c 0.002,-1.0171 -0.0802,-2.0583 -0.2622,-3.1286 h -14.6568 l 11.2626,-11.2629 c -0.9085,-1.8712 -2.1918,-3.7426 -3.7344,-5.6138 l -17.1059,17.106 c -0.7971,0.7974 -1.196,1.8482 -1.196,2.8993 0,1.051 0.3989,2.1019 1.196,2.8992 l 17.1059,17.106 c 1.5426,-1.8712 2.8259,-3.7426 3.7344,-5.6137 l -11.2626,-11.2629 h 14.6568 c 0.182,-1.0704 0.2639,-2.1116 0.2622,-3.1286 z"
         transform="matrix(1.3333333,0,0,-1.3333333,0,1783.9371)"
         style="fill:url(#linearGradient30);fill-rule:evenodd;stroke:none" />
      <path
         id="path34"
         d="m 388.5849,980.6516 c -1.0171,-0.002 -2.0583,0.0802 -3.1286,0.2622 v 14.6568 L 374.1934,984.308 c -1.8712,0.9085 -3.7426,2.1918 -5.6138,3.7341 l 17.106,17.1062 c 0.7974,0.7971 1.8482,1.196 2.8993,1.196 1.0508,0 2.1018,-0.3989 2.8992,-1.196 l 17.106,-17.1062 c -1.8712,-1.5423 -3.7426,-2.8256 -5.6138,-3.7341 l -11.2629,11.2626 v -14.6568 c -1.0703,-0.182 -2.1115,-0.2639 -3.1285,-0.2622 z"
         transform="matrix(1.3333333,0,0,-1.3333333,0,1783.9371)"
         style="fill:url(#linearGradient34);fill-rule:evenodd;stroke:none" />
      <path
         id="path35"
         d="m 523.4244,1040.8601 h -18.1919 v -16.128 -16.9288 h 19.2342 c 11.137,0 14.2438,13.6372 5.2954,16.5605 -0.7194,0.2348 -1.6035,0.2501 -0.4686,0.7172 0.8805,0.3626 1.5361,0.9916 2.2303,1.8139 4.8274,5.7203 -0.1493,13.9652 -8.0994,13.9652 z m -9.4538,-47.522 h 5.4102 c 1.1058,0 2.0103,-0.9114 2.0103,-2.0257 v -0.1862 c 0,-1.2163 -0.9879,-2.2119 -2.1951,-2.2119 h -4.2974 c 0,-1.419 0.6826,-2.3564 1.7643,-2.3564 h 2.7539 c 1.1775,0 2.7281,-0.8496 2.7281,-2.0256 v -0.1863 c 0,-1.2166 -0.9876,-2.2119 -2.1949,-2.2119 h -5.9794 v 3.5193 0.9045 2.3564 z m 42.7595,2.2581 h 2.9809 v -7.2684 l 6.6552,7.2684 h 3.6723 l -5.4,-5.8975 6.0375,-9.9165 c -1.0225,-0.6624 -3.2763,-0.2661 -3.5859,0.2486 l -4.5212,7.4075 -2.8579,-3.1209 v -4.5352 h -2.9809 z m -57.2607,-11.9452 -1.7612,-2.0852 c 0,0 2.031,-2.3224 6.0497,-2.3224 4.0187,0 6.3173,2.355 6.3088,4.926 -0.0193,5.9383 -8.5516,3.8767 -8.5124,7.3675 0.0241,2.1603 2.8842,2.0092 2.8842,2.0092 0,0 2.1283,0.3028 4.4076,-1.7282 2.353,3.3638 -3.092,4.2995 -4.5482,4.2131 -4.0184,0 -5.9414,-1.923 -5.9414,-4.4941 0,-2.571 1.4159,-3.9393 5.099,-4.926 0,0 3.4568,-0.5618 3.4568,-2.7224 0,-2.1606 -3.1759,-2.0526 -3.1759,-2.0526 0,0 -1.988,-0.216 -4.267,1.8151 z m 32.9199,8.2836 -2.0846,-5.3889 h 4.0864 z m 1.6353,3.6616 2.2901,-5.7827 3.8265,-10.0899 h -2.0194 c -0.7243,0 -1.3649,0.6111 -1.4817,0.949 l -1.279,3.3721 h -2.8729 -3.132 l -1.6387,-4.3211 h -2.882 l 3.8265,10.0899 2.2901,5.7827 z m -59.6648,-3.6616 -2.0849,-5.3889 h 4.0865 z m 1.635,3.6616 2.2904,-5.7827 3.8262,-10.0899 h -2.0191 c -0.7245,0 -1.3652,0.6111 -1.4819,0.949 l -1.2787,3.3721 h -2.873 -3.132 l -1.6387,-4.3211 h -2.882 l 3.8263,10.0899 2.2901,5.7827 z m -26.0475,0.001 v -15.8154 h -0.4499 c -1.3419,0 -2.4021,1.1645 -2.4021,1.935 v 11.8496 2.0308 z m -17.371,4.7917 h 17.371 v -0.821 c 0,-1.2461 -0.7849,-2.247 -2.3766,-2.247 H 436.163 v -5.7016 h 8.545 v -3.0679 h -8.545 v -8.7696 h -3.5867 z m 108.5975,-4.7931 h 1.5545 c 0.7691,0 2.1119,-0.1902 2.6794,-0.9797 l 6.5262,-10.0922 v 11.0719 h 2.6985 v -15.814 h -1.6846 c -0.7693,0 -1.1234,0.415 -1.4533,0.7617 l -7.4075,11.0007 v -11.7624 h -2.9132 z m -58.1624,0 h 1.5543 c 0.7693,0 2.1118,-0.1902 2.6796,-0.9797 l 6.5259,-10.0922 v 11.0719 h 2.6988 v -15.814 h -1.6849 c -0.769,0 -1.1231,0.415 -1.453,0.7617 l -7.4075,11.0007 v -11.7624 h -2.9132 z m -30.8531,0 h 1.5545 c 0.7691,0 2.1118,-0.1902 2.6796,-0.9797 l 6.5259,-10.0922 v 11.0719 h 2.6986 v -15.814 h -1.6846 c -0.7691,0 -1.1231,0.415 -1.4531,0.7617 l -7.4075,11.0007 v -11.7624 h -2.9134 z m 67.2633,0 h -8.1179 v -7.7157 -8.0983 h 8.6128 c 5.2872,0 6.7621,6.5237 2.5138,7.9223 -0.3413,0.1123 -0.7611,0.1196 -0.2222,0.3433 0.4178,0.1732 0.7293,0.4742 1.0587,0.8677 2.2918,2.7362 -0.0709,6.6807 -3.8452,6.6807 z m -71.0442,46.0627 c 10.3581,0 17.112,-7.7868 17.112,-17.3926 0,-4.695 -1.6453,-8.9552 -4.5213,-12.0841 l 4.3475,-4.3993 c 0,0 -1.5987,-1.4692 -3.6731,-1.4692 -2.0742,0 -3.4354,1.4043 -3.4354,1.4043 l -1.2656,1.2906 c -2.4486,-1.3607 -5.3399,-2.1348 -8.5641,-2.1348 -10.2282,0 -17.1116,7.7868 -17.1116,17.3925 0,9.6058 6.7539,17.3926 17.1116,17.3926 z m -1.2106,-22.6843 6.1659,-6.2867 c -1.4587,-0.7477 -3.1272,-1.1596 -4.9553,-1.1596 -6.6497,0 -11.1917,5.4388 -11.1917,12.738 0,7.3627 4.4804,12.7381 11.1917,12.7381 6.7116,0 11.1921,-5.3754 11.1921,-12.7381 0,-3.2 -0.8731,-6.0426 -2.414,-8.2258 l -2.6861,2.7181 c 0,0 -3.1113,3.392 -7.3026,0.216 z m 22.9243,21.8855 h 3.4138 c 1.6891,0 3.1867,-1.0296 3.9115,-1.7544 l 16.8976,-22.0337 v 23.7881 h 5.3337 v -33.0568 h -3.3457 c -1.6892,0 -2.204,0.8674 -2.9285,1.5922 l -17.881,22.9952 v -24.5874 h -5.4014 z m 40.7588,-4.72 h 12.4886 c 2.3287,0 4.2341,-1.9052 4.2341,-4.2341 v -0.3895 c 0,-2.543 -2.0806,-4.6236 -4.6236,-4.6236 h -10.144 c 0,-2.9667 1.4377,-4.926 3.7162,-4.926 h 6.8927 c 2.4801,0 5.7467,-1.7759 5.7467,-4.2341 v -0.3895 c 0,-2.543 -2.0806,-4.6236 -4.6236,-4.6236 h -13.6871 v 7.3567 1.8905 4.926 z"
         style="fill:#0b1a35 icc-color(ISO-Coated-v2-ECI, 1, 0.76078796, 0.12159729, 0.70199585);fill-opacity:1;fill-rule:evenodd;stroke:none"
         transform="matrix(1.3333333,0,0,-1.3333333,0,1783.9371)" />
    </g>
  </g>
</svg>
