<?xml version="1.0" encoding="UTF-8" standalone="no"?>
<!-- Created with Inkscape (http://www.inkscape.org/) -->

<svg
   width="76.11808mm"
   height="35.062794mm"
   viewBox="0 0 76.11808 35.062794"
   version="1.1"
   id="svg1"
   inkscape:version="1.3 (0e150ed6c4, 2023-07-21)"
   sodipodi:docname="banka-teb.svg"
   xmlns:inkscape="http://www.inkscape.org/namespaces/inkscape"
   xmlns:sodipodi="http://sodipodi.sourceforge.net/DTD/sodipodi-0.dtd"
   xmlns="http://www.w3.org/2000/svg"
   xmlns:svg="http://www.w3.org/2000/svg">
  <sodipodi:namedview
     id="namedview1"
     pagecolor="#505050"
     bordercolor="#eeeeee"
     borderopacity="1"
     inkscape:showpageshadow="0"
     inkscape:pageopacity="0"
     inkscape:pagecheckerboard="0"
     inkscape:deskcolor="#d1d1d1"
     inkscape:document-units="mm"
     inkscape:zoom="0.74564394"
     inkscape:cx="144.17069"
     inkscape:cy="66.385573"
     inkscape:window-width="1920"
     inkscape:window-height="1051"
     inkscape:window-x="-9"
     inkscape:window-y="-9"
     inkscape:window-maximized="1"
     inkscape:current-layer="layer1" />
  <defs
     id="defs1" />
  <g
     inkscape:label="Layer 1"
     inkscape:groupmode="layer"
     id="layer1"
     transform="translate(-66.674998,-130.96874)">
    <g
       id="g11"
       transform="matrix(0.26458333,0,0,0.26458333,-58.896,-185.00349)">
      <path
         id="path90"
         d="m 355.9493,342.8929 h 99.3855 v 99.3906 h -99.3855 z"
         style="fill:#00a770 icc-color(ISO-Coated-v2-ECI, 1, 0, 0.79998779, 0);fill-opacity:1;fill-rule:evenodd;stroke:none"
         transform="matrix(1.3333333,0,0,-1.3333333,0,1783.9371)" />
      <path
         id="path91"
         d="m 538.4412,407.6093 c 0.2733,-3.2375 0.4842,-11.3349 0.4842,-14.3062 0,-2.7048 -0.0394,-11.8377 -0.5358,-15.7737 l -0.0394,-0.3271 h 16.6057 c 8.098,0 16.7612,2.2133 16.7612,8.4246 0,3.9013 -3.2805,6.7788 -9.4209,8.3639 4.4983,1.0125 7.5739,3.7165 7.5739,6.8139 0,5.0689 -6.7924,6.9917 -13.1295,7.109 -0.017,0 -18.3283,0.0122 -18.3283,0.0122 z m 12.8288,-3.1212 c 6.9378,-0.0131 9.5111,-1.2476 9.5111,-4.4972 0,-0.862 -0.313,-1.6302 -0.9326,-2.2592 -1.3269,-1.3779 -3.9637,-2.0863 -7.2573,-1.9364 h -0.1499 l -1.912,-4.3219 h 1.9346 c 3.82,0.1054 7.1414,-0.921 8.8314,-2.7142 0.7897,-0.8391 1.1877,-1.77 1.1877,-2.7958 0,-3.401 -3.471,-5.1497 -10.2997,-5.1497 -1.1517,0 -3.0047,0 -4.1927,0.0703 -0.2455,4.4971 -0.2566,10.6007 -0.2566,12.4191 0,2.1439 0.0973,6.9083 0.2722,10.9993 0.765,0.1162 2.069,0.1967 3.2638,0.1857"
         style="fill:#231f20 icc-color(ISO-Coated-v2-ECI, 0, 0, 0, 1);fill-opacity:1;fill-rule:evenodd;stroke:none"
         transform="matrix(1.3333333,0,0,-1.3333333,0,1783.9371)" />
      <path
         id="path92"
         d="m 534.9977,377.2253 v 4.428 c -6.6535,-0.3277 -13.373,-0.3747 -20.0959,-0.4561 -0.1523,3.1462 -0.216,6.9911 -0.2339,9.6585 l 13.1584,-0.2449 v 4.6494 l -13.1584,-0.2688 c 0.0349,2.4358 0.0697,5.872 0.1976,8.8073 1.9386,0.036 2.914,0.0711 4.301,0.0711 4.9683,0 9.9363,0.0933 14.9131,-0.3835 v 4.4623 h -20.2975 v -0.0122 h -8.4419 l 0.0423,-0.3044 c 0.267,-3.2505 0.477,-11.3466 0.477,-14.3051 0,-2.7161 -0.047,-11.8375 -0.5349,-15.7768 l -0.0346,-0.3248 z"
         style="fill:#231f20 icc-color(ISO-Coated-v2-ECI, 0, 0, 0, 1);fill-opacity:1;fill-rule:evenodd;stroke:none"
         transform="matrix(1.3333333,0,0,-1.3333333,0,1783.9371)" />
      <path
         id="path93"
         d="m 489.9237,377.2488 -0.0334,0.3271 c -0.4916,3.949 -0.5312,13.0607 -0.5312,15.7743 0,2.1552 0.1091,7.0004 0.2735,10.741 5.3648,-0.0932 6.8785,-0.1749 11.5795,-0.6049 v 4.4861 h -32.5153 v -4.4861 c 4.6933,0.43 6.2155,0.5117 11.5874,0.6049 0.1562,-3.7406 0.2665,-8.5858 0.2665,-10.741 0,-2.7136 -0.0397,-11.8253 -0.531,-15.7743 l -0.0326,-0.3271 z"
         style="fill:#231f20 icc-color(ISO-Coated-v2-ECI, 0, 0, 0, 1);fill-opacity:1;fill-rule:evenodd;stroke:none"
         transform="matrix(1.3333333,0,0,-1.3333333,0,1783.9371)" />
      <path
         id="path94"
         d="m 433.5205,416.1325 c -6.1574,-3.6065 -8.0436,-3.8939 -14.6874,-7.8865 3.8644,4.2069 5.2103,5.9856 7.6277,9.5204 -6.1571,-0.3223 -15.0894,-1.0681 -21.4897,-2.4752 5.5723,2.95 16.5923,6.2711 22.3988,7.0455 -1.3507,1.8578 -12.2562,7.7717 -14.9723,8.896 8.6301,-0.6676 19.1891,-3.875 24.2971,-7.024 2.0543,0.6259 4.1188,0.6715 7.8469,1.0035 -0.9485,-1.6444 -0.9672,-2.5926 -4.6468,-5.0199 1.0173,-2.7244 -1.4046,-17.7024 -3.4107,-21.6924 -0.089,6.2807 -0.65,14.2058 -2.9636,17.6326"
         style="fill:#ffffff icc-color(ISO-Coated-v2-ECI, 0, 0, 0, 0);fill-opacity:1;fill-rule:evenodd;stroke:none"
         transform="matrix(1.3333333,0,0,-1.3333333,0,1783.9371)" />
      <path
         id="path95"
         d="m 388.5917,362.3956 c -3.5422,1.3093 -6.0849,2.8355 -8.8736,5.4462 0.8319,2.296 1.7881,4.1238 3.359,6.4102 -2.8842,-0.411 -4.9697,-0.7245 -7.4449,-1.2112 -2.0276,3.5345 -2.9222,6.9097 -3.9537,11.6274 -0.5579,-4.9904 -0.7512,-8.5623 -0.0394,-12.5501 -2.2649,-0.6154 -3.8759,-1.1738 -5.7382,-2.0041 2.6039,-1.6101 4.7171,-2.8536 7.6504,-4.1972 1.5574,-3.3617 3.1822,-5.6532 5.8048,-8.2197 -0.6225,2.1901 -0.7696,3.9527 -0.5403,6.2626 3.2749,-0.9606 6.0639,-1.4445 9.7759,-1.5641"
         style="fill:#ffffff icc-color(ISO-Coated-v2-ECI, 0, 0, 0, 0);fill-opacity:1;fill-rule:evenodd;stroke:none"
         transform="matrix(1.3333333,0,0,-1.3333333,0,1783.9371)" />
      <path
         id="path96"
         d="m 397.7765,412.2215 v 0 c -1.1152,-1.4193 -2.3945,-4.0742 -2.7216,-5.3183 9.07,-1.2453 16.3749,-5.8995 16.3749,-5.8995 h 0.009 c -7.9875,1.4049 -12.1524,1.2345 -15.1126,0.9697 -2.9588,-0.2914 -3.555,-0.64 -3.555,-0.64 -2.1387,-4.6639 -3.4228,-12.7474 -3.4228,-12.7517 -1.4465,3.4827 -3.5365,10.4658 -3.5365,10.4658 -4.011,-2.1532 -13.2233,-10.8164 -13.2233,-10.8164 h -0.005 c 5.0653,10.144 10.2014,14.7994 10.2014,14.7994 h 0.004 c -1.7668,1.7691 -6.4046,2.6501 -9.7846,2.8071 1.7597,0.7254 6.2813,1.5716 9.7449,1.7227 3.4691,0.1077 5.5684,-0.1066 5.5684,-0.1066 h 0.009 c 3.1022,2.4511 7.7989,4.5198 9.4493,4.7678"
         style="fill:#ffffff icc-color(ISO-Coated-v2-ECI, 0, 0, 0, 0);fill-opacity:1;fill-rule:evenodd;stroke:none"
         transform="matrix(1.3333333,0,0,-1.3333333,0,1783.9371)" />
      <path
         id="path97"
         d="m 407.3975,368.6788 c -1.6129,-2.1625 -2.9775,-3.8775 -4.7644,-5.8745 -3.0597,-0.832 -5.4947,-1.1452 -8.4734,-1.1591 1.8298,-0.9399 3.6066,-1.5216 5.5052,-1.9023 -1.8986,-1.7354 -3.5271,-2.9667 -5.3742,-4.1454 3.102,0.7396 7.2136,2.0693 10.241,3.8503 1.5755,-0.0493 3.0623,0.0493 4.1497,0.248 -0.2557,0.9394 -0.4471,1.62 -0.69,2.8287 2.8704,2.2207 4.9649,4.2237 7.3188,6.6294 -2.5248,-1.7654 -4.7223,-3.0931 -7.6184,-4.4719 -0.1375,1.3513 -0.2285,2.4846 -0.2943,3.9968"
         style="fill:#ffffff icc-color(ISO-Coated-v2-ECI, 0, 0, 0, 0);fill-opacity:1;fill-rule:evenodd;stroke:none"
         transform="matrix(1.3333333,0,0,-1.3333333,0,1783.9371)" />
    </g>
  </g>
</svg>
