<?xml version="1.0" encoding="UTF-8" standalone="no"?>
<!-- Created with Inkscape (http://www.inkscape.org/) -->

<svg
   width="75.98851mm"
   height="23.098368mm"
   viewBox="0 0 75.98851 23.098368"
   version="1.1"
   id="svg1"
   inkscape:version="1.3 (0e150ed6c4, 2023-07-21)"
   sodipodi:docname="banka-albaraka.svg"
   xmlns:inkscape="http://www.inkscape.org/namespaces/inkscape"
   xmlns:sodipodi="http://sodipodi.sourceforge.net/DTD/sodipodi-0.dtd"
   xmlns="http://www.w3.org/2000/svg"
   xmlns:svg="http://www.w3.org/2000/svg">
  <sodipodi:namedview
     id="namedview1"
     pagecolor="#505050"
     bordercolor="#eeeeee"
     borderopacity="1"
     inkscape:showpageshadow="0"
     inkscape:pageopacity="0"
     inkscape:pagecheckerboard="0"
     inkscape:deskcolor="#d1d1d1"
     inkscape:document-units="mm"
     inkscape:zoom="1.4912879"
     inkscape:cx="87.843536"
     inkscape:cy="69.403099"
     inkscape:window-width="1920"
     inkscape:window-height="1051"
     inkscape:window-x="-9"
     inkscape:window-y="-9"
     inkscape:window-maximized="1"
     inkscape:current-layer="layer1" />
  <defs
     id="defs1" />
  <g
     inkscape:label="Layer 1"
     inkscape:groupmode="layer"
     id="layer1"
     transform="translate(-66.939581,-137.05416)">
    <g
       id="g1">
      <path
         id="path66"
         d="m 124.78409,142.54399 c 0,-3.03202 2.4578,-5.48982 5.48979,-5.48982 3.03202,0 5.48992,2.4578 5.48992,5.48982 0,0.94361 -0.2378,1.83159 -0.65712,2.6072 -0.0781,0.14429 -4.8328,8.05448 -4.8328,8.05448 l -1.19267,-1.98479 2.98488,-7.90699 c 0.1016,-0.23611 0.15791,-0.49639 0.15791,-0.7699 0,-1.077 -0.87309,-1.95001 -1.95012,-1.95001 -1.07689,0 -1.94998,0.87301 -1.94998,1.95001 v 7.41631 c -1.3226,-2.20183 -2.83891,-4.72811 -2.88269,-4.80911 -0.41931,-0.77561 -0.65712,-1.66359 -0.65712,-2.6072"
         style="fill:#eb7831 icc-color(ISO-Coated-v2-ECI, 0.04708862, 0.55688477, 0.83918762, 0);fill-opacity:1;fill-rule:nonzero;stroke:none;stroke-width:0.352778" />
      <path
         id="path67"
         d="m 142.92809,154.56218 c 0,3.03201 -2.45791,5.48989 -5.4899,5.48989 -3.03191,0 -5.48971,-2.45788 -5.48971,-5.48989 0,-0.94351 0.2377,-1.83149 0.65701,-2.607 0.0781,-0.14439 4.8327,-8.05458 4.8327,-8.05458 l 1.19282,1.98479 -2.98493,7.90699 c -0.1016,0.23611 -0.1579,0.49639 -0.1579,0.7698 0,1.07699 0.87312,1.95012 1.95001,1.95012 1.0771,0 1.95009,-0.87313 1.95009,-1.95012 v -7.4162 c 1.32253,2.20179 2.83891,4.7281 2.88272,4.8092 0.41928,0.77551 0.65709,1.66349 0.65709,2.607"
         style="fill:#ed1c24 icc-color(ISO-Coated-v2-ECI, 0, 1, 1, 0);fill-opacity:1;fill-rule:nonzero;stroke:none;stroke-width:0.352778" />
      <path
         id="path68"
         d="m 115.90291,145.66265 h 2.54349 l -3.0396,3.22079 3.33639,5.49081 h -2.41638 l -2.35123,-3.97422 -1.37929,1.4616 v 2.51262 h -2.01369 v -11.86991 h 2.01369 v 6.74151 z m 7.83198,6.6505 v 0 c -1.03999,1.0142 -2.84991,0.58099 -2.92509,-0.45071 -0.0742,-1.01741 0.74189,-1.35661 1.5579,-1.35661 h 1.36719 z m -3.38081,-6.47041 v 0 c 0,0 1.46971,-0.25661 2.8297,-0.11648 1.44131,0.14827 2.7449,0.76299 2.7449,3.32768 v 4.44059 c 0,0.47703 0.16961,0.87972 0.16961,0.87972 h -1.83349 l -0.34459,-0.69952 c -1.89322,1.7084 -5.28303,1.0202 -5.28303,-1.76989 0,-2.8297 3.2324,-2.8933 4.16511,-2.8933 h 0.9326 v -0.27549 c 0,-0.83721 -0.57231,-1.38832 -1.8017,-1.40952 -0.93299,-0.0161 -1.57911,0.19071 -1.57911,0.19071 z m -39.3084,-3.26421 v 0 11.86991 h 3.953122 c 4.589004,0 5.415597,-5.44738 1.780505,-6.4437 0,0 1.462475,-0.54049 1.462475,-2.53291 0,-1.99238 -1.759197,-2.8933 -3.444381,-2.8933 z m 2.193819,1.83352 v 0 h 1.303585 c 0.860425,0 1.557902,0.63589 1.557902,1.55791 0,0.86039 -0.697477,1.5579 -1.557902,1.5579 h -1.303585 z m 0,4.91748 v 0 h 1.768299 c 1.087614,0 1.833386,0.75043 1.833386,1.65693 0,0.90649 -0.866175,1.62598 -1.953789,1.62598 h -1.647896 z m 23.856281,2.98362 v 0 c -1.03989,1.0142 -2.84978,0.58099 -2.92499,-0.45071 -0.0742,-1.01741 0.74179,-1.35661 1.5579,-1.35661 h 1.36709 z m -3.38067,-6.47041 v 0 c 0,0 1.46967,-0.25661 2.82959,-0.11648 1.44138,0.14827 2.7449,0.76299 2.7449,3.32768 v 4.44059 c 0,0.47703 0.16958,0.87972 0.16958,0.87972 h -1.83339 l -0.3447,-0.69952 c -1.89311,1.7084 -5.28288,1.0202 -5.28288,-1.76989 0,-2.8297 3.2324,-2.8933 4.165,-2.8933 h 0.93257 v -0.27549 c 0,-0.83721 -0.57228,-1.38832 -1.8016,-1.40952 -0.9331,-0.0161 -1.57907,0.19071 -1.57907,0.19071 z m -5.627618,8.53151 v 0 -5.78562 c 0,-1.96067 1.5367,-3.32867 4.451208,-2.7353 v 1.66391 c -1.61089,-0.52991 -2.25739,0.31891 -2.25739,1.31512 v 5.54189 z m -3.327788,-2.0611 v 0 c -1.039918,1.0142 -2.849915,0.58099 -2.925092,-0.45071 -0.07422,-1.01741 0.741892,-1.35661 1.557867,-1.35661 h 1.367225 z m -3.38081,-6.47041 v 0 c 0,0 1.469707,-0.25661 2.829701,-0.11648 1.441309,0.14827 2.744893,0.76299 2.744893,3.32768 v 4.44059 c 0,0.47703 0.16951,0.87972 0.16951,0.87972 h -1.833386 l -0.3447,-0.69952 c -1.893111,1.7084 -5.282917,1.0202 -5.282917,-1.76989 0,-2.8297 3.232397,-2.8933 4.165,-2.8933 h 0.932709 v -0.27549 c 0,-0.83721 -0.572311,-1.38832 -1.801706,-1.40952 -0.933098,-0.0161 -1.579104,0.19071 -1.579104,0.19071 z m -16.119792,-3.28538 v 0 8.93417 c 0,1.9607 1.345988,3.06292 3.815292,2.92513 v -1.63213 c -1.059815,0 -1.621402,-0.54049 -1.621402,-1.5367 v -8.69047 z m -3.221813,9.75579 v 0 c -1.039883,1.0142 -2.84988,0.58099 -2.925092,-0.45071 -0.07419,-1.01741 0.741891,-1.35661 1.558007,-1.35661 h 1.367085 z m -3.380775,-6.47041 v 0 c 0,0 1.469672,-0.25661 2.829665,-0.11648 1.441309,0.14827 2.744929,0.76299 2.744929,3.32768 v 4.44059 c 0,0.47703 0.16958,0.87972 0.16958,0.87972 h -1.833492 l -0.344593,-0.69952 c -1.893111,1.7084 -5.283024,1.0202 -5.283024,-1.76989 0,-2.8297 3.232503,-2.8933 4.165106,-2.8933 h 0.932604 v -0.27549 c 0,-0.83721 -0.572276,-1.38832 -1.801707,-1.40952 -0.932991,-0.0161 -1.579068,0.19071 -1.579068,0.19071 z"
         style="fill:#918f90 icc-color(ISO-Coated-v2-ECI, 0, 0, 0, 0.49798584);fill-opacity:1;fill-rule:evenodd;stroke:none;stroke-width:0.352778" />
    </g>
  </g>
</svg>
