<?xml version="1.0" encoding="UTF-8"?>
<svg width="75.729mm" height="13.411mm" version="1.1" viewBox="0 0 75.729 13.411" xmlns="http://www.w3.org/2000/svg">
<g transform="translate(-66.94 -141.82)">
<path d="m76.438 148.04v-4.2956c0-0.55851-0.2897-1.1761-1.6967-1.1761v-0.36559h5.3549v0.36559c-1.4057 0-1.694 0.61761-1.694 1.1761v9.6704c0 0.55792 0.28829 1.1748 1.694 1.1748v0.3659h-5.3549v-0.3659c1.407 0 1.6967-0.6169 1.6967-1.1748v-4.5853h-5.8378v4.5853c0 0.55792 0.2885 1.1748 1.6955 1.1748v0.3659h-5.3557v-0.3659c1.4064 0 1.6954-0.6169 1.6954-1.1748v-9.6704c0-0.55851-0.28903-1.1761-1.6954-1.1761v-0.36559h5.3557v0.36559c-1.407 0-1.6955 0.61761-1.6955 1.1761v4.2956z" fill="#231f20 icc-color(ISO-Coated-v2-ECI, 0, 0, 0, 1)"/>
<path d="m80.548 151.09h0.44302c0.59757 1.7917 1.9461 3.411 3.988 3.411 1.5604 0 2.619-1.3493 2.1771-2.8523-0.79089-2.697-6.0485-2.8131-6.0485-6.4917 0-1.9076 1.521-3.2179 3.409-3.2179 2.0418 0 2.966 1.4256 3.4291 0h0.40347l0.42383 4.1043h-0.48031c-0.44362-1.7919-1.7157-3.3136-3.5069-3.3136-1.1559 0-2.0221 0.63493-2.0221 1.8499 0 1.1163 1.2132 1.9059 2.0413 2.4066 2.6197 1.5805 4.3918 2.4087 4.3918 4.7199 0 1.7343-1.445 3.5253-4.0632 3.5253-2.0034 0-3.3911-1.4048-3.5847 0h-0.42319z" fill="#231f20 icc-color(ISO-Coated-v2-ECI, 0, 0, 0, 1)"/>
<path d="m95.565 147.91c1.9452 0 3.0821-0.8291 3.0821-2.3883 0-1.4656-0.92438-2.2552-2.2726-2.5047-1.7729-0.11642-2.3898-0.15381-2.3898 0.51961v4.3734zm-1.5803 5.3164c0 0.675 0.17399 1.0213 1.5803 1.0213 2.0033 0 3.4871-0.59729 3.4871-2.851 0-2.2925-2.2931-2.717-4.1038-2.717h-0.96358zm-1.9644-9.4776c0-0.55851-0.28921-1.1761-1.849-1.1761v-0.36559h5.1618c2.9673 0 5.2791 0.79019 5.2791 3.2565 0 1.6173-1.0798 2.4464-2.5616 2.7739v0.039c1.6555 0.3071 3.2159 1.3278 3.2159 3.1784 0 2.3119-2.0026 3.505-5.0272 3.505h-6.068v-0.3659c1.5598 0 1.849-0.6169 1.849-1.1748z" fill="#231f20 icc-color(ISO-Coated-v2-ECI, 0, 0, 0, 1)"/>
<path d="m112.83 146.17h-0.46192c-0.5581-2.1196-1.9643-3.564-4.1612-3.564-3.1778 0-4.5452 2.5615-4.5452 6.0288 0 2.6975 1.4055 5.6052 4.5657 5.6052 1.8874 0 3.1781-0.6162 4.5072-1.9256l0.3273 0.38551c-1.1747 1.4447-3.1591 2.4086-5.0086 2.4086-3.756 0-6.6263-2.4086-6.6263-6.628 0-3.8329 2.7156-6.6659 6.5885-6.6659 2.6384 0 3.6025 1.5816 4.2389 0.0206h0.40298z" fill="#231f20 icc-color(ISO-Coated-v2-ECI, 0, 0, 0, 1)"/>
<path d="m123.23 141.85h12.957l-6.478 6.4783z" fill="#ee2922 icc-color(ISO-Coated-v2-ECI, 0, 0.94119263, 1, 0)"/>
<path d="m123.23 154.8h12.957l-6.478-6.4779z" fill="#ee2922 icc-color(ISO-Coated-v2-ECI, 0, 0.94119263, 1, 0)"/>
<path d="m123.23 141.85v12.956l-6.4787-6.4779z" fill="#ee2922 icc-color(ISO-Coated-v2-ECI, 0, 0.94119263, 1, 0)"/>
<path d="m136.19 141.85v12.956l6.4784-6.4779z" fill="#ee2922 icc-color(ISO-Coated-v2-ECI, 0, 0.94119263, 1, 0)"/>
</g>
</svg>
