<?xml version="1.0" encoding="UTF-8" standalone="no"?>
<!-- Created with Inkscape (http://www.inkscape.org/) -->

<svg
   width="75.788094mm"
   height="17.531502mm"
   viewBox="0 0 75.788094 17.531502"
   version="1.1"
   id="svg1"
   inkscape:version="1.3 (0e150ed6c4, 2023-07-21)"
   sodipodi:docname="banka-kuveytturk.svg"
   xmlns:inkscape="http://www.inkscape.org/namespaces/inkscape"
   xmlns:sodipodi="http://sodipodi.sourceforge.net/DTD/sodipodi-0.dtd"
   xmlns="http://www.w3.org/2000/svg"
   xmlns:svg="http://www.w3.org/2000/svg">
  <sodipodi:namedview
     id="namedview1"
     pagecolor="#505050"
     bordercolor="#eeeeee"
     borderopacity="1"
     inkscape:showpageshadow="0"
     inkscape:pageopacity="0"
     inkscape:pagecheckerboard="0"
     inkscape:deskcolor="#d1d1d1"
     inkscape:document-units="mm"
     inkscape:zoom="0.74564394"
     inkscape:cx="142.82957"
     inkscape:cy="32.857506"
     inkscape:window-width="1920"
     inkscape:window-height="1051"
     inkscape:window-x="-9"
     inkscape:window-y="-9"
     inkscape:window-maximized="1"
     inkscape:current-layer="layer1" />
  <defs
     id="defs1" />
  <g
     inkscape:label="Layer 1"
     inkscape:groupmode="layer"
     id="layer1"
     transform="translate(-66.939579,-139.69998)">
    <g
       id="g14"
       transform="matrix(0.26458333,0,0,0.26458333,-58.696507,-278.35982)">
      <path
         id="path112"
         d="m 356.1338,128.0529 c 0,13.7239 11.1246,24.8485 24.8485,24.8485 13.7214,0 24.8497,-11.1246 24.8497,-24.8485 0,-13.7212 -11.1283,-24.8471 -24.8497,-24.8471 -13.7239,0 -24.8485,11.1259 -24.8485,24.8471"
         style="fill:#176042 icc-color(ISO-Coated-v2-ECI, 0.8862915, 0.1803894, 0.74899292, 0.41569519);fill-opacity:1;fill-rule:nonzero;stroke:none"
         transform="matrix(1.3333333,0,0,-1.3333333,0,1783.9371)" />
      <path
         id="path113"
         d="m 452.4676,133.9832 -0.003,-6.351 c 0,-2.1912 0.5289,-3.5402 1.9559,-5.0613 l 0.6103,-0.646 0.6397,0.646 c 1.4035,1.497 1.9197,2.9169 1.9197,5.0613 v 6.351 h 4.1675 v -6.351 c 0,-5.4714 -2.8151,-7.5782 -4.4176,-9.271 h -4.623 c -1.6016,1.6928 -4.4164,3.7996 -4.4164,9.271 v 6.351 h 4.1673 z"
         style="fill:#176042 icc-color(ISO-Coated-v2-ECI, 0.8862915, 0.1803894, 0.74899292, 0.41569519);fill-opacity:1;fill-rule:nonzero;stroke:none"
         transform="matrix(1.3333333,0,0,-1.3333333,0,1783.9371)" />
      <path
         id="path114"
         d="m 414.1468,137.6082 h 4.1684 v -7.6865 h 1.1568 l 4.3628,7.6865 h 4.8285 l -4.447,-7.8276 c 3.7188,-0.4646 4.1786,-2.0824 4.1786,-5.1914 v -6.228 h -4.1695 v 6.1449 c 0,1.7691 -0.9975,1.7927 -2.7439,1.7927 h -3.1663 v -7.9376 h -4.1684 z"
         style="fill:#176042 icc-color(ISO-Coated-v2-ECI, 0.8862915, 0.1803894, 0.74899292, 0.41569519);fill-opacity:1;fill-rule:nonzero;stroke:none"
         transform="matrix(1.3333333,0,0,-1.3333333,0,1783.9371)" />
      <path
         id="path115"
         d="m 506.9129,130.3588 h -3.9991 v -11.9956 h -4.1678 v 11.9956 h -3.9991 v 3.6241 h 12.166 z"
         style="fill:#176042 icc-color(ISO-Coated-v2-ECI, 0.8862915, 0.1803894, 0.74899292, 0.41569519);fill-opacity:1;fill-rule:nonzero;stroke:none"
         transform="matrix(1.3333333,0,0,-1.3333333,0,1783.9371)" />
      <path
         id="path116"
         d="m 440.9079,133.9832 h 4.1672 v -15.622 h -13.4572 v 15.622 h 4.1675 v -12.2063 h 5.1225 z"
         style="fill:#176042 icc-color(ISO-Coated-v2-ECI, 0.8862915, 0.1803894, 0.74899292, 0.41569519);fill-opacity:1;fill-rule:nonzero;stroke:none"
         transform="matrix(1.3333333,0,0,-1.3333333,0,1783.9371)" />
      <path
         id="path117"
         d="m 476.2514,130.5677 h -7.1017 v -2.6657 h 6.666 v -3.4166 h -6.666 v -2.7085 h 7.2499 v -3.4154 h -11.4191 v 15.6217 h 11.2709 z"
         style="fill:#176042 icc-color(ISO-Coated-v2-ECI, 0.8862915, 0.1803894, 0.74899292, 0.41569519);fill-opacity:1;fill-rule:nonzero;stroke:none"
         transform="matrix(1.3333333,0,0,-1.3333333,0,1783.9371)" />
      <path
         id="path118"
         d="m 488.1637,129.9807 v 4.0017 h 4.1646 v -4.2733 c 0,-3.5368 -1.4125,-4.9113 -4.6457,-5.2441 v -6.1038 h -4.1652 v 6.107 c -4.151,0.3846 -4.646,2.0072 -4.646,5.2409 v 4.2733 h 4.1667 v -4.1902 c 0,-1.7694 0.9989,-1.7898 2.7521,-1.7898 1.7677,0 2.3735,0.1448 2.3735,1.9783"
         style="fill:#176042 icc-color(ISO-Coated-v2-ECI, 0.8862915, 0.1803894, 0.74899292, 0.41569519);fill-opacity:1;fill-rule:nonzero;stroke:none"
         transform="matrix(1.3333333,0,0,-1.3333333,0,1783.9371)" />
      <path
         id="path119"
         d="m 532.4638,123.84 v 10.1443 h 4.1638 v -10.4161 c 0,-4.1647 -1.9593,-5.3317 -6.5418,-5.3317 -6.2487,0 -6.9125,1.5845 -6.9125,5.3317 v 10.4161 h 4.1641 v -10.3314 c 0,-1.7699 0.998,-1.792 2.7484,-1.792 1.7705,0 2.378,0.1454 2.378,1.9791"
         style="fill:#176042 icc-color(ISO-Coated-v2-ECI, 0.8862915, 0.1803894, 0.74899292, 0.41569519);fill-opacity:1;fill-rule:nonzero;stroke:none"
         transform="matrix(1.3333333,0,0,-1.3333333,0,1783.9371)" />
      <path
         id="path120"
         d="m 532.4638,123.84 v 10.1443 h 4.1638 v -10.4161 c 0,-4.1647 -1.9593,-5.3317 -6.5418,-5.3317 -6.2487,0 -6.9125,1.5845 -6.9125,5.3317 v 10.4161 h 4.1641 v -10.3314 c 0,-1.7699 0.998,-1.792 2.7484,-1.792 1.7705,0 2.378,0.1454 2.378,1.9791"
         style="fill:#176042 icc-color(ISO-Coated-v2-ECI, 0.8862915, 0.1803894, 0.74899292, 0.41569519);fill-opacity:1;fill-rule:nonzero;stroke:none"
         transform="matrix(1.3333333,0,0,-1.3333333,0,1783.9371)" />
      <path
         id="path121"
         d="m 556.4931,133.9835 h 4.1647 v -5.8734 h 1.25 l 4.2027,5.8734 h 4.8557 l -4.32,-6.027 c 3.6394,-0.476 4.0907,-2.0957 4.0907,-5.1789 v -4.4164 h -4.168 v 4.3328 c 0,1.7691 -0.9981,1.7931 -2.7448,1.7931 h -3.1663 v -6.1259 h -4.1647 z"
         style="fill:#176042 icc-color(ISO-Coated-v2-ECI, 0.8862915, 0.1803894, 0.74899292, 0.41569519);fill-opacity:1;fill-rule:nonzero;stroke:none"
         transform="matrix(1.3333333,0,0,-1.3333333,0,1783.9371)" />
      <path
         id="path122"
         d="m 549.1015,130.3594 h -5.082 v -3.7871 h 5.082 z m -0.0544,-11.9982 -3.2885,4.5865 h -1.7394 v -4.5865 h -4.1643 v 15.6226 h 13.4107 v -11.0361 h -2.6501 l 3.2808,-4.5865 z"
         style="fill:#176042 icc-color(ISO-Coated-v2-ECI, 0.8862915, 0.1803894, 0.74899292, 0.41569519);fill-opacity:1;fill-rule:nonzero;stroke:none"
         transform="matrix(1.3333333,0,0,-1.3333333,0,1783.9371)" />
      <path
         id="path123"
         d="m 522.125,133.9835 h -5.0014 v -15.6223 h -4.1644 v 15.6223 h -4.9972 v 3.6235 h 14.163 z"
         style="fill:#176042 icc-color(ISO-Coated-v2-ECI, 0.8862915, 0.1803894, 0.74899292, 0.41569519);fill-opacity:1;fill-rule:nonzero;stroke:none"
         transform="matrix(1.3333333,0,0,-1.3333333,0,1783.9371)" />
      <path
         id="path124"
         d="m 530.278,137.6082 2.1855,2.1843 2.1847,-2.1843 -2.1847,-2.1853 z"
         style="fill:#176042 icc-color(ISO-Coated-v2-ECI, 0.8862915, 0.1803894, 0.74899292, 0.41569519);fill-opacity:1;fill-rule:nonzero;stroke:none"
         transform="matrix(1.3333333,0,0,-1.3333333,0,1783.9371)" />
      <path
         id="path125"
         d="m 525.1524,137.6082 2.185,2.1843 2.1852,-2.1843 -2.1852,-2.1853 z"
         style="fill:#176042 icc-color(ISO-Coated-v2-ECI, 0.8862915, 0.1803894, 0.74899292, 0.41569519);fill-opacity:1;fill-rule:nonzero;stroke:none"
         transform="matrix(1.3333333,0,0,-1.3333333,0,1783.9371)" />
      <path
         id="path126"
         d="m 379.7989,105.751 -2.4985,-1.5619 -1.6489,4.0034 z m -3.9861,10.9791 4.013,-2.4817 -2.3701,-1.607 z m -0.1313,8.6242 4.2086,-2.5419 -2.4689,-1.7773 z m 6.6731,-6.9353 4.108,2.5504 -1.5991,-4.1857 z m -6.6022,-5.9607 7.7057,-4.6734 -2.3309,-1.5069 -4.0025,2.2416 z m 3.0149,-0.2732 7.6167,4.6066 -1.2237,-3.7029 -3.9716,-2.6856 z m -3.0106,8.6955 7.7658,-4.4643 -2.5597,-1.7447 -3.8713,2.3448 z m 2.899,-0.2701 7.7357,4.6533 -1.4,-3.9812 -3.7695,-2.2796 z m -0.2384,4.4538 h 5.1616 l -2.4517,-1.9361 z m 3.9373,-14.9491 4.108,2.5469 -1.5991,-4.1836 z m -1.3646,17.8759 c 0,0 -4.1584,11.999 -4.951,14.3994 -0.3203,0.9808 -0.4584,1.8227 0.1692,2.6413 l 4.7775,6.2617 4.7753,-6.2617 c 0.6264,-0.8186 0.489,-1.6605 0.1681,-2.6413 -0.792,-2.4004 -4.9391,-14.3994 -4.9391,-14.3994 z m 23.5165,-1.372 -22.0564,-0.004 10.0446,5.171 c 5.601,2.8837 7.4596,0.468 9.5057,-2.067 l 2.5061,-3.0997 z m -22.5425,1.1066 6.929,12.4178 c 0.8974,1.6103 3.1966,2.4188 5.2103,1.2087 l 7.786,-4.6798 -3.9048,-0.008 c -1.7192,-0.003 -3.0855,-0.6625 -4.3265,-1.4562 l -11.694,-7.4829 z m -24.5013,-1.1066 2.5056,3.0997 c 2.0463,2.535 3.9047,4.9507 9.5059,2.067 l 10.0449,-5.171 -22.0564,0.004 z m 22.5425,1.1066 -11.6949,7.4829 c -1.2404,0.7937 -2.6098,1.4528 -4.3262,1.4562 l -3.905,0.008 7.7865,4.6798 c 2.0134,1.2101 4.3098,0.4016 5.2098,-1.2087 l 6.9298,-12.4178 z m -1.69,-24.3677 8.0688,4.7701 -1.5412,-4.6343 c -1.2328,-0.1877 -2.4976,-0.2863 -3.7859,-0.2863 -0.9275,0 -1.8414,0.0501 -2.7417,0.1505"
         style="fill:#c1900a icc-color(ISO-Coated-v2-ECI, 0.04309082, 0.28239441, 1, 0.21958923);fill-opacity:1;fill-rule:nonzero;stroke:none"
         transform="matrix(1.3333333,0,0,-1.3333333,0,1783.9371)" />
    </g>
  </g>
</svg>
