<?xml version="1.0" encoding="UTF-8" standalone="no"?>
<!-- Created with Inkscape (http://www.inkscape.org/) -->

<svg
   width="75.72879mm"
   height="13.410988mm"
   viewBox="0 0 75.72879 13.410988"
   version="1.1"
   id="svg1"
   inkscape:version="1.3 (0e150ed6c4, 2023-07-21)"
   sodipodi:docname="banka-hsbc.svg"
   xmlns:inkscape="http://www.inkscape.org/namespaces/inkscape"
   xmlns:sodipodi="http://sodipodi.sourceforge.net/DTD/sodipodi-0.dtd"
   xmlns="http://www.w3.org/2000/svg"
   xmlns:svg="http://www.w3.org/2000/svg">
  <sodipodi:namedview
     id="namedview1"
     pagecolor="#505050"
     bordercolor="#eeeeee"
     borderopacity="1"
     inkscape:showpageshadow="0"
     inkscape:pageopacity="0"
     inkscape:pagecheckerboard="0"
     inkscape:deskcolor="#d1d1d1"
     inkscape:document-units="mm"
     inkscape:zoom="5.9651515"
     inkscape:cx="248.02388"
     inkscape:cy="20.703581"
     inkscape:window-width="1920"
     inkscape:window-height="1051"
     inkscape:window-x="-9"
     inkscape:window-y="-9"
     inkscape:window-maximized="1"
     inkscape:current-layer="layer1" />
  <defs
     id="defs1" />
  <g
     inkscape:label="Layer 1"
     inkscape:groupmode="layer"
     id="layer1"
     transform="translate(-66.939578,-141.81667)">
    <path
       id="path69"
       d="m 76.437588,148.04228 v -4.2956 c 0,-0.55851 -0.289701,-1.17612 -1.69672,-1.17612 v -0.36559 h 5.35492 v 0.36559 c -1.405714,0 -1.694004,0.61761 -1.694004,1.17612 v 9.67038 c 0,0.55792 0.28829,1.17482 1.694004,1.17482 v 0.3659 h -5.35492 v -0.3659 c 1.407019,0 1.69672,-0.6169 1.69672,-1.17482 v -4.5853 h -5.837801 v 4.5853 c 0,0.55792 0.288501,1.17482 1.695485,1.17482 v 0.3659 h -5.355696 v -0.3659 c 1.406384,0 1.695415,-0.6169 1.695415,-1.17482 v -9.67038 c 0,-0.55851 -0.289031,-1.17612 -1.695415,-1.17612 v -0.36559 h 5.355696 v 0.36559 c -1.406984,0 -1.695485,0.61761 -1.695485,1.17612 v 4.2956 z"
       style="fill:#231f20 icc-color(ISO-Coated-v2-ECI, 0, 0, 0, 1);fill-opacity:1;fill-rule:nonzero;stroke:none;stroke-width:0.352778" />
    <path
       id="path70"
       d="m 80.547873,151.08615 h 0.443018 c 0.59757,1.79173 1.946098,3.41101 3.987976,3.41101 1.560407,0 2.619022,-1.3493 2.177098,-2.85228 -0.790893,-2.69702 -6.048481,-2.81312 -6.048481,-6.49171 0,-1.90761 1.521001,-3.2179 3.408997,-3.2179 2.041807,0 2.965979,1.42562 3.429106,0 h 0.403472 l 0.423827,4.10429 h -0.480307 c -0.443618,-1.7919 -1.715699,-3.3136 -3.506893,-3.3136 -1.155912,0 -2.022122,0.63493 -2.022122,1.84993 0,1.11629 1.213203,1.90588 2.041313,2.40658 2.619693,1.58051 4.391801,2.40869 4.391801,4.71992 0,1.73429 -1.445013,3.52527 -4.063188,3.52527 -2.003425,0 -3.391112,-1.4048 -3.584716,0 h -0.423192 z"
       style="fill:#231f20 icc-color(ISO-Coated-v2-ECI, 0, 0, 0, 1);fill-opacity:1;fill-rule:nonzero;stroke:none;stroke-width:0.352778" />
    <path
       id="path71"
       d="m 95.565093,147.90787 c 1.945181,0 3.082078,-0.8291 3.082078,-2.3883 0,-1.46558 -0.924384,-2.2552 -2.272594,-2.50469 -1.772885,-0.11642 -2.389788,-0.15381 -2.389788,0.51961 v 4.37338 z m -1.580304,5.3164 c 0,0.675 0.17399,1.02129 1.580304,1.02129 2.003284,0 3.487067,-0.59729 3.487067,-2.85097 0,-2.29253 -2.293091,-2.71703 -4.103793,-2.71703 h -0.963578 z m -1.964407,-9.47759 c 0,-0.55851 -0.289207,-1.17612 -1.849014,-1.17612 v -0.36559 h 5.161809 c 2.967284,0 5.279103,0.79019 5.279103,3.2565 0,1.6173 -1.079813,2.4464 -2.561621,2.77389 v 0.039 c 1.655515,0.3071 3.215921,1.32779 3.215921,3.17839 0,2.31189 -2.002612,3.50502 -5.027188,3.50502 h -6.068024 v -0.3659 c 1.559807,0 1.849014,-0.6169 1.849014,-1.17482 z"
       style="fill:#231f20 icc-color(ISO-Coated-v2-ECI, 0, 0, 0, 1);fill-opacity:1;fill-rule:nonzero;stroke:none;stroke-width:0.352778" />
    <path
       id="path72"
       d="m 112.82848,146.17207 h -0.46192 c -0.5581,-2.1196 -1.96427,-3.56401 -4.16119,-3.56401 -3.17779,0 -4.54519,2.56152 -4.54519,6.02883 0,2.69748 1.4055,5.60518 4.56568,5.60518 1.8874,0 3.17811,-0.6162 4.5072,-1.9256 l 0.3273,0.38551 c -1.17467,1.4447 -3.15908,2.40859 -5.00859,2.40859 -3.75599,0 -6.6263,-2.40859 -6.6263,-6.62799 0,-3.83289 2.71561,-6.66591 6.58851,-6.66591 2.63839,0 3.6025,1.58161 4.23891,0.0206 h 0.40298 z"
       style="fill:#231f20 icc-color(ISO-Coated-v2-ECI, 0, 0, 0, 1);fill-opacity:1;fill-rule:nonzero;stroke:none;stroke-width:0.352778" />
    <path
       id="path74"
       d="m 123.23328,141.84807 h 12.95668 l -6.47799,6.4783 z"
       style="fill:#ee2922 icc-color(ISO-Coated-v2-ECI, 0, 0.94119263, 1, 0);fill-opacity:1;fill-rule:nonzero;stroke:none;stroke-width:0.352778" />
    <path
       id="path75"
       d="m 123.23328,154.80425 h 12.95668 l -6.47799,-6.47788 z"
       style="fill:#ee2922 icc-color(ISO-Coated-v2-ECI, 0, 0.94119263, 1, 0);fill-opacity:1;fill-rule:nonzero;stroke:none;stroke-width:0.352778" />
    <path
       id="path76"
       d="m 123.23328,141.84807 v 12.95618 l -6.4787,-6.47788 z"
       style="fill:#ee2922 icc-color(ISO-Coated-v2-ECI, 0, 0.94119263, 1, 0);fill-opacity:1;fill-rule:nonzero;stroke:none;stroke-width:0.352778" />
    <path
       id="path77"
       d="m 136.18996,141.84807 v 12.95618 l 6.47841,-6.47788 z"
       style="fill:#ee2922 icc-color(ISO-Coated-v2-ECI, 0, 0.94119263, 1, 0);fill-opacity:1;fill-rule:nonzero;stroke:none;stroke-width:0.352778" />
  </g>
</svg>
